<svg width="154" height="84" viewBox="0 0 154 84" fill="none" xmlns="http://www.w3.org/2000/svg">
<g clip-path="url(#clip0_529_1466)">
<mask id="mask0_529_1466" style="mask-type:luminance" maskUnits="userSpaceOnUse" x="-1" y="0" width="74" height="85">
<path d="M71.9497 45.1473C69.7131 42.8091 66.9035 40.0827 63.6781 37.4487C61.1457 35.3785 58.3639 33.373 55.4157 31.6355C52.8926 30.1475 50.2309 28.8721 47.4953 27.9294C45.0461 27.0884 42.5415 26.5246 40.0185 26.349C38.1331 26.2104 36.2847 26.2843 34.4732 26.5801C32.6618 26.8758 30.8781 27.3841 29.1313 28.105C27.3846 28.8351 25.6748 29.7778 24.0113 30.9331C22.3384 32.0976 20.7026 33.4746 19.1222 35.0643C19.0206 35.1659 18.8912 35.2214 18.7525 35.2214C18.6231 35.2214 18.4845 35.1752 18.3829 35.0735L14.8894 31.6078C14.7877 31.5061 14.7415 31.3767 14.7415 31.2381C14.7415 31.0994 14.7969 30.9701 14.8986 30.8684L14.9171 30.8499C16.8025 28.9553 18.7433 27.3102 20.7488 25.9331C22.7636 24.5376 24.843 23.4008 26.9779 22.5228C29.1221 21.6448 31.3125 21.0256 33.5675 20.6744C35.8133 20.3232 38.1146 20.2216 40.4621 20.3972C42.7171 20.5635 44.9445 20.9609 47.1163 21.5617C49.4546 22.1994 51.7374 23.0681 53.9277 24.0847C56.46 25.2585 58.8907 26.654 61.1827 28.1697C63.216 29.5098 65.1475 30.9423 66.9313 32.3933V24.9073L36.4233 7.29196L5.93384 24.898V31.0163C7.53271 33.0588 9.8617 35.8406 12.6898 38.6502C14.7692 40.7204 17.1075 42.7999 19.6305 44.6298C21.7285 46.1547 23.9466 47.4856 26.2201 48.4745C28.2349 49.3432 30.2958 49.9439 32.3661 50.1658H32.3845C33.6599 50.2859 34.9076 50.2674 36.1276 50.1011C37.3475 49.9347 38.5397 49.6297 39.7042 49.1769C40.878 48.724 42.024 48.114 43.1515 47.3562C44.279 46.5983 45.3881 45.6834 46.4879 44.6205C46.5895 44.5189 46.7282 44.4727 46.8576 44.4727H46.8668C46.9962 44.4727 47.1256 44.5281 47.218 44.6298L50.6468 48.151C50.6468 48.151 50.6838 48.188 50.693 48.2064C50.7577 48.2989 50.7947 48.4098 50.7947 48.5207C50.7947 48.6501 50.7392 48.7887 50.6376 48.8811L50.6098 48.9088C49.2235 50.2582 47.7818 51.4227 46.303 52.3931C44.8058 53.382 43.2716 54.1676 41.7005 54.7683C40.1201 55.369 38.5028 55.7757 36.8392 55.9975C35.1849 56.21 33.4843 56.2378 31.7561 56.0714C29.0574 55.8034 26.4327 55.064 23.9188 54.0104C21.0723 52.8182 18.3644 51.2101 15.8598 49.4172C12.8007 47.2175 10.0373 44.7314 7.68058 42.3378C4.04846 38.6409 1.37752 35.1752 0.0836313 33.3822C0.0559052 33.336 0.0281791 33.2898 0.009695 33.2343C-0.00878906 33.1697 -0.00878906 33.1234 -0.00878906 33.0772V23.2067C-0.00878906 22.9202 0.0374211 22.643 0.111357 22.375C0.194536 22.0977 0.314682 21.8389 0.462555 21.6079C0.619669 21.3676 0.80451 21.155 1.01708 20.9702C1.2204 20.7946 1.45145 20.6375 1.71023 20.5173L34.9538 1.32161C35.1849 1.19222 35.4344 1.09056 35.6747 1.02586C35.9335 0.961169 36.1922 0.924201 36.451 0.933443C36.719 0.933443 36.9778 0.970411 37.2274 1.04435C37.4769 1.11828 37.7172 1.21995 37.9482 1.35858L71.3582 20.6467C71.5892 20.7761 71.7926 20.9332 71.9682 21.118C72.153 21.3029 72.3101 21.5062 72.4395 21.728C72.5597 21.9406 72.6613 22.1716 72.726 22.4212C72.7907 22.643 72.8277 22.874 72.8369 23.1143C72.8369 23.1143 72.8462 23.1883 72.8462 23.216V44.8146C72.8462 44.9625 72.7907 45.0919 72.6983 45.1843C72.6059 45.2767 72.4765 45.3414 72.3286 45.3414C72.2547 45.3414 72.1807 45.3229 72.116 45.2952C72.0513 45.2675 71.9959 45.2213 71.9497 45.1751M72.8554 54.9439V61.8569C72.8554 62.1434 72.8184 62.4207 72.7353 62.6887V62.7072C72.6521 62.9752 72.5319 63.2248 72.3841 63.4558C72.2269 63.6961 72.0421 63.9087 71.8295 64.0935L71.8018 64.112C71.5985 64.2783 71.3767 64.4262 71.1364 64.5464L37.902 83.7328C37.671 83.8715 37.4307 83.9639 37.1811 84.0286C36.9224 84.0933 36.6636 84.1302 36.4048 84.121C36.1368 84.121 35.878 84.084 35.6285 84.0101C35.379 83.9362 35.1387 83.8345 34.9076 83.6959L1.49766 64.3892C1.26661 64.2599 1.06329 64.1028 0.887688 63.9179C0.702847 63.7331 0.545733 63.5297 0.416344 63.3079C0.296198 63.0954 0.194536 62.8643 0.129841 62.624C0.0651472 62.4022 0.0281791 62.1712 0.018937 61.9309C0.018937 61.9309 0.009695 61.8569 0.009695 61.8292V42.883C0.009695 42.7352 0.0651472 42.6058 0.157568 42.5134C0.249988 42.4209 0.379376 42.3562 0.527249 42.3562C0.601185 42.3562 0.675121 42.3747 0.739816 42.4025C0.80451 42.4302 0.859962 42.4671 0.906172 42.5226C3.14274 44.8608 5.95232 47.5872 9.17779 50.2212C11.7101 52.2914 14.492 54.2969 17.4402 56.0345C19.9725 57.5224 22.625 58.7978 25.3606 59.7405C27.8097 60.5815 30.3143 61.1361 32.8466 61.3209C34.732 61.4688 36.5804 61.3856 38.3919 61.0991C40.2033 60.8033 41.987 60.295 43.7245 59.5741C45.4713 58.844 47.181 57.9013 48.8446 56.7461C50.5174 55.5816 52.1532 54.2045 53.7429 52.6149C53.8445 52.5132 53.9739 52.4578 54.1126 52.4578C54.2419 52.4578 54.3806 52.504 54.4822 52.6057L57.9757 56.0714C58.0774 56.1731 58.1328 56.3117 58.1328 56.4411C58.1328 56.5705 58.0866 56.7091 57.9757 56.8108C56.0903 58.7146 54.1403 60.3597 52.1255 61.7553C50.1108 63.1508 48.0313 64.2876 45.8964 65.1656C43.7615 66.0436 41.5619 66.6628 39.3068 67.014C37.061 67.3652 34.7597 67.4576 32.4123 67.2912C30.1572 67.1249 27.9299 66.7275 25.758 66.1268C23.4105 65.4891 21.137 64.6203 18.9466 63.6037C16.5714 62.4946 14.2886 61.2007 12.1168 59.8052C9.9264 58.3819 7.85618 56.857 5.93384 55.3043V60.1287L36.4233 77.7347L66.9128 60.1287V56.6444C65.3139 54.6019 62.9849 51.8201 60.1661 49.0105C58.0866 46.9403 55.7484 44.8608 53.2346 43.0401C51.1366 41.5245 48.9278 40.1936 46.645 39.2047C44.6302 38.336 42.5693 37.7445 40.5083 37.5319C39.2144 37.4118 37.9667 37.421 36.7375 37.5873C35.5176 37.7537 34.3254 38.0587 33.1516 38.5116C31.9871 38.9644 30.8411 39.5744 29.7136 40.3322C28.5861 41.0901 27.477 42.005 26.3957 43.0679C26.294 43.1695 26.1554 43.2157 26.026 43.2157H26.0168C25.8874 43.2157 25.758 43.1603 25.6563 43.0586L22.1906 39.5282C22.0889 39.4265 22.0427 39.2879 22.0427 39.1585C22.0427 39.0199 22.0982 38.8905 22.1906 38.7981L22.2091 38.7796C23.6046 37.4118 25.0464 36.238 26.5251 35.2584C28.0223 34.2695 29.5565 33.4746 31.1369 32.8739C32.7172 32.2732 34.3438 31.8665 36.0074 31.654C37.671 31.4414 39.3623 31.4322 41.0905 31.617H41.109C44.9167 32.0052 48.5858 33.3175 51.9961 35.1382C55.3972 36.9589 58.5487 39.2971 61.3398 41.737C64.1217 44.1677 66.5338 46.7 68.4747 48.9181C70.4155 51.1454 71.8757 53.0493 72.7445 54.2323C72.7445 54.2323 72.7999 54.3247 72.8184 54.3801V54.4263C72.8184 54.4263 72.8462 54.5003 72.8462 54.5372V54.8977L72.8554 54.9439Z" fill="white"/>
</mask>
<g mask="url(#mask0_529_1466)">
<path d="M72.8549 0.924316H0V84.1119H72.8549V0.924316Z" fill="url(#paint0_linear_529_1466)"/>
</g>
<path d="M120.831 62.9105C119.306 62.9105 118.096 62.4484 117.199 61.5334L118.188 60.1287C118.927 60.9142 119.833 61.3024 120.914 61.3024C121.386 61.3024 121.755 61.21 122.014 61.0251C122.273 60.8403 122.402 60.6092 122.402 60.3412C122.402 60.1102 122.282 59.9068 122.033 59.759C121.792 59.6019 121.487 59.491 121.118 59.417C120.757 59.3523 120.36 59.2507 119.925 59.1213C119.5 58.9919 119.103 58.844 118.733 58.6777C118.373 58.5113 118.068 58.2525 117.818 57.8921C117.578 57.5409 117.449 57.1065 117.449 56.589C117.449 55.8404 117.744 55.2119 118.336 54.7036C118.927 54.1953 119.713 53.9457 120.702 53.9457C122.06 53.9457 123.179 54.3524 124.047 55.1564L123.031 56.515C122.356 55.8773 121.524 55.5631 120.535 55.5631C120.147 55.5631 119.852 55.637 119.639 55.7941C119.426 55.9513 119.316 56.1638 119.316 56.4318C119.316 56.6444 119.436 56.82 119.685 56.9586C119.925 57.0973 120.23 57.2082 120.6 57.2729C120.961 57.3468 121.358 57.4485 121.783 57.5779C122.208 57.7165 122.606 57.8644 122.966 58.0307C123.327 58.1971 123.632 58.4651 123.881 58.8255C124.121 59.186 124.251 59.6203 124.251 60.1194C124.251 60.9512 123.955 61.6259 123.373 62.1342C122.781 62.6425 121.931 62.9013 120.822 62.9013M113.428 61.1453C113.77 61.1453 114.038 61.0529 114.242 60.8773C114.445 60.7017 114.537 60.4521 114.537 60.1379C114.537 59.8514 114.436 59.6111 114.242 59.417C114.048 59.2229 113.77 59.1213 113.428 59.1213H111.072V61.136H113.428V61.1453ZM113.364 57.5409C113.669 57.5409 113.918 57.4577 114.094 57.2821C114.279 57.1065 114.362 56.8847 114.362 56.6074C114.362 56.3302 114.269 56.0991 114.085 55.9235C113.9 55.7479 113.659 55.6555 113.354 55.6555H111.062V57.5409H113.354H113.364ZM113.9 62.7442H109.242V54.0659H113.761C114.537 54.0659 115.147 54.2785 115.582 54.7128C116.016 55.138 116.229 55.6648 116.229 56.284C116.229 56.8108 116.09 57.2544 115.804 57.6148C115.517 57.966 115.166 58.1878 114.75 58.2803C115.212 58.3542 115.6 58.5852 115.924 58.9919C116.238 59.3985 116.395 59.8699 116.395 60.4152C116.395 61.0898 116.173 61.6536 115.739 62.0972C115.304 62.5408 114.685 62.7626 113.9 62.7626V62.7442ZM105.332 59.6481L103.992 55.9143L102.652 59.6481H105.332ZM108.447 62.7442H106.367L105.841 61.2747H102.162L101.617 62.7442H99.5283L102.846 54.0659H105.138L108.447 62.7442ZM99.1679 62.7442H93.7151V54.0659H95.545V61.1176H99.1771V62.7442H99.1679ZM150.701 46.8941H148.872V43.3451L145.563 38.2158H147.652L149.786 41.7L151.894 38.2158H153.982L150.701 43.3451V46.8941ZM142.818 46.8941H140.979V39.8424H138.474V38.2158H145.323V39.8424H142.827V46.8941H142.818ZM137.3 46.8941H135.471V38.2158H137.3V46.8941ZM130.942 42.1806C131.321 42.1806 131.626 42.0697 131.866 41.8572C132.106 41.6446 132.227 41.3581 132.227 41.0069C132.227 40.6557 132.106 40.3692 131.866 40.1566C131.626 39.9441 131.321 39.8332 130.942 39.8332H129.029V42.1806H130.942ZM134.149 46.8941H132.051L130.369 43.8072H129.029V46.8941H127.199V38.2158H131.21C132.097 38.2158 132.79 38.4746 133.317 39.0014C133.835 39.5189 134.094 40.1936 134.094 41.0161C134.094 41.7278 133.909 42.3008 133.548 42.7444C133.188 43.188 132.744 43.4653 132.217 43.5947L134.149 46.9033V46.8941ZM124.528 46.0715C123.872 46.7185 122.911 47.0512 121.635 47.0512C120.36 47.0512 119.408 46.7277 118.742 46.0715C118.086 45.4153 117.763 44.5373 117.763 43.4375V38.2158H119.611V43.3729C119.611 44.0013 119.787 44.4911 120.138 44.8608C120.489 45.2305 120.988 45.4153 121.626 45.4153C122.264 45.4153 122.763 45.2305 123.114 44.8608C123.465 44.4911 123.632 43.9921 123.632 43.3729V38.2158H125.498V43.4191C125.498 44.5373 125.175 45.4246 124.51 46.0715H124.528ZM113.086 47.0512C111.783 47.0512 110.693 46.6353 109.824 45.7943C108.955 44.9532 108.521 43.8812 108.521 42.5596C108.521 41.2379 108.955 40.1659 109.824 39.3248C110.693 38.4838 111.783 38.0679 113.086 38.0679C114.694 38.0679 115.887 38.7796 116.672 40.1936L115.101 40.9792C114.916 40.6187 114.639 40.3137 114.269 40.0734C113.909 39.8332 113.511 39.713 113.077 39.713C112.301 39.713 111.654 39.981 111.146 40.5171C110.637 41.0531 110.388 41.737 110.388 42.5596C110.388 43.3821 110.637 44.066 111.146 44.602C111.654 45.1381 112.292 45.4061 113.077 45.4061C113.502 45.4061 113.9 45.286 114.269 45.0549C114.63 44.8239 114.907 44.5189 115.101 44.1399L116.672 44.907C115.859 46.3303 114.658 47.0419 113.086 47.0419V47.0512ZM107.504 46.8941H101.432V38.2158H107.504V39.8424H103.262V41.6816H107.421V43.3082H103.262V45.2767H107.504V46.9033V46.8941ZM96.7649 47.0512C95.24 47.0512 94.0293 46.5891 93.1328 45.6741L94.1217 44.2693C94.8611 45.0549 95.7668 45.4431 96.8481 45.4431C97.3195 45.4431 97.6891 45.3506 97.9479 45.1658C98.2067 44.981 98.3361 44.7499 98.3361 44.4819C98.3361 44.2508 98.2159 44.0568 97.9664 43.8996C97.7261 43.7425 97.4211 43.6316 97.0514 43.5577C96.691 43.4838 96.2936 43.3913 95.8592 43.2619C95.4341 43.1326 95.0367 42.9847 94.667 42.8183C94.3066 42.652 94.0016 42.3932 93.752 42.042C93.5025 41.6908 93.3824 41.2564 93.3824 40.7389C93.3824 39.9903 93.6781 39.3618 94.2696 38.8627C94.8611 38.3637 95.6466 38.1049 96.6355 38.1049C97.9941 38.1049 99.1124 38.5115 99.9812 39.3156L98.9645 40.6649C98.2899 40.0272 97.4581 39.713 96.4692 39.713C96.081 39.713 95.7853 39.7869 95.5727 39.9441C95.3601 40.1012 95.2492 40.3137 95.2492 40.5818C95.2492 40.7943 95.3694 40.9699 95.6189 41.1086C95.8685 41.2472 96.1642 41.3581 96.5339 41.432C96.8943 41.506 97.2917 41.6076 97.7169 41.737C98.142 41.8756 98.5394 42.0235 98.8998 42.1899C99.2603 42.3562 99.5653 42.6242 99.8148 42.9847C100.055 43.3451 100.184 43.7795 100.184 44.2786C100.184 45.1104 99.8887 45.785 99.3065 46.2933C98.715 46.8016 97.8647 47.0604 96.7557 47.0604L96.7649 47.0512ZM132.199 31.044H131.127V27.3749L127.744 22.3657H128.992L131.654 26.4045L134.315 22.3657H135.563L132.19 27.3749V31.044H132.199ZM126.626 31.044H125.6L120.6 24.1217V31.044H119.528V22.3657H120.619L125.563 29.1494V22.3657H126.635V31.044H126.626ZM117.513 31.044H116.487L111.478 24.1217V31.044H110.406V22.3657H111.497L116.441 29.1494V22.3657H117.504V31.044H117.513ZM107.513 30.2584C106.913 30.8869 106.053 31.2011 104.907 31.2011C103.761 31.2011 102.902 30.8869 102.301 30.2584C101.7 29.63 101.404 28.7704 101.404 27.6706V22.3565H102.467V27.6429C102.467 28.447 102.68 29.0847 103.096 29.5468C103.512 30.0089 104.112 30.2399 104.898 30.2399C105.683 30.2399 106.275 30.0089 106.7 29.5468C107.125 29.0847 107.329 28.4562 107.329 27.6429V22.3565H108.401V27.6522C108.401 28.752 108.105 29.6207 107.504 30.2492L107.513 30.2584ZM96.6448 31.2011C95.2585 31.2011 94.1587 30.739 93.3546 29.824L93.9831 29.0015C94.7132 29.824 95.6097 30.2399 96.6818 30.2399C97.3749 30.2399 97.8832 30.0921 98.2159 29.7871C98.5394 29.4913 98.7058 29.1401 98.7058 28.7427C98.7058 28.4377 98.6133 28.179 98.4193 27.9756C98.2344 27.7631 97.9849 27.6059 97.6891 27.4858C97.3934 27.3657 97.0607 27.264 96.7002 27.1716C96.3398 27.0791 95.9701 26.9682 95.6097 26.8481C95.2492 26.728 94.9258 26.5893 94.6208 26.423C94.325 26.2566 94.0847 26.0256 93.8907 25.7206C93.7058 25.4156 93.6042 25.0551 93.6042 24.6393C93.6042 23.9276 93.8814 23.3454 94.4359 22.9018C94.9905 22.4581 95.6929 22.2271 96.5431 22.2271C97.8185 22.2271 98.8352 22.6337 99.593 23.4378L98.9461 24.2326C98.3176 23.5395 97.4951 23.1883 96.4599 23.1883C95.9424 23.1883 95.5265 23.3176 95.1938 23.5764C94.8611 23.8352 94.6947 24.1679 94.6947 24.5746C94.6947 24.8795 94.8241 25.1291 95.0736 25.3324C95.3232 25.5357 95.6374 25.6836 96.0163 25.776C96.386 25.8684 96.7927 25.9886 97.2363 26.1365C97.6799 26.2751 98.0865 26.4322 98.4562 26.5893C98.8259 26.7464 99.1401 27.0052 99.3989 27.3657C99.6485 27.7168 99.7778 28.1512 99.7778 28.6503C99.7778 29.3619 99.5191 29.9627 99.0015 30.4617C98.484 30.9516 97.6891 31.2011 96.6171 31.2011H96.6448Z" fill="#1C2135"/>
<path fill-rule="evenodd" clip-rule="evenodd" d="M83.0028 30.6928C83.5111 30.6928 83.9362 31.1087 83.9362 31.6262V53.4097C83.9362 53.918 83.5203 54.3431 83.0028 54.3431C82.4945 54.3431 82.0693 53.9273 82.0693 53.4097V31.6262C82.0693 31.1179 82.4852 30.6928 83.0028 30.6928Z" fill="#1C2135"/>
</g>
<defs>
<linearGradient id="paint0_linear_529_1466" x1="15.083" y1="8.44733" x2="57.7627" y2="76.5796" gradientUnits="userSpaceOnUse">
<stop stop-color="#01ABFF"/>
<stop offset="0.12" stop-color="#00B6F9"/>
<stop offset="0.44" stop-color="#00CCEF"/>
<stop offset="0.74" stop-color="#00DAE9"/>
<stop offset="1" stop-color="#00DFE7"/>
</linearGradient>
<clipPath id="clip0_529_1466">
<rect width="154" height="83.1783" fill="white"/>
</clipPath>
</defs>
</svg>
