<svg width="154" height="84" viewBox="0 0 154 84" fill="none" xmlns="http://www.w3.org/2000/svg">
<g clip-path="url(#clip0_830_5364)">
<mask id="mask0_830_5364" style="mask-type:luminance" maskUnits="userSpaceOnUse" x="-1" y="0" width="74" height="85">
<path d="M71.9492 45.1473C69.7126 42.8091 66.903 40.0827 63.6776 37.4487C61.1453 35.3785 58.3634 33.373 55.4152 31.6354C52.8921 30.1475 50.2304 28.8721 47.4948 27.9294C45.0456 27.0884 42.541 26.5246 40.018 26.349C38.1326 26.2104 36.2842 26.2843 34.4727 26.5801C32.6613 26.8758 30.8776 27.3841 29.1309 28.105C27.3841 28.8351 25.6743 29.7778 24.0108 30.9331C22.338 32.0976 20.7021 33.4746 19.1217 35.0642C19.0201 35.1659 18.8907 35.2214 18.7521 35.2214C18.6227 35.2214 18.484 35.1751 18.3824 35.0735L14.8889 31.6077C14.7872 31.5061 14.741 31.3767 14.741 31.238C14.741 31.0994 14.7965 30.97 14.8981 30.8684L14.9166 30.8499C16.802 28.9553 18.7428 27.3102 20.7483 25.9331C22.7631 24.5376 24.8426 23.4008 26.9775 22.5228C29.1216 21.6448 31.312 21.0256 33.567 20.6744C35.8128 20.3232 38.1141 20.2215 40.4616 20.3971C42.7166 20.5635 44.944 20.9609 47.1158 21.5616C49.4541 22.1993 51.7369 23.0681 53.9272 24.0847C56.4595 25.2584 58.8902 26.654 61.1822 28.1697C63.2155 29.5098 65.1471 30.9423 66.9308 32.3933V24.9072L36.4228 7.29193L5.93335 24.898V31.0162C7.53222 33.0587 9.86121 35.8406 12.6893 38.6502C14.7687 40.7204 17.107 42.7998 19.63 44.6297C21.728 46.1547 23.9461 47.4855 26.2196 48.4744C28.2344 49.3432 30.2953 49.9439 32.3656 50.1657H32.384C33.6594 50.2859 34.9071 50.2674 36.1271 50.101C37.347 49.9347 38.5392 49.6297 39.7037 49.1768C40.8775 48.724 42.0235 48.114 43.151 47.3562C44.2785 46.5983 45.3876 45.6833 46.4874 44.6205C46.5891 44.5188 46.7277 44.4726 46.8571 44.4726H46.8663C46.9957 44.4726 47.1251 44.5281 47.2175 44.6297L50.6463 48.151C50.6463 48.151 50.6833 48.1879 50.6925 48.2064C50.7572 48.2988 50.7942 48.4097 50.7942 48.5206C50.7942 48.65 50.7387 48.7887 50.6371 48.8811L50.6093 48.9088C49.223 50.2581 47.7813 51.4226 46.3025 52.3931C44.8053 53.382 43.2712 54.1675 41.7 54.7683C40.1196 55.369 38.5023 55.7756 36.8387 55.9975C35.1844 56.21 33.4838 56.2377 31.7556 56.0714C29.0569 55.8034 26.4322 55.064 23.9183 54.0104C21.0718 52.8182 18.3639 51.2101 15.8593 49.4171C12.8002 47.2175 10.0368 44.7314 7.68009 42.3377C4.04798 38.6409 1.37703 35.1751 0.083143 33.3822C0.0554169 33.336 0.0276908 33.2898 0.00920672 33.2343C-0.00927734 33.1696 -0.00927734 33.1234 -0.00927734 33.0772V23.2067C-0.00927734 22.9202 0.0369328 22.6429 0.110869 22.3749C0.194047 22.0977 0.314194 21.8389 0.462066 21.6078C0.619181 21.3675 0.804022 21.155 1.01659 20.9701C1.21991 20.7945 1.45096 20.6374 1.70974 20.5173L34.9533 1.32158C35.1844 1.19219 35.4339 1.09053 35.6742 1.02583C35.933 0.961138 36.1918 0.92417 36.4505 0.933412C36.7186 0.933412 36.9773 0.97038 37.2269 1.04432C37.4764 1.11825 37.7167 1.21992 37.9478 1.35855L71.3577 20.6467C71.5888 20.7761 71.7921 20.9332 71.9677 21.118C72.1525 21.3029 72.3096 21.5062 72.439 21.728C72.5592 21.9406 72.6608 22.1716 72.7255 22.4211C72.7902 22.643 72.8272 22.874 72.8364 23.1143C72.8364 23.1143 72.8457 23.1882 72.8457 23.216V44.8146C72.8457 44.9625 72.7902 45.0919 72.6978 45.1843C72.6054 45.2767 72.476 45.3414 72.3281 45.3414C72.2542 45.3414 72.1802 45.3229 72.1155 45.2952C72.0508 45.2674 71.9954 45.2212 71.9492 45.175M72.8549 54.9439V61.8569C72.8549 62.1434 72.8179 62.4207 72.7348 62.6887V62.7072C72.6516 62.9752 72.5314 63.2247 72.3836 63.4558C72.2265 63.6961 72.0416 63.9086 71.829 64.0935L71.8013 64.112C71.598 64.2783 71.3762 64.4262 71.1359 64.5463L37.9015 83.7328C37.6705 83.8714 37.4302 83.9638 37.1807 84.0285C36.9219 84.0932 36.6631 84.1302 36.4043 84.121C36.1363 84.121 35.8775 84.084 35.628 84.0101C35.3785 83.9361 35.1382 83.8345 34.9071 83.6958L1.49717 64.3892C1.26612 64.2598 1.0628 64.1027 0.8872 63.9179C0.702359 63.733 0.545245 63.5297 0.415856 63.3079C0.29571 63.0953 0.194047 62.8643 0.129353 62.624C0.0646589 62.4022 0.0276908 62.1711 0.0184488 61.9308C0.0184488 61.9308 0.00920672 61.8569 0.00920672 61.8292V42.883C0.00920672 42.7351 0.0646589 42.6057 0.157079 42.5133C0.2495 42.4209 0.378888 42.3562 0.526761 42.3562C0.600697 42.3562 0.674633 42.3747 0.739327 42.4024C0.804022 42.4301 0.859474 42.4671 0.905684 42.5226C3.14226 44.8608 5.95183 47.5872 9.1773 50.2212C11.7096 52.2914 14.4915 54.2969 17.4397 56.0344C19.972 57.5224 22.6245 58.7978 25.3601 59.7405C27.8092 60.5815 30.3138 61.136 32.8461 61.3209C34.7315 61.4687 36.5799 61.3856 38.3914 61.0991C40.2028 60.8033 41.9865 60.295 43.724 59.5741C45.4708 58.844 47.1805 57.9013 48.8441 56.7461C50.5169 55.5816 52.1528 54.2045 53.7424 52.6149C53.844 52.5132 53.9734 52.4577 54.1121 52.4577C54.2415 52.4577 54.3801 52.504 54.4817 52.6056L57.9752 56.0714C58.0769 56.173 58.1324 56.3117 58.1324 56.4411C58.1324 56.5705 58.0861 56.7091 57.9752 56.8107C56.0899 58.7146 54.1398 60.3597 52.125 61.7552C50.1103 63.1508 48.0308 64.2876 45.8959 65.1656C43.761 66.0435 41.5614 66.6628 39.3063 67.014C37.0605 67.3652 34.7592 67.4576 32.4118 67.2912C30.1567 67.1249 27.9294 66.7275 25.7575 66.1267C23.41 65.489 21.1365 64.6203 18.9461 63.6036C16.5709 62.4946 14.2881 61.2007 12.1163 59.8052C9.92591 58.3819 7.85569 56.857 5.93335 55.3043V60.1286L36.4228 77.7347L66.9123 60.1286V56.6444C65.3134 54.6019 62.9844 51.82 60.1656 49.0105C58.0861 46.9403 55.7479 44.8608 53.2341 43.0401C51.1361 41.5244 48.9273 40.1936 46.6445 39.2047C44.6297 38.3359 42.5688 37.7444 40.5078 37.5319C39.2139 37.4117 37.9662 37.421 36.737 37.5873C35.5171 37.7537 34.3249 38.0587 33.1511 38.5115C31.9866 38.9644 30.8406 39.5744 29.7131 40.3322C28.5856 41.09 27.4765 42.005 26.3952 43.0678C26.2935 43.1695 26.1549 43.2157 26.0255 43.2157H26.0163C25.8869 43.2157 25.7575 43.1603 25.6558 43.0586L22.1901 39.5281C22.0884 39.4265 22.0422 39.2879 22.0422 39.1585C22.0422 39.0198 22.0977 38.8904 22.1901 38.798L22.2086 38.7795C23.6041 37.4117 25.0459 36.238 26.5246 35.2583C28.0218 34.2694 29.556 33.4746 31.1364 32.8739C32.7168 32.2731 34.3434 31.8665 36.0069 31.6539C37.6705 31.4414 39.3618 31.4321 41.09 31.617H41.1085C44.9162 32.0051 48.5853 33.3175 51.9956 35.1382C55.3967 36.9589 58.5482 39.2971 61.3393 41.737C64.1212 44.1676 66.5334 46.7 68.4742 48.9181C70.415 51.1454 71.8753 53.0492 72.744 54.2322C72.744 54.2322 72.7995 54.3246 72.8179 54.3801V54.4263C72.8179 54.4263 72.8457 54.5002 72.8457 54.5372V54.8976L72.8549 54.9439Z" fill="white"/>
</mask>
<g mask="url(#mask0_830_5364)">
<path d="M72.8547 0.924316H-0.000244141V84.1119H72.8547V0.924316Z" fill="url(#paint0_linear_830_5364)"/>
</g>
<path d="M120.83 62.9105C119.305 62.9105 118.095 62.4484 117.198 61.5334L118.187 60.1286C118.926 60.9142 119.832 61.3024 120.913 61.3024C121.385 61.3024 121.754 61.2099 122.013 61.0251C122.272 60.8403 122.401 60.6092 122.401 60.3412C122.401 60.1101 122.281 59.9068 122.032 59.7589C121.791 59.6018 121.486 59.4909 121.117 59.417C120.756 59.3523 120.359 59.2506 119.924 59.1212C119.499 58.9919 119.102 58.844 118.732 58.6776C118.372 58.5113 118.067 58.2525 117.817 57.8921C117.577 57.5409 117.448 57.1065 117.448 56.5889C117.448 55.8403 117.743 55.2119 118.335 54.7036C118.926 54.1952 119.712 53.9457 120.701 53.9457C122.059 53.9457 123.178 54.3524 124.046 55.1564L123.03 56.515C122.355 55.8773 121.523 55.5631 120.534 55.5631C120.146 55.5631 119.851 55.637 119.638 55.7941C119.425 55.9512 119.315 56.1638 119.315 56.4318C119.315 56.6444 119.435 56.82 119.684 56.9586C119.924 57.0972 120.229 57.2081 120.599 57.2728C120.96 57.3468 121.357 57.4484 121.782 57.5778C122.207 57.7165 122.605 57.8643 122.965 58.0307C123.326 58.197 123.631 58.4651 123.88 58.8255C124.12 59.1859 124.25 59.6203 124.25 60.1194C124.25 60.9512 123.954 61.6258 123.372 62.1342C122.78 62.6425 121.93 62.9012 120.821 62.9012M113.427 61.1453C113.769 61.1453 114.037 61.0528 114.241 60.8772C114.444 60.7016 114.536 60.4521 114.536 60.1379C114.536 59.8514 114.435 59.6111 114.241 59.417C114.047 59.2229 113.769 59.1212 113.427 59.1212H111.071V61.136H113.427V61.1453ZM113.363 57.5409C113.668 57.5409 113.917 57.4577 114.093 57.2821C114.278 57.1065 114.361 56.8847 114.361 56.6074C114.361 56.3302 114.268 56.0991 114.084 55.9235C113.899 55.7479 113.658 55.6555 113.353 55.6555H111.061V57.5409H113.353H113.363ZM113.899 62.7441H109.241V54.0659H113.76C114.536 54.0659 115.146 54.2784 115.581 54.7128C116.015 55.1379 116.228 55.6647 116.228 56.2839C116.228 56.8107 116.089 57.2544 115.803 57.6148C115.516 57.966 115.165 58.1878 114.749 58.2802C115.211 58.3542 115.599 58.5852 115.923 58.9919C116.237 59.3985 116.394 59.8699 116.394 60.4151C116.394 61.0898 116.172 61.6536 115.738 62.0972C115.303 62.5408 114.684 62.7626 113.899 62.7626V62.7441ZM105.331 59.648L103.991 55.9143L102.651 59.648H105.331ZM108.446 62.7441H106.366L105.84 61.2746H102.161L101.616 62.7441H99.5273L102.845 54.0659H105.137L108.446 62.7441ZM99.1669 62.7441H93.7141V54.0659H95.544V61.1175H99.1761V62.7441H99.1669ZM150.7 46.894H148.871V43.3451L145.562 38.2158H147.651L149.786 41.7L151.893 38.2158H153.981L150.7 43.3451V46.894ZM142.817 46.894H140.978V39.8424H138.473V38.2158H145.322V39.8424H142.826V46.894H142.817ZM137.3 46.894H135.47V38.2158H137.3V46.894ZM130.941 42.1806C131.32 42.1806 131.625 42.0697 131.865 41.8571C132.105 41.6446 132.226 41.3581 132.226 41.0069C132.226 40.6557 132.105 40.3692 131.865 40.1566C131.625 39.944 131.32 39.8331 130.941 39.8331H129.028V42.1806H130.941ZM134.148 46.894H132.05L130.368 43.8072H129.028V46.894H127.198V38.2158H131.209C132.096 38.2158 132.789 38.4745 133.316 39.0013C133.834 39.5189 134.093 40.1936 134.093 41.0161C134.093 41.7277 133.908 42.3007 133.547 42.7444C133.187 43.188 132.743 43.4652 132.216 43.5946L134.148 46.9033V46.894ZM124.527 46.0715C123.871 46.7184 122.91 47.0512 121.634 47.0512C120.359 47.0512 119.407 46.7277 118.742 46.0715C118.085 45.4153 117.762 44.5373 117.762 43.4375V38.2158H119.61V43.3728C119.61 44.0013 119.786 44.4911 120.137 44.8608C120.488 45.2305 120.987 45.4153 121.625 45.4153C122.263 45.4153 122.762 45.2305 123.113 44.8608C123.464 44.4911 123.631 43.992 123.631 43.3728V38.2158H125.497V43.419C125.497 44.5373 125.174 45.4246 124.509 46.0715H124.527ZM113.085 47.0512C111.782 47.0512 110.692 46.6353 109.823 45.7942C108.954 44.9532 108.52 43.8811 108.52 42.5595C108.52 41.2379 108.954 40.1658 109.823 39.3248C110.692 38.4838 111.782 38.0679 113.085 38.0679C114.694 38.0679 115.886 38.7795 116.671 40.1936L115.1 40.9791C114.915 40.6187 114.638 40.3137 114.268 40.0734C113.908 39.8331 113.511 39.713 113.076 39.713C112.3 39.713 111.653 39.981 111.145 40.517C110.636 41.0531 110.387 41.737 110.387 42.5595C110.387 43.3821 110.636 44.066 111.145 44.602C111.653 45.1381 112.291 45.4061 113.076 45.4061C113.501 45.4061 113.899 45.2859 114.268 45.0549C114.629 44.8238 114.906 44.5188 115.1 44.1399L116.671 44.907C115.858 46.3303 114.657 47.0419 113.085 47.0419V47.0512ZM107.503 46.894H101.431V38.2158H107.503V39.8424H103.261V41.6815H107.42V43.3081H103.261V45.2767H107.503V46.9033V46.894ZM96.764 47.0512C95.239 47.0512 94.0283 46.589 93.1318 45.6741L94.1207 44.2693C94.8601 45.0549 95.7658 45.443 96.8471 45.443C97.3185 45.443 97.6882 45.3506 97.9469 45.1658C98.2057 44.9809 98.3351 44.7499 98.3351 44.4819C98.3351 44.2508 98.215 44.0567 97.9654 43.8996C97.7251 43.7425 97.4201 43.6316 97.0505 43.5577C96.69 43.4837 96.2926 43.3913 95.8582 43.2619C95.4331 43.1325 95.0357 42.9847 94.666 42.8183C94.3056 42.6519 94.0006 42.3932 93.7511 42.042C93.5015 41.6908 93.3814 41.2564 93.3814 40.7388C93.3814 39.9902 93.6771 39.3618 94.2686 38.8627C94.8601 38.3636 95.6457 38.1049 96.6346 38.1049C97.9931 38.1049 99.1114 38.5115 99.9802 39.3156L98.9636 40.6649C98.2889 40.0272 97.4571 39.713 96.4682 39.713C96.08 39.713 95.7843 39.7869 95.5717 39.944C95.3592 40.1011 95.2483 40.3137 95.2483 40.5817C95.2483 40.7943 95.3684 40.9699 95.6179 41.1085C95.8675 41.2472 96.1632 41.3581 96.5329 41.432C96.8933 41.5059 97.2908 41.6076 97.7159 41.737C98.141 41.8756 98.5384 42.0235 98.8989 42.1898C99.2593 42.3562 99.5643 42.6242 99.8138 42.9847C100.054 43.3451 100.184 43.7795 100.184 44.2785C100.184 45.1103 99.8878 45.785 99.3055 46.2933C98.714 46.8016 97.8638 47.0604 96.7547 47.0604L96.764 47.0512ZM132.198 31.044H131.126V27.3749L127.743 22.3657H128.991L131.653 26.4044L134.314 22.3657H135.562L132.189 27.3749V31.044H132.198ZM126.625 31.044H125.599L120.599 24.1217V31.044H119.527V22.3657H120.618L125.562 29.1493V22.3657H126.634V31.044H126.625ZM117.512 31.044H116.486L111.477 24.1217V31.044H110.405V22.3657H111.496L116.44 29.1493V22.3657H117.503V31.044H117.512ZM107.512 30.2584C106.912 30.8868 106.052 31.2011 104.906 31.2011C103.76 31.2011 102.901 30.8868 102.3 30.2584C101.699 29.6299 101.403 28.7704 101.403 27.6706V22.3564H102.466V27.6429C102.466 28.4469 102.679 29.0846 103.095 29.5467C103.511 30.0088 104.111 30.2399 104.897 30.2399C105.683 30.2399 106.274 30.0088 106.699 29.5467C107.124 29.0846 107.328 28.4562 107.328 27.6429V22.3564H108.4V27.6521C108.4 28.7519 108.104 29.6207 107.503 30.2491L107.512 30.2584ZM96.6438 31.2011C95.2575 31.2011 94.1577 30.739 93.3536 29.824L93.9821 29.0015C94.7122 29.824 95.6087 30.2399 96.6808 30.2399C97.3739 30.2399 97.8822 30.092 98.215 29.787C98.5384 29.4913 98.7048 29.1401 98.7048 28.7427C98.7048 28.4377 98.6124 28.1789 98.4183 27.9756C98.2334 27.763 97.9839 27.6059 97.6882 27.4858C97.3924 27.3656 97.0597 27.264 96.6993 27.1715C96.3388 27.0791 95.9691 26.9682 95.6087 26.8481C95.2483 26.7279 94.9248 26.5893 94.6198 26.4229C94.3241 26.2566 94.0838 26.0255 93.8897 25.7205C93.7048 25.4156 93.6032 25.0551 93.6032 24.6392C93.6032 23.9276 93.8804 23.3453 94.435 22.9017C94.9895 22.4581 95.6919 22.2271 96.5421 22.2271C97.8175 22.2271 98.8342 22.6337 99.592 23.4378L98.9451 24.2326C98.3166 23.5394 97.4941 23.1882 96.459 23.1882C95.9414 23.1882 95.5255 23.3176 95.1928 23.5764C94.8601 23.8352 94.6937 24.1679 94.6937 24.5745C94.6937 24.8795 94.8231 25.129 95.0727 25.3324C95.3222 25.5357 95.6364 25.6836 96.0154 25.776C96.385 25.8684 96.7917 25.9886 97.2353 26.1364C97.6789 26.2751 98.0856 26.4322 98.4552 26.5893C98.8249 26.7464 99.1392 27.0052 99.3979 27.3656C99.6475 27.7168 99.7769 28.1512 99.7769 28.6503C99.7769 29.3619 99.5181 29.9626 99.0005 30.4617C98.483 30.9515 97.6882 31.2011 96.6161 31.2011H96.6438Z" fill="white"/>
<path fill-rule="evenodd" clip-rule="evenodd" d="M83.0028 30.6927C83.5111 30.6927 83.9362 31.1086 83.9362 31.6262V53.4097C83.9362 53.918 83.5203 54.3431 83.0028 54.3431C82.4945 54.3431 82.0693 53.9272 82.0693 53.4097V31.6262C82.0693 31.1179 82.4852 30.6927 83.0028 30.6927Z" fill="white"/>
</g>
<defs>
<linearGradient id="paint0_linear_830_5364" x1="15.0828" y1="8.44733" x2="57.7625" y2="76.5796" gradientUnits="userSpaceOnUse">
<stop stop-color="#01ABFF"/>
<stop offset="0.12" stop-color="#00B6F9"/>
<stop offset="0.44" stop-color="#00CCEF"/>
<stop offset="0.74" stop-color="#00DAE9"/>
<stop offset="1" stop-color="#00DFE7"/>
</linearGradient>
<clipPath id="clip0_830_5364">
<rect width="154" height="83.1783" fill="white"/>
</clipPath>
</defs>
</svg>
