<svg width="233" height="31" viewBox="0 0 233 31" fill="none" xmlns="http://www.w3.org/2000/svg">
<g clip-path="url(#clip0_830_6191)">
<path d="M69.1902 21.54V17.29H72.7502L69.1902 8.30997V3.41997H71.9502L82.1302 27.21H76.5402L74.3702 21.55H69.1902V21.54ZM83.7602 3.40997H90.1102L99.8802 20.5L99.6002 3.40997H104.71V27.2H98.9102L88.6902 9.20997L88.9002 27.2H83.7502V3.41997L83.7602 3.40997ZM118.18 17.29V13.08H130.02V27.2H119.25C117.28 27.2 115.76 27.06 114.66 26.72C113.66 26.37 112.66 25.86 111.72 25.13C110.48 24.16 109.58 22.89 108.99 21.33C108.37 19.74 108.06 17.88 108.06 15.74C108.06 11.53 108.99 8.41997 110.82 6.41997C112.65 4.41997 115.45 3.41997 119.24 3.41997H130.01V7.48997H119.24C117.27 7.48997 115.86 8.10997 114.96 9.41997C114.1 10.7 113.61 12.7 113.61 15.5C113.61 18.12 114.06 19.99 114.92 21.13C115.82 22.34 117.27 22.93 119.24 22.93H124.87V17.3H118.17L118.18 17.29ZM58.6602 3.41997H60.7002L58.6602 6.38997V3.41997ZM69.1902 3.41997H66.6702L58.6602 22.37V27.2H61.9102L64.0202 21.54H69.2002V17.29H65.6802L69.1302 8.10997L69.2002 8.31997V3.41997H69.1902ZM37.4602 3.41997H43.0902L48.9302 12.5L54.9002 3.41997H58.6602V6.38997L51.5102 16.71V27.21H46.5002V16.71L37.4502 3.41997H37.4602ZM58.6602 22.37L56.6202 27.2H58.6602V22.37Z" fill="#4D4D4D"/>
<path d="M144.39 3.41998H151.71L157.79 21.65L163.83 3.41998H171.18V27.21H166.24L166.65 8.69998L160.54 27.21H155.26L148.98 8.45998L149.46 27.21H144.38V3.41998H144.39ZM181.37 27.21H176.12V3.41998H181.37V27.21ZM186.31 3.41998H192.59L202.36 20.51L202.12 3.41998H207.27V27.21H201.43L191.18 9.21998L191.42 27.21H186.31V3.41998ZM220.73 17.3V13.09H232.57V27.21H221.8C219.8 27.21 218.28 27.07 217.24 26.73C216.17 26.38 215.17 25.87 214.23 25.14C213.02 24.17 212.09 22.9 211.5 21.34C210.85 19.75 210.57 17.89 210.57 15.75C210.57 11.54 211.5 8.42998 213.33 6.42998C215.16 4.42998 217.99 3.42998 221.79 3.42998H232.56V7.49998H221.79C219.86 7.49998 218.37 8.11998 217.51 9.42998C216.61 10.71 216.16 12.71 216.16 15.51C216.16 18.13 216.61 20 217.51 21.14C218.37 22.35 219.79 22.94 221.79 22.94H227.42V17.31H220.72L220.73 17.3Z" fill="#4D4D4D"/>
<path d="M27.14 0H0V30.55H27.14V0Z" fill="#4D4D4D"/>
<path d="M9.48992 22.23L7.48992 19.33V27.21H3.41992V6.34998L9.48992 15.05V22.23Z" fill="white"/>
<path d="M19.6796 19.33L17.6396 22.27L17.6796 15.05L23.7496 6.32001V27.21H19.6796V19.33Z" fill="white"/>
<path d="M3.41992 3.41998H8.17992L13.5999 11.19L19.0199 3.44998H23.7899L15.9899 14.57V27.21H11.2199V14.57L3.41992 3.41998Z" fill="white"/>
</g>
<defs>
<clipPath id="clip0_830_6191">
<rect width="232.57" height="30.55" fill="white"/>
</clipPath>
</defs>
</svg>
