<svg width="135" height="79" viewBox="0 0 135 79" fill="none" xmlns="http://www.w3.org/2000/svg">
<g clip-path="url(#clip0_830_6131)">
<path fill-rule="evenodd" clip-rule="evenodd" d="M14.5596 63.17L19.5696 78.04H22.1596H24.7496L29.7496 63.17L24.7296 63.16L22.1596 73.18L19.5896 63.16L14.5596 63.17Z" fill="#4D4D4D"/>
<path fill-rule="evenodd" clip-rule="evenodd" d="M12.98 74.48H4.76V71.79H12.98V68.89H4.76V66.62H12.98V63.16H0V77.94H12.98V74.48Z" fill="#4D4D4D"/>
<path fill-rule="evenodd" clip-rule="evenodd" d="M44.3198 74.48H36.0998V71.79H44.3198V68.89H36.0998V66.62H44.3198V63.16H31.3398V77.94H44.3198V74.48Z" fill="#4D4D4D"/>
<path fill-rule="evenodd" clip-rule="evenodd" d="M103.97 74.48H95.76V71.79H103.97V68.89H95.76V66.62H103.97V63.16H91V77.94H103.97V74.48Z" fill="#4D4D4D"/>
<path fill-rule="evenodd" clip-rule="evenodd" d="M118.54 74.48H110.32V71.79H118.54V68.89H110.32V66.62H118.54V63.16H105.56V77.94H118.54V74.48Z" fill="#4D4D4D"/>
<path fill-rule="evenodd" clip-rule="evenodd" d="M124.88 63.16H120.12V77.94H124.88V70.22L129.34 77.94H134.11V63.16H129.34V70.76L124.88 63.16Z" fill="#4D4D4D"/>
<path fill-rule="evenodd" clip-rule="evenodd" d="M50.5304 72.74V77.94H45.9004V63.17H57.4204C58.4104 63.17 59.2204 63.98 59.2204 64.97V70.04C59.2204 70.63 58.7404 71.11 58.1504 71.11H58.1804C58.7504 71.11 59.2204 71.58 59.2204 72.15V77.86C59.2204 77.86 59.1804 77.94 59.1404 77.94H54.7804C54.7804 77.94 54.7004 77.9 54.7004 77.86V74.05C54.7004 73.33 54.1104 72.74 53.3904 72.74H50.5404H50.5304ZM50.5304 66.75H54.0204C54.3704 66.75 54.6604 67.04 54.6604 67.39V68.88C54.6604 69.23 54.3704 69.52 54.0204 69.52H50.5304V66.75Z" fill="#4D4D4D"/>
<path fill-rule="evenodd" clip-rule="evenodd" d="M62.5998 63.16H72.7198C73.7098 63.16 74.5198 63.97 74.5198 64.96V67.7H69.9898V67.4C69.9898 67 69.6598 66.68 69.2698 66.68H66.0198C65.6198 66.68 65.2998 67.01 65.2998 67.4V73.7C65.2998 74.1 65.6298 74.42 66.0198 74.42H69.2698C69.6698 74.42 69.9898 74.09 69.9898 73.7V72.45H67.3098V69.46H74.5198V76.15C74.5198 77.14 73.7098 77.95 72.7198 77.95H62.5998C61.6098 77.95 60.7998 77.14 60.7998 76.15V64.97C60.7998 63.98 61.6098 63.17 62.5998 63.17V63.16Z" fill="#4D4D4D"/>
<path fill-rule="evenodd" clip-rule="evenodd" d="M80.7296 72.74V77.94H76.0996V63.17H87.6196C88.6096 63.17 89.4196 63.98 89.4196 64.97V70.04C89.4196 70.63 88.9396 71.11 88.3496 71.11H88.3796C88.9496 71.11 89.4196 71.58 89.4196 72.15V77.86C89.4196 77.86 89.3796 77.94 89.3396 77.94H84.9796C84.9796 77.94 84.8996 77.9 84.8996 77.86V74.05C84.8996 73.33 84.3096 72.74 83.5896 72.74H80.7396H80.7296ZM80.7296 66.75H84.2196C84.5696 66.75 84.8596 67.04 84.8596 67.39V68.88C84.8596 69.23 84.5696 69.52 84.2196 69.52H80.7296V66.75Z" fill="#4D4D4D"/>
<path d="M67.3905 0.330017H66.7305V9.31002H67.3905V0.330017Z" fill="#4D4D4D"/>
<path d="M67.3905 53.98H66.7305V56.21H67.3905V53.98Z" fill="#4D4D4D"/>
<path d="M51.6502 27.89H39.1602V28.55H51.6502V27.89Z" fill="#4D4D4D"/>
<path d="M94.9504 27.89H82.4404V28.55H94.9504V27.89Z" fill="#4D4D4D"/>
<path d="M66.0807 11.32C61.6007 11.1 58.4407 9.22 56.5507 7.63C54.3707 5.8 53.3507 3.95 53.3407 3.94L52.7607 4.25C52.8007 4.33 53.8407 6.21 56.1007 8.11C58.0707 9.77 61.3607 11.74 66.0407 11.97L66.0707 11.31L66.0807 11.32Z" fill="#4D4D4D"/>
<path d="M80.7705 3.92999C80.7705 3.92999 79.6405 5.81999 77.3705 7.65999C75.4505 9.21999 72.3305 11.04 68.0205 11.31L68.1505 11.96C72.5905 11.66 75.8205 9.76999 77.8005 8.15999C80.1505 6.24999 81.2805 4.34999 81.3305 4.26999L80.7605 3.93999L80.7705 3.92999Z" fill="#4D4D4D"/>
<path d="M61.9109 20.8C62.7109 20.87 63.5409 20.92 64.3809 20.94L64.6109 20.29C63.2409 20.26 61.9209 20.16 60.6709 20.02L61.9209 20.81L61.9109 20.8Z" fill="#4D4D4D"/>
<path d="M73.9006 19.79C72.6006 19.94 71.1605 20.06 69.5605 20.15L69.7105 20.8C70.7305 20.74 71.6805 20.67 72.5705 20.59L73.8905 19.79H73.9006Z" fill="#4D4D4D"/>
<path d="M57.8708 19.59C54.6508 19 51.9108 18.12 49.8408 17.32C45.6808 15.7 43.2108 13.99 43.1808 13.98L42.8008 14.52C42.9008 14.59 45.3408 16.28 49.5708 17.93C51.7908 18.8 54.7508 19.74 58.2608 20.34L57.8608 19.6L57.8708 19.59Z" fill="#4D4D4D"/>
<path d="M90.971 13.95C90.141 14.36 89.381 14.75 88.641 15.13C84.841 17.07 81.941 18.56 76.411 19.45L76.041 20.17C81.961 19.28 84.971 17.74 88.941 15.71C89.681 15.33 90.441 14.94 91.261 14.54L90.971 13.95Z" fill="#4D4D4D"/>
<path d="M58.0505 36.26L58.5905 35.51C58.2905 33.85 58.0605 32.12 57.9505 30.32L57.2705 30.18C57.3905 32.3 57.6705 34.33 58.0505 36.26Z" fill="#4D4D4D"/>
<path d="M57.2207 26.38L57.9007 26.14C57.9707 24.26 58.1707 22.47 58.4507 20.77L57.9407 19.84C57.5607 21.87 57.3007 24.06 57.2207 26.38Z" fill="#4D4D4D"/>
<path d="M66.0307 44.47C64.1307 44.56 62.4607 44.95 61.0107 45.48L62.1307 45.8C63.3307 45.44 64.6807 45.19 66.1707 45.12L66.0307 44.47Z" fill="#4D4D4D"/>
<path d="M68.091 45.14C69.581 45.24 70.9311 45.52 72.1311 45.92L72.9311 45.51C71.5411 45 69.9611 44.62 68.1811 44.5L68.0811 45.15L68.091 45.14Z" fill="#4D4D4D"/>
<path d="M87.0103 8.27C81.6803 2.94 74.5903 0 67.0503 0C59.5103 0 52.4203 2.94 47.0903 8.27C41.7603 13.6 38.8203 20.69 38.8203 28.23C38.8203 35.77 41.7603 42.86 47.0903 48.19C52.4203 53.52 59.5103 56.46 67.0503 56.46C74.5903 56.46 81.6803 53.52 87.0103 48.19C92.3403 42.86 95.2803 35.77 95.2803 28.23C95.2803 20.69 92.3403 13.6 87.0103 8.27ZM81.1803 51.89L80.0803 50.53L79.6703 50.86L80.7203 52.16C76.6903 54.47 72.0203 55.8 67.0503 55.8C62.0803 55.8 57.4603 54.49 53.4403 52.2L54.2703 51.13L53.8503 50.81L53.0003 51.91L53.2003 52.06C45.0003 47.28 39.4803 38.39 39.4803 28.23C39.4803 13.03 51.8503 0.66 67.0503 0.66C82.2503 0.66 94.6203 13.03 94.6203 28.23C94.6203 38.27 89.2303 47.07 81.1803 51.89Z" fill="#4D4D4D"/>
<path d="M58.3105 37.51C58.9805 40.47 59.8605 43.13 60.7605 45.39L61.5905 45.64C60.6105 43.25 59.6105 40.32 58.8905 37.01L58.3105 37.51Z" fill="#4D4D4D"/>
<path d="M68.1301 53.98C67.6301 54.72 67.2402 55.19 67.0302 55.39C66.8202 55.18 66.4502 54.69 65.9602 53.98H65.1602C66.5702 56.12 66.8802 56.12 67.0102 56.12C67.1402 56.12 67.5202 56.12 68.9302 53.98H68.1202H68.1301Z" fill="#4D4D4D"/>
<path d="M48.1806 29.6H48.8406C48.8006 29.14 48.7806 28.68 48.7706 28.22C48.5406 18.33 54.3306 10.89 57.8006 7.33002C61.5306 3.51002 65.4406 1.23002 67.0606 1.23002C68.4906 1.23002 72.6706 3.51002 76.7906 7.80002C80.1506 11.3 85.7406 18.6 85.3606 28.22C85.3406 28.69 85.3106 29.15 85.2606 29.61H85.9206C85.9606 29.16 85.9906 28.71 86.0106 28.25C86.4006 18.38 80.6906 10.92 77.2606 7.35002C73.2406 3.17002 68.8406 0.580017 67.0606 0.580017C65.2806 0.580017 61.3306 2.79002 57.3306 6.88002C53.7906 10.51 47.8706 18.11 48.1106 28.24C48.1206 28.7 48.1506 29.16 48.1806 29.61V29.6Z" fill="#4D4D4D"/>
<path d="M71.4311 53.22C69.4611 54.7 67.8611 55.47 67.0511 55.47C66.2411 55.47 64.6511 54.66 62.6411 53.12L62.5811 53.88C64.5011 55.3 66.1411 56.12 67.0511 56.12C68.0511 56.12 69.7411 55.31 71.7311 53.82L71.4311 53.21V53.22Z" fill="#4D4D4D"/>
<path d="M75.9904 18.78C74.0404 9.10001 69.3304 2.58001 67.8004 1.06001C67.3904 0.650007 67.1904 0.570007 67.0204 0.570007C66.8504 0.570007 66.7004 0.670007 66.4404 0.920007C65.7104 1.64001 63.3304 4.63001 61.0704 9.76001C60.0504 12.08 58.9304 15.16 58.1504 18.8L58.7404 19.27C59.5804 15.12 60.9104 11.64 62.1104 9.08001C64.2104 4.59001 66.4504 1.76001 67.0404 1.27001C67.6404 1.71001 69.9104 4.43001 72.0304 8.95001C73.2204 11.48 74.5404 14.94 75.3604 19.1L75.9904 18.78Z" fill="#4D4D4D"/>
<path d="M76.3803 37.13C78.5903 37.48 80.3903 37.93 81.9903 38.47L82.3103 37.88C80.5703 37.29 78.6004 36.79 76.1104 36.42L76.3704 37.13H76.3803Z" fill="#4D4D4D"/>
<path d="M64.411 35.65C63.441 35.68 62.491 35.74 61.571 35.82L60.291 36.62C61.691 36.44 63.171 36.33 64.711 36.3L64.411 35.65Z" fill="#4D4D4D"/>
<path d="M58.3206 36.25C55.8906 36.66 53.7306 37.24 51.8906 37.84L52.2306 38.42C53.8706 37.89 55.7706 37.38 57.8806 37L58.3306 36.26L58.3206 36.25Z" fill="#4D4D4D"/>
<path d="M89.141 40.98L88.751 41.52C89.451 41.88 90.181 42.25 90.971 42.64L91.261 42.05C90.511 41.68 89.821 41.32 89.141 40.98Z" fill="#4D4D4D"/>
<path d="M74.0104 36.71L72.7204 36.02C71.7904 35.93 70.8003 35.86 69.7403 35.79L69.6104 36.44C71.3804 36.54 72.9604 36.68 74.3704 36.85L74.0004 36.71H74.0104Z" fill="#4D4D4D"/>
<path d="M44.8405 40.85C43.5705 41.54 42.8605 42.03 42.8105 42.07L43.1905 42.61C43.1905 42.61 43.9005 42.12 45.1705 41.43L44.8405 40.86V40.85Z" fill="#4D4D4D"/>
<path d="M76.021 35.94C76.371 34.09 76.631 32.14 76.761 30.1L76.071 30.33C75.961 31.96 75.761 33.55 75.501 35.06C75.641 35.29 75.831 35.61 76.021 35.94Z" fill="#4D4D4D"/>
<path d="M76.8307 26.24C76.7707 24.05 76.5507 21.97 76.2207 20.01L75.6807 20.93C75.9307 22.53 76.0907 24.22 76.1507 25.99L76.8307 26.25V26.24Z" fill="#4D4D4D"/>
<path d="M75.1306 36.94C74.4006 40.36 73.3806 43.38 72.3906 45.81L73.2606 45.43C74.1506 43.15 75.0406 40.45 75.7106 37.43L75.1306 36.95V36.94Z" fill="#4D4D4D"/>
<path d="M67.0507 9.91998L64.7107 22.58L58.8207 19.79L61.5907 25.73L52.7607 28.22L61.5907 30.45L58.8907 36.32L64.6107 33.66L67.0507 46.33L69.5607 33.6L75.2207 36.42L72.3907 30.52L81.3407 28.22L72.5607 25.91L75.5007 20.01L69.3507 22.77L67.0507 9.91998Z" fill="#4D4D4D"/>
<path fill-rule="evenodd" clip-rule="evenodd" d="M49.9802 36.42L46.1602 41.1L46.6902 41.94L47.2202 42.79L53.0902 41.37L52.0602 39.73L48.2702 40.95L51.0102 38.06L49.9802 36.42Z" fill="#4D4D4D"/>
<path fill-rule="evenodd" clip-rule="evenodd" d="M45.1904 36.15L44.7804 32.91L45.8504 32.77L46.2504 36.01L47.3904 35.87L46.9904 32.63L47.8904 32.52L48.2904 35.76L49.6504 35.59L49.0204 30.47L43.1904 31.2L43.8304 36.32L45.1904 36.15Z" fill="#4D4D4D"/>
<path fill-rule="evenodd" clip-rule="evenodd" d="M54.87 48.78L52.37 46.67L53.06 45.85L55.55 47.96L56.3 47.08L53.8 44.97L54.38 44.28L56.88 46.38L57.76 45.33L53.82 42.01L50.04 46.5L53.98 49.83L54.87 48.78Z" fill="#4D4D4D"/>
<path fill-rule="evenodd" clip-rule="evenodd" d="M83.38 45.3L80.79 47.3L80.14 46.45L82.72 44.45L82.01 43.54L79.43 45.54L78.88 44.82L81.46 42.82L80.62 41.74L76.54 44.9L80.14 49.54L84.22 46.38L83.38 45.3Z" fill="#4D4D4D"/>
<path fill-rule="evenodd" clip-rule="evenodd" d="M87.7198 38.75L86.1998 41.64L85.2498 41.14L86.7698 38.25L85.7498 37.71L84.2299 40.61L83.4298 40.19L84.9498 37.3L83.7299 36.66L81.3398 41.23L86.5398 43.95L88.9298 39.38L87.7198 38.75Z" fill="#4D4D4D"/>
<path fill-rule="evenodd" clip-rule="evenodd" d="M84.3803 33.94L84.0703 35.81L89.8703 36.76L90.1803 34.89L87.1503 34.39L90.4703 33.14L90.7703 31.27L84.9803 30.32L84.6703 32.19L87.6503 32.67L84.3803 33.94Z" fill="#4D4D4D"/>
<path fill-rule="evenodd" clip-rule="evenodd" d="M59.1303 49.82L58.5703 51.82L56.7803 51.32L57.5203 48.69L57.5503 48.59L58.3803 45.63L62.8203 46.87C63.2003 46.98 63.4303 47.38 63.3203 47.76L62.7703 49.72C62.7103 49.95 62.4703 50.08 62.2403 50.02H62.2503C62.4703 50.09 62.6003 50.32 62.5403 50.54L61.9203 52.74C61.9203 52.74 61.9003 52.77 61.8803 52.76L60.2003 52.29C60.2003 52.29 60.1703 52.27 60.1803 52.25L60.3203 51.76L60.4503 51.31L60.6003 50.78C60.6803 50.5 60.5103 50.21 60.2403 50.13L59.5803 49.95L59.2603 49.86L59.1403 49.83L59.1303 49.82ZM59.7803 47.51L61.1303 47.89C61.2703 47.93 61.3503 48.07 61.3103 48.21L61.1503 48.79C61.1103 48.93 60.9703 49.01 60.8303 48.97L59.4803 48.59L59.7803 47.52V47.51Z" fill="#4D4D4D"/>
<path fill-rule="evenodd" clip-rule="evenodd" d="M73.6499 50.19L74.3099 52.16L72.5499 52.75L71.6799 50.16L71.6499 50.06L70.6699 47.14L75.0399 45.67C75.4099 45.54 75.8199 45.75 75.9499 46.12L76.5999 48.05C76.6799 48.27 76.5499 48.52 76.3299 48.59H76.3399C76.5599 48.51 76.7899 48.63 76.8699 48.85L77.5999 51.02C77.5999 51.02 77.5999 51.05 77.5799 51.06L75.9299 51.62C75.9299 51.62 75.8999 51.62 75.8899 51.6L75.7299 51.12L75.5799 50.68L75.4099 50.16C75.3199 49.89 75.0199 49.74 74.7499 49.83L74.0999 50.05L73.7899 50.15L73.6699 50.19H73.6499ZM72.8899 47.92L74.2099 47.48C74.3399 47.44 74.4899 47.51 74.5299 47.64L74.7199 48.21C74.7599 48.34 74.6899 48.49 74.5599 48.53L73.2399 48.97L72.8899 47.92Z" fill="#4D4D4D"/>
<path fill-rule="evenodd" clip-rule="evenodd" d="M65.0801 47.11H69.1101C69.5001 47.11 69.8201 47.43 69.8201 47.82V48.91H68.0201V48.79C68.0201 48.63 67.8901 48.5 67.7301 48.5H66.4401C66.2801 48.5 66.1501 48.63 66.1501 48.79V51.29C66.1501 51.45 66.2801 51.58 66.4401 51.58H67.7301C67.8901 51.58 68.0201 51.45 68.0201 51.29V50.79H66.9501V49.6H69.8201V52.26C69.8201 52.65 69.5001 52.97 69.1101 52.97H65.0801C64.6901 52.97 64.3701 52.65 64.3701 52.26V47.81C64.3701 47.42 64.6901 47.1 65.0801 47.1V47.11Z" fill="#4D4D4D"/>
</g>
<defs>
<clipPath id="clip0_830_6131">
<rect width="134.11" height="78.04" fill="white"/>
</clipPath>
</defs>
</svg>
