<svg width="56" height="76" viewBox="0 0 56 76" fill="none" xmlns="http://www.w3.org/2000/svg">
<path fill-rule="evenodd" clip-rule="evenodd" d="M8.68921 19.714C8.68921 8.98634 17.3869 0.300003 28.1123 0.300003C38.8394 0.300003 47.5263 8.99712 47.5263 19.714C47.5263 25.3773 45.0982 30.4737 41.2263 34.0214C49.6137 35.7736 55.9157 43.2115 55.9157 52.1185V74C55.9157 74.9389 55.1546 75.7 54.2157 75.7H1.9998C1.06092 75.7 0.299805 74.9389 0.299805 74V52.1185C0.299805 43.2119 6.60111 35.7744 14.9879 34.0217C11.1205 30.4778 8.68921 25.3818 8.68921 19.714ZM28.1123 3.7C19.2624 3.7 12.0892 10.8664 12.0892 19.714C12.0892 25.8261 15.5168 31.1374 20.5522 33.8317C21.2396 34.1996 21.5887 34.9878 21.3991 35.7441C21.2095 36.5003 20.5298 37.0306 19.7501 37.0306H18.7877C10.4565 37.0306 3.6998 43.7873 3.6998 52.1185V72.3H52.5157V52.1185C52.5157 43.7873 45.759 37.0306 37.4278 37.0306H36.4654C35.6859 37.0306 35.0063 36.5006 34.8165 35.7446C34.6268 34.9886 34.9754 34.2003 35.6625 33.8322C40.7073 31.129 44.1263 25.8174 44.1263 19.714C44.1263 10.8738 36.9605 3.7 28.1123 3.7Z" fill="url(#paint0_linear_734_4038)"/>
<path fill-rule="evenodd" clip-rule="evenodd" d="M14.7642 25.2525C14.7642 17.8815 20.7413 11.9044 28.1122 11.9044C35.4831 11.9044 41.4602 17.8815 41.4602 25.2525C41.4602 29.2805 39.6742 32.8902 36.8523 35.3354C42.8009 36.3929 47.3165 41.5893 47.3165 47.8421V63.0865C47.3165 63.6388 46.8688 64.0865 46.3165 64.0865H9.91699C9.36471 64.0865 8.91699 63.6388 8.91699 63.0865V47.8421C8.91699 41.592 13.4288 36.3973 19.3737 35.3367C16.5508 32.8915 14.7642 29.2813 14.7642 25.2525ZM28.1122 13.9044C21.8458 13.9044 16.7642 18.9861 16.7642 25.2525C16.7642 29.5812 19.1901 33.3448 22.764 35.257C23.1684 35.4734 23.3738 35.9371 23.2623 36.3819C23.1507 36.8268 22.7509 37.1387 22.2923 37.1387H21.6204C15.7081 37.1387 10.917 41.9298 10.917 47.8421V62.0865H45.3165V47.8421C45.3165 41.9298 40.5254 37.1387 34.6131 37.1387H33.9321C33.4735 37.1387 33.0737 36.8268 32.9621 36.3819C32.8506 35.9371 33.056 35.4734 33.4604 35.257C37.0343 33.3448 39.4602 29.5812 39.4602 25.2525C39.4602 18.9861 34.3786 13.9044 28.1122 13.9044Z" fill="url(#paint1_linear_734_4038)"/>
<path fill-rule="evenodd" clip-rule="evenodd" d="M19.3504 29.8376C19.3504 25.0092 23.2652 21.0944 28.0936 21.0944C32.922 21.0944 36.8368 25.0092 36.8368 29.8376C36.8368 32.3424 35.7878 34.5932 34.1065 36.1846C37.8093 37.0298 40.5684 40.3405 40.5684 44.3011V54.0615C40.5684 54.5227 40.1946 54.8965 39.7334 54.8965H16.4356C15.9744 54.8965 15.6006 54.5227 15.6006 54.0615V44.3011C15.6006 40.3349 18.3676 37.0205 22.0783 36.181C20.3982 34.5874 19.3504 32.3341 19.3504 29.8376ZM32.2429 37.6456H31.8252C31.4425 37.6456 31.1087 37.3853 31.0154 37.0141C30.9221 36.6429 31.0932 36.2558 31.4305 36.0748C33.6585 34.8795 35.1668 32.5408 35.1668 29.8376C35.1668 25.9315 31.9997 22.7644 28.0936 22.7644C24.1875 22.7644 21.0204 25.9315 21.0204 29.8376C21.0204 32.5322 22.5292 34.8797 24.7567 36.0748C25.094 36.2558 25.2651 36.6429 25.1718 37.0141C25.0785 37.3853 24.7447 37.6456 24.3619 37.6456H23.9261C20.2471 37.6456 17.2706 40.6221 17.2706 44.3011V53.2265H38.8984V44.3011C38.8984 40.6221 35.922 37.6456 32.2429 37.6456Z" fill="url(#paint2_linear_734_4038)"/>
<defs>
<linearGradient id="paint0_linear_734_4038" x1="0.365504" y1="38" x2="55.85" y2="38" gradientUnits="userSpaceOnUse">
<stop stop-color="#01ABFF"/>
<stop offset="0.12" stop-color="#00B6F9"/>
<stop offset="0.44" stop-color="#00CCEF"/>
<stop offset="0.74" stop-color="#00DAE9"/>
<stop offset="1" stop-color="#00DFE7"/>
</linearGradient>
<linearGradient id="paint1_linear_734_4038" x1="9.15432" y1="38" x2="47.061" y2="38" gradientUnits="userSpaceOnUse">
<stop stop-color="#01ABFF"/>
<stop offset="0.12" stop-color="#00B6F9"/>
<stop offset="0.44" stop-color="#00CCEF"/>
<stop offset="0.74" stop-color="#00DAE9"/>
<stop offset="1" stop-color="#00DFE7"/>
</linearGradient>
<linearGradient id="paint2_linear_734_4038" x1="15.7002" y1="38" x2="40.5143" y2="38" gradientUnits="userSpaceOnUse">
<stop stop-color="#01ABFF"/>
<stop offset="0.12" stop-color="#00B6F9"/>
<stop offset="0.44" stop-color="#00CCEF"/>
<stop offset="0.74" stop-color="#00DAE9"/>
<stop offset="1" stop-color="#00DFE7"/>
</linearGradient>
</defs>
</svg>
