<svg  viewBox="0 0 55 54" xmlns="http://www.w3.org/2000/svg">
<path fill-rule="evenodd" clip-rule="evenodd" d="M50.3782 12.51C50.5584 12.2936 50.88 12.2644 51.0964 12.4447L54.8373 15.5614C54.9536 15.6583 55.0208 15.8019 55.0208 15.9533V32.3234C55.0208 32.605 54.7925 32.8334 54.5108 32.8334C54.2292 32.8334 54.0008 32.605 54.0008 32.3234V16.1922L50.4435 13.2283C50.2271 13.048 50.1979 12.7264 50.3782 12.51Z" />
<path fill-rule="evenodd" clip-rule="evenodd" d="M40.6395 12.51C40.8198 12.7264 40.7905 13.048 40.5741 13.2283L36.8333 16.3451C36.6169 16.5254 36.2953 16.4961 36.115 16.2797C35.9347 16.0633 35.964 15.7417 36.1804 15.5614L39.9212 12.4447C40.1376 12.2644 40.4592 12.2936 40.6395 12.51Z" />
<path fill-rule="evenodd" clip-rule="evenodd" d="M4.62185 12.51C4.80215 12.7264 4.77289 13.048 4.55649 13.2283L0.999187 16.1922V32.3234C0.999187 32.605 0.770852 32.8334 0.489187 32.8334C0.207522 32.8334 -0.020813 32.605 -0.020813 32.3234V15.9533C-0.020813 15.8019 0.046432 15.6583 0.162731 15.5614L3.90357 12.4447C4.11997 12.2644 4.44156 12.2936 4.62185 12.51Z" />
<path fill-rule="evenodd" clip-rule="evenodd" d="M14.3605 12.51C14.5408 12.2936 14.8624 12.2644 15.0788 12.4447L18.8197 15.5614C19.0361 15.7417 19.0653 16.0633 18.885 16.2797C18.7047 16.4961 18.3831 16.5254 18.1667 16.3451L14.4259 13.2283C14.2095 13.048 14.1802 12.7264 14.3605 12.51Z" />
<path fill-rule="evenodd" clip-rule="evenodd" d="M22.6259 12.51C22.8061 12.7264 22.7769 13.048 22.5605 13.2283L19.0032 16.1922V19.449C19.0032 19.7306 18.7749 19.959 18.4932 19.959C18.2115 19.959 17.9832 19.7306 17.9832 19.449V15.9533C17.9832 15.8019 18.0504 15.6583 18.1667 15.5614L21.9076 12.4447C22.124 12.2644 22.4456 12.2936 22.6259 12.51Z" />
<path fill-rule="evenodd" clip-rule="evenodd" d="M32.3741 12.51C32.5544 12.2936 32.876 12.2644 33.0924 12.4447L36.8333 15.5614C36.9495 15.6583 37.0168 15.8019 37.0168 15.9533V19.449C37.0168 19.7306 36.7885 19.959 36.5068 19.959C36.2251 19.959 35.9968 19.7306 35.9968 19.449V16.1922L32.4395 13.2283C32.2231 13.048 32.1938 12.7264 32.3741 12.51Z" />
<path fill-rule="evenodd" clip-rule="evenodd" d="M9.43845 0.983669C6.84712 0.983669 4.63453 3.40802 4.63453 6.54614C4.63453 9.68426 6.84712 12.1086 9.43845 12.1086C12.0298 12.1086 14.2424 9.68426 14.2424 6.54614C14.2424 3.40802 12.0298 0.983669 9.43845 0.983669ZM3.61453 6.54614C3.61453 2.97679 6.16019 -0.0363312 9.43845 -0.0363312C12.7167 -0.0363312 15.2624 2.97679 15.2624 6.54614C15.2624 10.1155 12.7167 13.1286 9.43845 13.1286C6.16019 13.1286 3.61453 10.1155 3.61453 6.54614Z" />
<path fill-rule="evenodd" clip-rule="evenodd" d="M27.5 0.983669C24.9087 0.983669 22.6961 3.40802 22.6961 6.54614C22.6961 9.68426 24.9087 12.1086 27.5 12.1086C30.0913 12.1086 32.3039 9.68426 32.3039 6.54614C32.3039 3.40802 30.0913 0.983669 27.5 0.983669ZM21.6761 6.54614C21.6761 2.97679 24.2217 -0.0363312 27.5 -0.0363312C30.7783 -0.0363312 33.3239 2.97679 33.3239 6.54614C33.3239 10.1155 30.7783 13.1286 27.5 13.1286C24.2217 13.1286 21.6761 10.1155 21.6761 6.54614Z" />
<path fill-rule="evenodd" clip-rule="evenodd" d="M45.5616 0.983669C42.9702 0.983669 40.7576 3.40802 40.7576 6.54614C40.7576 9.68426 42.9702 12.1086 45.5616 12.1086C48.1529 12.1086 50.3655 9.68426 50.3655 6.54614C50.3655 3.40802 48.1529 0.983669 45.5616 0.983669ZM39.7376 6.54614C39.7376 2.97679 42.2833 -0.0363312 45.5616 -0.0363312C48.8398 -0.0363312 51.3855 2.97679 51.3855 6.54614C51.3855 10.1155 48.8398 13.1286 45.5616 13.1286C42.2833 13.1286 39.7376 10.1155 39.7376 6.54614Z" />
<path fill-rule="evenodd" clip-rule="evenodd" d="M27.5 29.7261C22.8054 29.7261 19.0032 33.5162 19.0032 38.1874C19.0032 42.8586 22.8054 46.6488 27.5 46.6488C32.1945 46.6488 35.9968 42.8586 35.9968 38.1874C35.9968 33.5162 32.1945 29.7261 27.5 29.7261ZM17.9832 38.1874C17.9832 32.9491 22.2459 28.7061 27.5 28.7061C32.7541 28.7061 37.0168 32.9491 37.0168 38.1874C37.0168 43.4257 32.7541 47.6688 27.5 47.6688C22.2459 47.6688 17.9832 43.4257 17.9832 38.1874Z" />
<path d="M27.5 31.4707C26.7614 31.4707 26.0516 31.5939 25.3898 31.8213C28.0276 32.7118 29.9363 35.2317 29.9363 38.1874C29.9363 41.1431 28.0276 43.663 25.3898 44.5536C26.0516 44.7809 26.7614 44.9041 27.5 44.9041C31.1737 44.9041 34.1568 41.8915 34.1568 38.1874C34.1568 34.4833 31.1737 31.4707 27.5 31.4707Z" />
<path fill-rule="evenodd" clip-rule="evenodd" d="M41.445 38.1874C41.445 37.9057 41.6733 37.6774 41.955 37.6774H49.5806C49.8622 37.6774 50.0906 37.9057 50.0906 38.1874C50.0906 38.4691 49.8622 38.6974 49.5806 38.6974H41.955C41.6733 38.6974 41.445 38.4691 41.445 38.1874Z" />
<path fill-rule="evenodd" clip-rule="evenodd" d="M40.1213 32.1623C40.1213 31.8806 40.3497 31.6523 40.6313 31.6523H45.7726C46.0543 31.6523 46.2826 31.8806 46.2826 32.1623C46.2826 32.444 46.0543 32.6723 45.7726 32.6723H40.6313C40.3497 32.6723 40.1213 32.444 40.1213 32.1623Z" />
<path fill-rule="evenodd" clip-rule="evenodd" d="M40.1405 44.1557C40.1405 43.874 40.3688 43.6457 40.6505 43.6457H45.6671C45.9487 43.6457 46.1771 43.874 46.1771 44.1557C46.1771 44.4373 45.9487 44.6657 45.6671 44.6657H40.6505C40.3688 44.6657 40.1405 44.4373 40.1405 44.1557Z" />
<path fill-rule="evenodd" clip-rule="evenodd" d="M51.6908 36.6796C50.7807 36.6796 50.0906 37.3723 50.0906 38.1874C50.0906 39.0025 50.7807 39.6952 51.6908 39.6952C52.6009 39.6952 53.291 39.0025 53.291 38.1874C53.291 37.3723 52.6009 36.6796 51.6908 36.6796ZM49.0706 38.1874C49.0706 36.7668 50.2605 35.6596 51.6908 35.6596C53.1211 35.6596 54.311 36.7668 54.311 38.1874C54.311 39.608 53.1211 40.7152 51.6908 40.7152C50.2605 40.7152 49.0706 39.608 49.0706 38.1874Z" />
<path fill-rule="evenodd" clip-rule="evenodd" d="M47.8732 30.6545C46.9631 30.6545 46.273 31.3472 46.273 32.1623C46.273 32.9774 46.9631 33.6701 47.8732 33.6701C48.7833 33.6701 49.4734 32.9774 49.4734 32.1623C49.4734 31.3472 48.7833 30.6545 47.8732 30.6545ZM45.253 32.1623C45.253 30.7417 46.4429 29.6345 47.8732 29.6345C49.3035 29.6345 50.4934 30.7417 50.4934 32.1623C50.4934 33.5829 49.3035 34.6901 47.8732 34.6901C46.4429 34.6901 45.253 33.5829 45.253 32.1623Z" />
<path fill-rule="evenodd" clip-rule="evenodd" d="M47.7677 42.6478C46.8576 42.6478 46.1675 43.3406 46.1675 44.1557C46.1675 44.9708 46.8576 45.6635 47.7677 45.6635C48.6778 45.6635 49.3679 44.9708 49.3679 44.1557C49.3679 43.3406 48.6778 42.6478 47.7677 42.6478ZM45.1475 44.1557C45.1475 42.735 46.3374 41.6278 47.7677 41.6278C49.198 41.6278 50.3879 42.735 50.3879 44.1557C50.3879 45.5763 49.198 46.6835 47.7677 46.6835C46.3374 46.6835 45.1475 45.5763 45.1475 44.1557Z" />
<path fill-rule="evenodd" clip-rule="evenodd" d="M4.90942 38.1874C4.90942 37.9057 5.13776 37.6774 5.41942 37.6774H13.045C13.3267 37.6774 13.555 37.9057 13.555 38.1874C13.555 38.4691 13.3267 38.6974 13.045 38.6974H5.41942C5.13776 38.6974 4.90942 38.4691 4.90942 38.1874Z" />
<path fill-rule="evenodd" clip-rule="evenodd" d="M8.72702 32.1623C8.72702 31.8806 8.95536 31.6523 9.23702 31.6523H14.3687C14.6504 31.6523 14.8787 31.8806 14.8787 32.1623C14.8787 32.444 14.6504 32.6723 14.3687 32.6723H9.23702C8.95536 32.6723 8.72702 32.444 8.72702 32.1623Z" />
<path fill-rule="evenodd" clip-rule="evenodd" d="M8.83252 44.1557C8.83252 43.874 9.06085 43.6457 9.34252 43.6457H14.3495C14.6312 43.6457 14.8595 43.874 14.8595 44.1557C14.8595 44.4373 14.6312 44.6657 14.3495 44.6657H9.34252C9.06085 44.6657 8.83252 44.4373 8.83252 44.1557Z" />
<path fill-rule="evenodd" clip-rule="evenodd" d="M0.698578 38.1874C0.698578 36.7668 1.88849 35.6596 3.3188 35.6596C4.74911 35.6596 5.93902 36.7668 5.93902 38.1874C5.93902 39.608 4.74911 40.7152 3.3188 40.7152C1.88849 40.7152 0.698578 39.608 0.698578 38.1874ZM3.3188 36.6796C2.40868 36.6796 1.71858 37.3723 1.71858 38.1874C1.71858 39.0025 2.40868 39.6952 3.3188 39.6952C4.22891 39.6952 4.91902 39.0025 4.91902 38.1874C4.91902 37.3723 4.22891 36.6796 3.3188 36.6796Z" />
<path fill-rule="evenodd" clip-rule="evenodd" d="M4.50656 32.1623C4.50656 30.7417 5.69647 29.6345 7.12678 29.6345C8.55709 29.6345 9.747 30.7417 9.747 32.1623C9.747 33.5829 8.55709 34.6901 7.12678 34.6901C5.69647 34.6901 4.50656 33.5829 4.50656 32.1623ZM7.12678 30.6545C6.21667 30.6545 5.52656 31.3472 5.52656 32.1623C5.52656 32.9774 6.21667 33.6701 7.12678 33.6701C8.0369 33.6701 8.727 32.9774 8.727 32.1623C8.727 31.3472 8.0369 30.6545 7.12678 30.6545Z" />
<path fill-rule="evenodd" clip-rule="evenodd" d="M7.23231 42.6478C6.32678 42.6478 5.63209 43.3442 5.63209 44.1557C5.63209 44.9672 6.32678 45.6635 7.23231 45.6635C8.13784 45.6635 8.83253 44.9672 8.83253 44.1557C8.83253 43.3442 8.13784 42.6478 7.23231 42.6478ZM4.61209 44.1557C4.61209 42.7383 5.80696 41.6278 7.23231 41.6278C8.65766 41.6278 9.85253 42.7383 9.85253 44.1557C9.85253 45.573 8.65766 46.6835 7.23231 46.6835C5.80696 46.6835 4.61209 45.573 4.61209 44.1557Z" />
<path fill-rule="evenodd" clip-rule="evenodd" d="M40.8628 43.7015C41.1189 43.8187 41.2315 44.1214 41.1142 44.3775C38.7603 49.5176 33.5467 53.0876 27.5 53.0876C21.4527 53.0876 16.2494 49.5172 13.8861 44.3782C13.7684 44.1223 13.8805 43.8195 14.1364 43.7018C14.3923 43.5841 14.6951 43.6962 14.8128 43.9521C17.0153 48.7413 21.8643 52.0676 27.5 52.0676C33.1362 52.0676 37.9941 48.7409 40.1868 43.9528C40.3041 43.6967 40.6067 43.5842 40.8628 43.7015Z" />
<path fill-rule="evenodd" clip-rule="evenodd" d="M14.5844 31.7002C14.8397 31.8194 14.95 32.1229 14.8308 32.3781C14.0086 34.1391 13.555 36.1117 13.555 38.1874C13.555 38.4691 13.3267 38.6974 13.045 38.6974C12.7633 38.6974 12.535 38.4691 12.535 38.1874C12.535 35.9622 13.0214 33.8423 13.9066 31.9465C14.0257 31.6913 14.3292 31.581 14.5844 31.7002Z" />
<path fill-rule="evenodd" clip-rule="evenodd" d="M15.793 28.8973C18.5333 25.475 22.7637 23.2778 27.5 23.2778C32.2363 23.2778 36.4667 25.475 39.207 28.8973C39.383 29.1172 39.3475 29.4381 39.1276 29.6142C38.9078 29.7902 38.5868 29.7547 38.4108 29.5348C35.8563 26.3446 31.9144 24.2978 27.5 24.2978C23.0856 24.2978 19.1437 26.3446 16.5892 29.5348C16.4132 29.7547 16.0922 29.7902 15.8724 29.6142C15.6525 29.4381 15.617 29.1172 15.793 28.8973Z" />
<path fill-rule="evenodd" clip-rule="evenodd" d="M40.4165 31.6998C40.6719 31.5811 40.9752 31.692 41.0939 31.9475C41.9784 33.8517 42.465 35.9617 42.465 38.1874C42.465 38.4691 42.2367 38.6974 41.955 38.6974C41.6733 38.6974 41.445 38.4691 41.445 38.1874C41.445 36.1122 40.9916 34.1486 40.1688 32.3772C40.0501 32.1217 40.161 31.8184 40.4165 31.6998Z" />
</svg>
