<svg  viewBox="0 0 57 55"  xmlns="http://www.w3.org/2000/svg">
<path fill-rule="evenodd" clip-rule="evenodd" d="M21.0268 10.3911C21.303 10.3911 21.5268 10.6149 21.5268 10.8911V15.3011H35.8268V10.8911C35.8268 10.6149 36.0507 10.3911 36.3268 10.3911C36.603 10.3911 36.8268 10.6149 36.8268 10.8911V15.8011C36.8268 16.0772 36.603 16.3011 36.3268 16.3011H21.0268C20.7507 16.3011 20.5268 16.0772 20.5268 15.8011V10.8911C20.5268 10.6149 20.7507 10.3911 21.0268 10.3911Z" />
<path fill-rule="evenodd" clip-rule="evenodd" d="M20.5268 0.491058C20.5268 0.214916 20.7507 -0.00894165 21.0268 -0.00894165H36.3268C36.603 -0.00894165 36.8268 0.214916 36.8268 0.491058V5.39106C36.8268 5.6672 36.603 5.89106 36.3268 5.89106C36.0507 5.89106 35.8268 5.6672 35.8268 5.39106V0.991058H21.5268V5.39106C21.5268 5.6672 21.303 5.89106 21.0268 5.89106C20.7507 5.89106 20.5268 5.6672 20.5268 5.39106V0.491058Z" />
<path fill-rule="evenodd" clip-rule="evenodd" d="M21.0268 50.091C21.303 50.091 21.5268 50.3149 21.5268 50.591V54.9911H35.8268V50.591C35.8268 50.3149 36.0507 50.091 36.3268 50.091C36.603 50.091 36.8268 50.3149 36.8268 50.591V55.4911C36.8268 55.7672 36.603 55.9911 36.3268 55.9911H21.0268C20.7507 55.9911 20.5268 55.7672 20.5268 55.4911V50.591C20.5268 50.3149 20.7507 50.091 21.0268 50.091Z" />
<path fill-rule="evenodd" clip-rule="evenodd" d="M20.5268 40.1811C20.5268 39.9049 20.7507 39.6811 21.0268 39.6811H36.3268C36.603 39.6811 36.8268 39.9049 36.8268 40.1811V45.0911C36.8268 45.3672 36.603 45.5911 36.3268 45.5911C36.0507 45.5911 35.8268 45.3672 35.8268 45.0911V40.6811H21.5268V45.0911C21.5268 45.3672 21.303 45.5911 21.0268 45.5911C20.7507 45.5911 20.5268 45.3672 20.5268 45.0911V40.1811Z" />
<path fill-rule="evenodd" clip-rule="evenodd" d="M40.3668 20.3411C40.3668 20.0649 40.5907 19.8411 40.8668 19.8411H45.7768C46.053 19.8411 46.2768 20.0649 46.2768 20.3411C46.2768 20.6172 46.053 20.8411 45.7768 20.8411H41.3668V35.1411H45.7768C46.053 35.1411 46.2768 35.3649 46.2768 35.6411C46.2768 35.9172 46.053 36.1411 45.7768 36.1411H40.8668C40.5907 36.1411 40.3668 35.9172 40.3668 35.6411V20.3411Z" />
<path fill-rule="evenodd" clip-rule="evenodd" d="M50.7768 20.3411C50.7768 20.0649 51.0007 19.8411 51.2768 19.8411H56.1768C56.4529 19.8411 56.6768 20.0649 56.6768 20.3411V35.6411C56.6768 35.9172 56.4529 36.1411 56.1768 36.1411H51.2768C51.0007 36.1411 50.7768 35.9172 50.7768 35.6411C50.7768 35.3649 51.0007 35.1411 51.2768 35.1411H55.6768V20.8411H51.2768C51.0007 20.8411 50.7768 20.6172 50.7768 20.3411Z" />
<path fill-rule="evenodd" clip-rule="evenodd" d="M11.0768 20.3411C11.0768 20.0649 11.3007 19.8411 11.5768 19.8411H16.4868C16.763 19.8411 16.9868 20.0649 16.9868 20.3411V35.6411C16.9868 35.9172 16.763 36.1411 16.4868 36.1411H11.5768C11.3007 36.1411 11.0768 35.9172 11.0768 35.6411C11.0768 35.3649 11.3007 35.1411 11.5768 35.1411H15.9868V20.8411H11.5768C11.3007 20.8411 11.0768 20.6172 11.0768 20.3411Z" />
<path fill-rule="evenodd" clip-rule="evenodd" d="M0.676819 20.3411C0.676819 20.0649 0.900676 19.8411 1.17682 19.8411H6.07682C6.35296 19.8411 6.57682 20.0649 6.57682 20.3411C6.57682 20.6172 6.35296 20.8411 6.07682 20.8411H1.67682V35.1411H6.07682C6.35296 35.1411 6.57682 35.3649 6.57682 35.6411C6.57682 35.9172 6.35296 36.1411 6.07682 36.1411H1.17682C0.900676 36.1411 0.676819 35.9172 0.676819 35.6411V20.3411Z" />
<path fill-rule="evenodd" clip-rule="evenodd" d="M48.5269 31.731C48.803 31.731 49.0269 31.9549 49.0269 32.231V47.841C49.0269 48.1172 48.803 48.341 48.5269 48.341H33.1269C32.8507 48.341 32.6269 48.1172 32.6269 47.841C32.6269 47.5649 32.8507 47.341 33.1269 47.341H48.0269V32.231C48.0269 31.9549 48.2507 31.731 48.5269 31.731Z" />
<path fill-rule="evenodd" clip-rule="evenodd" d="M8.82681 32.3011C9.10296 32.3011 9.32681 32.5249 9.32681 32.8011V47.3411H24.0768C24.353 47.3411 24.5768 47.5649 24.5768 47.8411C24.5768 48.1172 24.353 48.3411 24.0768 48.3411H8.82681C8.55067 48.3411 8.32681 48.1172 8.32681 47.8411V32.8011C8.32681 32.5249 8.55067 32.3011 8.82681 32.3011Z" />
<path fill-rule="evenodd" clip-rule="evenodd" d="M8.32681 8.14105C8.32681 7.86491 8.55067 7.64105 8.82681 7.64105H24.0768C24.353 7.64105 24.5768 7.86491 24.5768 8.14105C24.5768 8.41719 24.353 8.64105 24.0768 8.64105H9.32681V23.1811C9.32681 23.4572 9.10296 23.6811 8.82681 23.6811C8.55067 23.6811 8.32681 23.4572 8.32681 23.1811V8.14105Z" />
<path fill-rule="evenodd" clip-rule="evenodd" d="M32.6269 8.14105C32.6269 7.86491 32.8507 7.64105 33.1269 7.64105H48.5269C48.803 7.64105 49.0269 7.86491 49.0269 8.14105V23.5211C49.0269 23.7972 48.803 24.0211 48.5269 24.0211C48.2507 24.0211 48.0269 23.7972 48.0269 23.5211V8.64105H33.1269C32.8507 8.64105 32.6269 8.41719 32.6269 8.14105Z" />
<path d="M51.2768 27.9911C51.2768 29.5111 50.0468 30.7411 48.5268 30.7411C47.0068 30.7411 45.7768 29.5111 45.7768 27.9911C45.7768 26.4711 47.0068 25.2411 48.5268 25.2411C50.0468 25.2411 51.2768 26.4711 51.2768 27.9911Z" />
<path d="M11.5768 27.9911C11.5768 29.5111 10.3468 30.7411 8.82684 30.7411C7.30684 30.7411 6.07684 29.5111 6.07684 27.9911C6.07684 26.4711 7.30684 25.2411 8.82684 25.2411C10.3468 25.2411 11.5768 26.4711 11.5768 27.9911Z" />
<path d="M31.4268 47.8411C31.4268 49.3611 30.1968 50.5911 28.6768 50.5911C27.1568 50.5911 25.9268 49.3611 25.9268 47.8411C25.9268 46.3211 27.1568 45.0911 28.6768 45.0911C30.1968 45.0911 31.4268 46.3211 31.4268 47.8411Z" />
<path d="M31.4268 8.14105C31.4268 9.66105 30.1968 10.8911 28.6768 10.8911C27.1568 10.8911 25.9268 9.66105 25.9268 8.14105C25.9268 6.62105 27.1568 5.39105 28.6768 5.39105C30.1968 5.39105 31.4268 6.62105 31.4268 8.14105Z" />
<path fill-rule="evenodd" clip-rule="evenodd" d="M35.8268 2.94107C35.8268 2.66493 36.0507 2.44107 36.3268 2.44107H53.7268C54.003 2.44107 54.2268 2.66493 54.2268 2.94107V20.3411C54.2268 20.6172 54.003 20.8411 53.7268 20.8411C53.4507 20.8411 53.2268 20.6172 53.2268 20.3411V3.44107H36.3268C36.0507 3.44107 35.8268 3.21721 35.8268 2.94107Z" />
<path fill-rule="evenodd" clip-rule="evenodd" d="M2.74683 2.94107C2.74683 2.66493 2.97068 2.44107 3.24683 2.44107H20.6468C20.923 2.44107 21.1468 2.66493 21.1468 2.94107C21.1468 3.21721 20.923 3.44107 20.6468 3.44107H3.74683V20.3411C3.74683 20.6172 3.52297 20.8411 3.24683 20.8411C2.97068 20.8411 2.74683 20.6172 2.74683 20.3411V2.94107Z" />
<path fill-rule="evenodd" clip-rule="evenodd" d="M53.7268 35.1411C54.003 35.1411 54.2268 35.3649 54.2268 35.6411V53.041C54.2268 53.3172 54.003 53.541 53.7268 53.541H36.3268C36.0507 53.541 35.8268 53.3172 35.8268 53.041C35.8268 52.7649 36.0507 52.541 36.3268 52.541H53.2268V35.6411C53.2268 35.3649 53.4507 35.1411 53.7268 35.1411Z" />
<path fill-rule="evenodd" clip-rule="evenodd" d="M3.24683 35.1411C3.52297 35.1411 3.74683 35.3649 3.74683 35.6411V52.541H20.6468C20.923 52.541 21.1468 52.7649 21.1468 53.041C21.1468 53.3172 20.923 53.541 20.6468 53.541H3.24683C2.97068 53.541 2.74683 53.3172 2.74683 53.041V35.6411C2.74683 35.3649 2.97068 35.1411 3.24683 35.1411Z" />
</svg>
