<svg viewBox="0 0 151 24" fill="none" xmlns="http://www.w3.org/2000/svg">
<path fill-rule="evenodd" clip-rule="evenodd" d="M16.3815 1.09234V5.47695C14.288 4.74772 12.0001 4.32311 10.1753 4.32311C7.92435 4.32311 6.6646 5.00618 6.6646 6.23388C6.6646 7.01849 7.2111 7.53541 8.78581 8.24618L13.019 10.1385C16.4093 11.6523 18.1137 13.8677 18.1137 16.7477C18.1137 21.1877 14.2602 23.9846 8.14666 23.9846C5.91427 23.9846 3.3392 23.6708 0.606611 23.0523V18.52C3.31141 19.2493 5.79389 19.6462 7.7206 19.6462C10.2494 19.6462 11.6018 18.9446 11.6018 17.6431C11.6018 16.8585 11.0738 16.277 9.86035 15.7416L5.22884 13.6831C1.79227 12.16 0.208252 10.1016 0.208252 7.16618C0.208252 2.96618 3.92276 0.280029 9.7492 0.280029C11.7871 0.280029 14.3066 0.584646 16.3722 1.09234H16.3815Z" fill="#4D4D4D"/>
<path fill-rule="evenodd" clip-rule="evenodd" d="M21.4205 0.7323H28.2659V23.5138H21.4205V0.7323Z" fill="#4D4D4D"/>
<path fill-rule="evenodd" clip-rule="evenodd" d="M50.5342 0.7323V4.90461H40.1967V10.0461H49.2282V13.8215H40.1967V19.1477H50.6732V23.5138H33.5459V0.7323H50.5342Z" fill="#4D4D4D"/>
<path fill-rule="evenodd" clip-rule="evenodd" d="M82.8991 0.7323V23.5138H76.2668V8.52307L69.7827 23.6985H65.5865L59.1395 8.52307V23.5138H54.5636V0.7323H62.9281L68.8471 14.5877L74.7291 0.7323H82.8991Z" fill="#4D4D4D"/>
<path fill-rule="evenodd" clip-rule="evenodd" d="M105.186 0.7323V4.90461H94.83V10.0461H103.861V13.8215H94.83V19.1477H105.306V23.5138H88.1605V0.7323H105.186Z" fill="#4D4D4D"/>
<path fill-rule="evenodd" clip-rule="evenodd" d="M129.316 0.7323V23.5138H121.998L113.773 8.90153V23.5138H109.197V0.7323H116.7L124.749 15.1508V0.7323H129.316Z" fill="#4D4D4D"/>
<path fill-rule="evenodd" clip-rule="evenodd" d="M149.185 1.09232V5.47694C147.11 4.75694 144.804 4.32309 143.016 4.32309C140.728 4.32309 139.478 4.99694 139.478 6.23386C139.478 7.03694 139.987 7.51694 141.617 8.2554L145.832 10.1477C149.241 11.68 150.927 13.8769 150.927 16.7846C150.927 21.1969 147.073 23.9939 140.969 23.9939C138.736 23.9939 136.152 23.6708 133.419 23.0616V18.5292C136.124 19.2585 138.598 19.6554 140.515 19.6554C143.025 19.6554 144.415 18.9539 144.415 17.6892C144.415 16.8492 143.924 16.3139 142.664 15.7508L138.042 13.6923C134.587 12.1508 133.021 10.12 133.021 7.1754C133.021 2.9754 136.736 0.289246 142.553 0.289246C144.6 0.289246 147.119 0.593862 149.185 1.10155V1.09232Z" fill="#4D4D4D"/>
</svg>
