<svg viewBox="0 0 96 60" fill="none" xmlns="http://www.w3.org/2000/svg">
<path fill-rule="evenodd" clip-rule="evenodd" d="M82.9291 14.8154H95.0914L93.8965 21.2954H88.9593L87.8107 27.4062H92.2292L91.1362 33.5169H86.7177L81.9843 59.9908H74.7592L82.9199 14.8062L82.9291 14.8154ZM80.3262 14.8154H72.9436L68.4696 38.5938C68.1546 40.2 67.8953 41.2338 67.6915 41.7046C67.4321 42.12 67.1172 42.3231 66.654 42.3231C66.2372 42.3231 65.9778 42.12 65.9222 41.7508C65.8667 41.3354 65.9778 40.4585 66.2372 39.0092L70.8131 14.8154H63.3749L59.7901 33.9323C59.1139 37.56 58.6971 39.9415 58.5952 41.0862C58.5396 42.2308 58.6971 43.3108 59.1695 44.3538C59.5863 45.3877 60.42 46.2185 61.6149 46.8369C62.8099 47.5108 64.2178 47.8246 65.9315 47.8246C67.4877 47.8246 68.8401 47.5662 70.0906 46.9938C71.3411 46.4769 72.3785 45.6462 73.2585 44.6123C74.1385 43.5785 74.7684 42.5354 75.0741 41.5569C75.4354 40.5692 75.8059 38.8615 76.269 36.3785L80.3262 14.8246V14.8154ZM50.1195 35.5938C50.4345 31.9108 50.8976 27.4615 51.5738 22.0708C49.6471 28.2369 48.3503 32.6954 47.6741 35.5938H50.1195ZM57.6596 14.8154L55.3717 47.1508H48.5634L49.2951 41.2985H46.6922L45.136 47.1508H37.7534L48.1558 14.8154H57.6689H57.6596ZM42.2738 14.8154H36.0305L33.3257 29.3723L31.8714 14.8154H25.6837L19.5979 47.1508H25.8412L28.5923 32.4369L29.6853 47.1508H36.188L42.2738 14.8154ZM22.3583 15.0738L16.2262 29.6862L17.7361 47.1508H10.9277L9.67723 35.5938L7.49115 47.1508H0.36792L7.79684 0H14.9201L11.2797 25.8L15.8001 15.0738H22.349H22.3583Z" fill="#4D4D4D"/>
</svg>
