<svg xmlns="http://www.w3.org/2000/svg" xmlns:xlink="http://www.w3.org/1999/xlink" viewBox="0 0 232.57 30.55"><defs><style>.cls-1{fill:none;}.cls-2{clip-path:url(#clip-path);}.cls-3{fill:#4d4d4d;}.cls-4{fill:#fff;}</style><clipPath id="clip-path"><rect class="cls-1" width="232.57" height="30.55"/></clipPath></defs><g id="Слой_2" data-name="Слой 2"><g id="Слой_1-2" data-name="Слой 1"><g class="cls-2"><path class="cls-3" d="M69.19,21.54V17.29h3.56l-3.56-9V3.42H72L82.13,27.21H76.54l-2.17-5.66H69.19ZM83.76,3.41h6.35L99.88,20.5,99.6,3.41h5.11V27.2h-5.8l-10.22-18,.21,18H83.75V3.42Zm34.42,13.88V13.08H130V27.2H119.25a16.34,16.34,0,0,1-4.59-.48,10.32,10.32,0,0,1-2.94-1.59,8.53,8.53,0,0,1-2.73-3.8,15.33,15.33,0,0,1-.93-5.59c0-4.21.93-7.32,2.76-9.32s4.63-3,8.42-3H130V7.49H119.24A4.78,4.78,0,0,0,115,9.42c-.86,1.28-1.35,3.28-1.35,6.08,0,2.62.45,4.49,1.31,5.63a5,5,0,0,0,4.32,1.8h5.63V17.3h-6.69ZM58.66,3.42h2l-2,3Zm10.53,0H66.67l-8,19V27.2h3.25L64,21.54H69.2V17.29H65.68l3.45-9.18.07.21V3.42Zm-31.73,0h5.63l5.84,9.08,6-9.08h3.76v3L51.51,16.71v10.5h-5V16.71l-9-13.29Zm21.2,19-2,4.83h2Z"/><path class="cls-3" d="M144.39,3.42h7.32l6.08,18.23,6-18.23h7.35V27.21h-4.94l.41-18.51-6.11,18.51h-5.28L149,8.46l.48,18.75h-5.08V3.42Zm37,23.79h-5.25V3.42h5.25Zm4.94-23.79h6.28l9.77,17.09-.24-17.09h5.15V27.21h-5.84l-10.25-18,.24,18h-5.11ZM220.73,17.3V13.09h11.84V27.21H221.8a15.7,15.7,0,0,1-4.56-.48,9.81,9.81,0,0,1-3-1.59,8.76,8.76,0,0,1-2.73-3.8,14.72,14.72,0,0,1-.93-5.59c0-4.21.93-7.32,2.76-9.32s4.66-3,8.46-3h10.77V7.5H221.79a4.78,4.78,0,0,0-4.28,1.93c-.9,1.28-1.35,3.28-1.35,6.08,0,2.62.45,4.49,1.35,5.63s2.28,1.8,4.28,1.8h5.63V17.31h-6.69Z"/><path class="cls-3" d="M27.14,0H0V30.55H27.14Z"/><path class="cls-4" d="M9.49,22.23l-2-2.9v7.88H3.42V6.35l6.07,8.7Z"/><path class="cls-4" d="M19.68,19.33l-2,2.94,0-7.22,6.07-8.73V27.21H19.68Z"/><path class="cls-4" d="M3.42,3.42H8.18l5.42,7.77L19,3.45h4.77L16,14.57V27.21H11.22V14.57Z"/></g></g></g></svg>