<?xml version="1.0" standalone="no"?>
<!DOCTYPE svg PUBLIC "-//W3C//DTD SVG 20010904//EN"
 "http://www.w3.org/TR/2001/REC-SVG-20010904/DTD/svg10.dtd">
<svg version="1.0" xmlns="http://www.w3.org/2000/svg"
 width="233.000000pt" height="31.000000pt" viewBox="0 0 233.000000 31.000000"
 preserveAspectRatio="xMidYMid meet">

<g transform="translate(0.000000,31.000000) scale(0.100000,-0.100000)"
fill="#000000" stroke="none">
<path d="M0 160 l0 -150 135 0 135 0 0 150 0 150 -135 0 -135 0 0 -150z m109
80 l29 -40 26 40 c19 29 33 40 52 40 28 0 28 0 -23 -71 -29 -40 -33 -54 -33
-108 0 -58 -1 -61 -25 -61 -24 0 -25 2 -25 63 0 55 -4 68 -35 111 -40 57 -42
66 -15 66 12 0 32 -16 49 -40z m-39 -42 c29 -39 44 -118 20 -103 -6 4 -10 -7
-10 -24 0 -26 -4 -31 -25 -31 l-25 0 0 100 c0 55 2 100 5 100 3 0 18 -19 35
-42z m170 -58 l0 -100 -25 0 c-21 0 -25 5 -25 31 0 17 -4 28 -10 24 -23 -14
-8 59 20 101 17 24 33 44 35 44 3 0 5 -45 5 -100z"/>
<path d="M424 206 c40 -56 46 -71 46 -115 0 -44 3 -51 20 -51 17 0 20 7 20 50
0 42 6 58 46 115 l46 65 -29 0 c-22 0 -34 -9 -53 -40 -14 -22 -28 -40 -32 -40
-4 0 -17 18 -29 40 -18 32 -28 40 -52 40 l-29 0 46 -64z"/>
<path d="M633 193 c-17 -43 -39 -95 -47 -115 -16 -38 -16 -38 8 -38 18 0 27 8
35 30 9 28 13 30 61 30 48 0 53 -2 63 -30 9 -23 18 -30 39 -30 l27 0 -35 83
c-20 45 -42 97 -49 115 -11 25 -20 32 -42 32 -26 0 -31 -7 -60 -77z m80 -13
l15 -40 -35 0 c-28 0 -34 3 -29 16 3 9 9 27 12 40 9 34 19 30 37 -16z"/>
<path d="M840 155 l0 -115 25 0 c25 0 25 1 25 88 l0 87 49 -85 c43 -75 52 -85
80 -88 l31 -3 0 115 0 116 -25 0 c-23 0 -24 -2 -27 -82 l-3 -81 -45 81 c-42
76 -47 82 -77 82 l-33 0 0 -115z"/>
<path d="M1115 246 c-30 -30 -40 -81 -25 -134 14 -55 47 -72 140 -72 l70 0 0
70 0 70 -60 0 c-53 0 -60 -2 -60 -20 0 -16 7 -20 35 -20 32 0 35 -2 35 -30 0
-29 -2 -30 -44 -30 -55 0 -71 18 -70 78 1 62 27 82 105 82 46 0 59 3 59 15 0
12 -16 15 -80 15 -72 0 -84 -3 -105 -24z"/>
<path d="M1450 155 c0 -108 1 -115 20 -115 17 0 19 8 22 88 l3 87 30 -87 c27
-80 32 -88 55 -88 24 0 28 8 54 85 15 47 30 85 33 85 3 0 4 -38 1 -85 -4 -84
-4 -85 19 -85 23 0 23 1 23 116 l0 115 -37 -3 c-36 -3 -37 -4 -62 -80 -14 -42
-28 -79 -32 -82 -3 -3 -17 33 -33 79 -27 85 -27 85 -62 85 l-34 0 0 -115z"/>
<path d="M1760 155 l0 -115 25 0 25 0 0 115 0 115 -25 0 -25 0 0 -115z"/>
<path d="M1860 155 l0 -115 25 0 c24 0 24 2 27 88 l3 87 49 -87 c44 -78 53
-88 78 -88 l28 0 0 115 0 115 -26 0 -27 0 5 -80 c3 -43 1 -77 -3 -74 -4 2 -26
38 -49 79 -39 71 -43 75 -76 75 l-34 0 0 -115z"/>
<path d="M2136 239 c-21 -25 -26 -41 -26 -86 0 -47 4 -59 29 -84 27 -27 35
-29 105 -29 l76 0 0 70 0 70 -55 0 c-48 0 -55 -2 -55 -20 0 -16 7 -20 35 -20
32 0 35 -2 35 -30 0 -29 -2 -30 -44 -30 -54 0 -76 24 -76 82 0 58 26 78 100
78 47 0 60 3 60 15 0 12 -15 15 -79 15 -76 0 -80 -1 -105 -31z"/>
</g>
</svg>
