<svg width="135" height="79" viewBox="0 0 135 79" fill="none" xmlns="http://www.w3.org/2000/svg">
<g clip-path="url(#clip0_251_1224)">
<path fill-rule="evenodd" clip-rule="evenodd" d="M14.5601 63.17L19.5701 78.04H22.1601H24.7501L29.7501 63.17L24.7301 63.16L22.1601 73.18L19.5901 63.16L14.5601 63.17Z" fill="#4D4D4D"/>
<path fill-rule="evenodd" clip-rule="evenodd" d="M12.98 74.48H4.76V71.79H12.98V68.89H4.76V66.62H12.98V63.16H0V77.94H12.98V74.48Z" fill="#4D4D4D"/>
<path fill-rule="evenodd" clip-rule="evenodd" d="M44.32 74.48H36.1V71.79H44.32V68.89H36.1V66.62H44.32V63.16H31.34V77.94H44.32V74.48Z" fill="#4D4D4D"/>
<path fill-rule="evenodd" clip-rule="evenodd" d="M103.97 74.48H95.76V71.79H103.97V68.89H95.76V66.62H103.97V63.16H91V77.94H103.97V74.48Z" fill="#4D4D4D"/>
<path fill-rule="evenodd" clip-rule="evenodd" d="M118.54 74.48H110.32V71.79H118.54V68.89H110.32V66.62H118.54V63.16H105.56V77.94H118.54V74.48Z" fill="#4D4D4D"/>
<path fill-rule="evenodd" clip-rule="evenodd" d="M124.88 63.16H120.12V77.94H124.88V70.22L129.34 77.94H134.11V63.16H129.34V70.76L124.88 63.16Z" fill="#4D4D4D"/>
<path fill-rule="evenodd" clip-rule="evenodd" d="M50.53 72.74V77.94H45.9V63.17H57.42C58.41 63.17 59.22 63.98 59.22 64.97V70.04C59.22 70.63 58.74 71.11 58.15 71.11H58.18C58.75 71.11 59.22 71.58 59.22 72.15V77.86C59.22 77.86 59.18 77.94 59.14 77.94H54.78C54.78 77.94 54.7 77.9 54.7 77.86V74.05C54.7 73.33 54.11 72.74 53.39 72.74H50.54H50.53ZM50.53 66.75H54.02C54.37 66.75 54.66 67.04 54.66 67.39V68.88C54.66 69.23 54.37 69.52 54.02 69.52H50.53V66.75Z" fill="#4D4D4D"/>
<path fill-rule="evenodd" clip-rule="evenodd" d="M62.6 63.16H72.7201C73.7101 63.16 74.52 63.97 74.52 64.96V67.7H69.99V67.4C69.99 67 69.66 66.68 69.27 66.68H66.02C65.62 66.68 65.3001 67.01 65.3001 67.4V73.7C65.3001 74.1 65.63 74.42 66.02 74.42H69.27C69.67 74.42 69.99 74.09 69.99 73.7V72.45H67.31V69.46H74.52V76.15C74.52 77.14 73.7101 77.95 72.7201 77.95H62.6C61.61 77.95 60.8 77.14 60.8 76.15V64.97C60.8 63.98 61.61 63.17 62.6 63.17V63.16Z" fill="#4D4D4D"/>
<path fill-rule="evenodd" clip-rule="evenodd" d="M80.73 72.74V77.94H76.1V63.17H87.62C88.61 63.17 89.42 63.98 89.42 64.97V70.04C89.42 70.63 88.94 71.11 88.35 71.11H88.38C88.95 71.11 89.42 71.58 89.42 72.15V77.86C89.42 77.86 89.38 77.94 89.34 77.94H84.98C84.98 77.94 84.9 77.9 84.9 77.86V74.05C84.9 73.33 84.31 72.74 83.59 72.74H80.74H80.73ZM80.73 66.75H84.22C84.57 66.75 84.86 67.04 84.86 67.39V68.88C84.86 69.23 84.57 69.52 84.22 69.52H80.73V66.75Z" fill="#4D4D4D"/>
<path d="M67.39 0.330017H66.73V9.31002H67.39V0.330017Z" fill="#4D4D4D"/>
<path d="M67.39 53.98H66.73V56.21H67.39V53.98Z" fill="#4D4D4D"/>
<path d="M51.6499 27.89H39.1599V28.55H51.6499V27.89Z" fill="#4D4D4D"/>
<path d="M94.9499 27.89H82.4399V28.55H94.9499V27.89Z" fill="#4D4D4D"/>
<path d="M66.0799 11.32C61.5999 11.1 58.4399 9.22 56.5499 7.63C54.3699 5.8 53.3499 3.95 53.3399 3.94L52.7599 4.25C52.7999 4.33 53.8399 6.21 56.0999 8.11C58.0699 9.77 61.3599 11.74 66.0399 11.97L66.0699 11.31L66.0799 11.32Z" fill="#4D4D4D"/>
<path d="M80.7699 3.92999C80.7699 3.92999 79.6399 5.81999 77.3699 7.65999C75.4499 9.21999 72.3299 11.04 68.0199 11.31L68.1499 11.96C72.5899 11.66 75.8199 9.76999 77.7999 8.15999C80.1499 6.24999 81.2799 4.34999 81.3299 4.26999L80.7599 3.93999L80.7699 3.92999Z" fill="#4D4D4D"/>
<path d="M61.9099 20.8C62.7099 20.87 63.5399 20.92 64.3799 20.94L64.6099 20.29C63.2399 20.26 61.9199 20.16 60.6699 20.02L61.9199 20.81L61.9099 20.8Z" fill="#4D4D4D"/>
<path d="M73.8999 19.79C72.5999 19.94 71.1599 20.06 69.5599 20.15L69.7099 20.8C70.7299 20.74 71.6799 20.67 72.5699 20.59L73.8899 19.79H73.8999Z" fill="#4D4D4D"/>
<path d="M57.8699 19.59C54.6499 19 51.9099 18.12 49.8399 17.32C45.6799 15.7 43.2099 13.99 43.1799 13.98L42.7999 14.52C42.8999 14.59 45.3399 16.28 49.5699 17.93C51.7899 18.8 54.7499 19.74 58.2599 20.34L57.8599 19.6L57.8699 19.59Z" fill="#4D4D4D"/>
<path d="M90.9699 13.95C90.1399 14.36 89.3799 14.75 88.6399 15.13C84.8399 17.07 81.9399 18.56 76.4099 19.45L76.0399 20.17C81.9599 19.28 84.9699 17.74 88.9399 15.71C89.6799 15.33 90.4399 14.94 91.2599 14.54L90.9699 13.95Z" fill="#4D4D4D"/>
<path d="M58.0499 36.26L58.5899 35.51C58.2899 33.85 58.0599 32.12 57.9499 30.32L57.2699 30.18C57.3899 32.3 57.6699 34.33 58.0499 36.26Z" fill="#4D4D4D"/>
<path d="M57.22 26.38L57.9 26.14C57.97 24.26 58.17 22.47 58.45 20.77L57.94 19.84C57.56 21.87 57.3 24.06 57.22 26.38Z" fill="#4D4D4D"/>
<path d="M66.0299 44.47C64.1299 44.56 62.4599 44.95 61.0099 45.48L62.1299 45.8C63.3299 45.44 64.6799 45.19 66.1699 45.12L66.0299 44.47Z" fill="#4D4D4D"/>
<path d="M68.0898 45.14C69.5798 45.24 70.9298 45.52 72.1298 45.92L72.9298 45.51C71.5398 45 69.9598 44.62 68.1798 44.5L68.0798 45.15L68.0898 45.14Z" fill="#4D4D4D"/>
<path d="M87.0099 8.27C81.6799 2.94 74.59 0 67.0499 0C59.5099 0 52.4199 2.94 47.0899 8.27C41.7599 13.6 38.8199 20.69 38.8199 28.23C38.8199 35.77 41.7599 42.86 47.0899 48.19C52.4199 53.52 59.5099 56.46 67.0499 56.46C74.59 56.46 81.6799 53.52 87.0099 48.19C92.34 42.86 95.2799 35.77 95.2799 28.23C95.2799 20.69 92.34 13.6 87.0099 8.27ZM81.1799 51.89L80.0799 50.53L79.6699 50.86L80.7199 52.16C76.6899 54.47 72.02 55.8 67.0499 55.8C62.08 55.8 57.4599 54.49 53.4399 52.2L54.2699 51.13L53.8499 50.81L52.9999 51.91L53.1999 52.06C44.9999 47.28 39.4799 38.39 39.4799 28.23C39.4799 13.03 51.8499 0.66 67.0499 0.66C82.25 0.66 94.6199 13.03 94.6199 28.23C94.6199 38.27 89.2299 47.07 81.1799 51.89Z" fill="#4D4D4D"/>
<path d="M58.3099 37.51C58.9799 40.47 59.8599 43.13 60.7599 45.39L61.5899 45.64C60.6099 43.25 59.6099 40.32 58.8899 37.01L58.3099 37.51Z" fill="#4D4D4D"/>
<path d="M68.1299 53.98C67.6299 54.72 67.2399 55.19 67.0299 55.39C66.8199 55.18 66.4499 54.69 65.9599 53.98H65.1599C66.5699 56.12 66.8799 56.12 67.0099 56.12C67.1399 56.12 67.5199 56.12 68.9299 53.98H68.1199H68.1299Z" fill="#4D4D4D"/>
<path d="M48.18 29.6H48.84C48.8 29.14 48.78 28.68 48.77 28.22C48.54 18.33 54.33 10.89 57.8 7.33002C61.53 3.51002 65.44 1.23002 67.06 1.23002C68.49 1.23002 72.67 3.51002 76.79 7.80002C80.15 11.3 85.74 18.6 85.36 28.22C85.34 28.69 85.31 29.15 85.26 29.61H85.92C85.96 29.16 85.99 28.71 86.01 28.25C86.4 18.38 80.69 10.92 77.26 7.35002C73.24 3.17002 68.84 0.580017 67.06 0.580017C65.28 0.580017 61.33 2.79002 57.33 6.88002C53.79 10.51 47.87 18.11 48.11 28.24C48.12 28.7 48.15 29.16 48.18 29.61V29.6Z" fill="#4D4D4D"/>
<path d="M71.43 53.22C69.46 54.7 67.86 55.47 67.05 55.47C66.24 55.47 64.65 54.66 62.64 53.12L62.58 53.88C64.5 55.3 66.14 56.12 67.05 56.12C68.05 56.12 69.74 55.31 71.73 53.82L71.43 53.21V53.22Z" fill="#4D4D4D"/>
<path d="M75.9899 18.78C74.0399 9.10001 69.3299 2.58001 67.7999 1.06001C67.3899 0.650007 67.1899 0.570007 67.0199 0.570007C66.8499 0.570007 66.6999 0.670007 66.4399 0.920007C65.7099 1.64001 63.3299 4.63001 61.0699 9.76001C60.0499 12.08 58.9299 15.16 58.1499 18.8L58.7399 19.27C59.5799 15.12 60.9099 11.64 62.1099 9.08001C64.2099 4.59001 66.4499 1.76001 67.0399 1.27001C67.6399 1.71001 69.9099 4.43001 72.0299 8.95001C73.2199 11.48 74.5399 14.94 75.3599 19.1L75.9899 18.78Z" fill="#4D4D4D"/>
<path d="M76.38 37.13C78.59 37.48 80.39 37.93 81.99 38.47L82.31 37.88C80.57 37.29 78.6 36.79 76.11 36.42L76.37 37.13H76.38Z" fill="#4D4D4D"/>
<path d="M64.4099 35.65C63.4399 35.68 62.4899 35.74 61.5699 35.82L60.2899 36.62C61.6899 36.44 63.1699 36.33 64.7099 36.3L64.4099 35.65Z" fill="#4D4D4D"/>
<path d="M58.3199 36.25C55.8899 36.66 53.7299 37.24 51.8899 37.84L52.2299 38.42C53.8699 37.89 55.7699 37.38 57.8799 37L58.3299 36.26L58.3199 36.25Z" fill="#4D4D4D"/>
<path d="M89.1399 40.98L88.7499 41.52C89.4499 41.88 90.1799 42.25 90.9699 42.64L91.2599 42.05C90.5099 41.68 89.8199 41.32 89.1399 40.98Z" fill="#4D4D4D"/>
<path d="M74.01 36.71L72.72 36.02C71.79 35.93 70.8 35.86 69.74 35.79L69.61 36.44C71.38 36.54 72.96 36.68 74.37 36.85L74 36.71H74.01Z" fill="#4D4D4D"/>
<path d="M44.8399 40.85C43.5699 41.54 42.8599 42.03 42.8099 42.07L43.1899 42.61C43.1899 42.61 43.8999 42.12 45.1699 41.43L44.8399 40.86V40.85Z" fill="#4D4D4D"/>
<path d="M76.0199 35.94C76.3699 34.09 76.6299 32.14 76.7599 30.1L76.0699 30.33C75.9599 31.96 75.7599 33.55 75.4999 35.06C75.6399 35.29 75.8299 35.61 76.0199 35.94Z" fill="#4D4D4D"/>
<path d="M76.8299 26.24C76.7699 24.05 76.5499 21.97 76.2199 20.01L75.6799 20.93C75.9299 22.53 76.0899 24.22 76.1499 25.99L76.8299 26.25V26.24Z" fill="#4D4D4D"/>
<path d="M75.1299 36.94C74.3999 40.36 73.3799 43.38 72.3899 45.81L73.2599 45.43C74.1499 43.15 75.0399 40.45 75.7099 37.43L75.1299 36.95V36.94Z" fill="#4D4D4D"/>
<path d="M67.0499 9.91998L64.7099 22.58L58.8199 19.79L61.5899 25.73L52.7599 28.22L61.5899 30.45L58.8899 36.32L64.6099 33.66L67.0499 46.33L69.5599 33.6L75.2199 36.42L72.3899 30.52L81.3399 28.22L72.5599 25.91L75.4999 20.01L69.3499 22.77L67.0499 9.91998Z" fill="#4D4D4D"/>
<path fill-rule="evenodd" clip-rule="evenodd" d="M49.9799 36.42L46.1599 41.1L46.6899 41.94L47.2199 42.79L53.0899 41.37L52.0599 39.73L48.2699 40.95L51.0099 38.06L49.9799 36.42Z" fill="#4D4D4D"/>
<path fill-rule="evenodd" clip-rule="evenodd" d="M45.1899 36.15L44.7799 32.91L45.8499 32.77L46.2499 36.01L47.3899 35.87L46.9899 32.63L47.8899 32.52L48.2899 35.76L49.6499 35.59L49.0199 30.47L43.1899 31.2L43.8299 36.32L45.1899 36.15Z" fill="#4D4D4D"/>
<path fill-rule="evenodd" clip-rule="evenodd" d="M54.8699 48.78L52.3699 46.67L53.0599 45.85L55.5499 47.96L56.2999 47.08L53.7999 44.97L54.3799 44.28L56.8799 46.38L57.7599 45.33L53.8199 42.01L50.0399 46.5L53.9799 49.83L54.8699 48.78Z" fill="#4D4D4D"/>
<path fill-rule="evenodd" clip-rule="evenodd" d="M83.3799 45.3L80.7899 47.3L80.1399 46.45L82.7199 44.45L82.0099 43.54L79.4299 45.54L78.8799 44.82L81.4599 42.82L80.6199 41.74L76.5399 44.9L80.1399 49.54L84.2199 46.38L83.3799 45.3Z" fill="#4D4D4D"/>
<path fill-rule="evenodd" clip-rule="evenodd" d="M87.72 38.75L86.2 41.64L85.25 41.14L86.77 38.25L85.75 37.71L84.23 40.61L83.43 40.19L84.95 37.3L83.73 36.66L81.34 41.23L86.54 43.95L88.93 39.38L87.72 38.75Z" fill="#4D4D4D"/>
<path fill-rule="evenodd" clip-rule="evenodd" d="M84.3799 33.94L84.0699 35.81L89.8699 36.76L90.1799 34.89L87.1499 34.39L90.4699 33.14L90.7699 31.27L84.9799 30.32L84.6699 32.19L87.6499 32.67L84.3799 33.94Z" fill="#4D4D4D"/>
<path fill-rule="evenodd" clip-rule="evenodd" d="M59.1299 49.82L58.5699 51.82L56.7799 51.32L57.5199 48.69L57.5499 48.59L58.3799 45.63L62.8199 46.87C63.1999 46.98 63.4299 47.38 63.3199 47.76L62.7699 49.72C62.7099 49.95 62.4699 50.08 62.2399 50.02H62.2499C62.4699 50.09 62.5999 50.32 62.5399 50.54L61.9199 52.74C61.9199 52.74 61.8999 52.77 61.8799 52.76L60.1999 52.29C60.1999 52.29 60.1699 52.27 60.1799 52.25L60.3199 51.76L60.4499 51.31L60.5999 50.78C60.6799 50.5 60.5099 50.21 60.2399 50.13L59.5799 49.95L59.2599 49.86L59.1399 49.83L59.1299 49.82ZM59.7799 47.51L61.1299 47.89C61.2699 47.93 61.3499 48.07 61.3099 48.21L61.1499 48.79C61.1099 48.93 60.9699 49.01 60.8299 48.97L59.4799 48.59L59.7799 47.52V47.51Z" fill="#4D4D4D"/>
<path fill-rule="evenodd" clip-rule="evenodd" d="M73.6499 50.19L74.3099 52.16L72.5499 52.75L71.6799 50.16L71.6499 50.06L70.6699 47.14L75.0399 45.67C75.4099 45.54 75.8199 45.75 75.9499 46.12L76.5999 48.05C76.6799 48.27 76.5499 48.52 76.3299 48.59H76.3399C76.5599 48.51 76.7899 48.63 76.8699 48.85L77.5999 51.02C77.5999 51.02 77.5999 51.05 77.5799 51.06L75.9299 51.62C75.9299 51.62 75.8999 51.62 75.8899 51.6L75.7299 51.12L75.5799 50.68L75.4099 50.16C75.3199 49.89 75.0199 49.74 74.7499 49.83L74.0999 50.05L73.7899 50.15L73.6699 50.19H73.6499ZM72.8899 47.92L74.2099 47.48C74.3399 47.44 74.4899 47.51 74.5299 47.64L74.7199 48.21C74.7599 48.34 74.6899 48.49 74.5599 48.53L73.2399 48.97L72.8899 47.92Z" fill="#4D4D4D"/>
<path fill-rule="evenodd" clip-rule="evenodd" d="M65.08 47.11H69.11C69.5 47.11 69.82 47.43 69.82 47.82V48.91H68.02V48.79C68.02 48.63 67.89 48.5 67.73 48.5H66.44C66.28 48.5 66.15 48.63 66.15 48.79V51.29C66.15 51.45 66.28 51.58 66.44 51.58H67.73C67.89 51.58 68.02 51.45 68.02 51.29V50.79H66.95V49.6H69.82V52.26C69.82 52.65 69.5 52.97 69.11 52.97H65.08C64.69 52.97 64.37 52.65 64.37 52.26V47.81C64.37 47.42 64.69 47.1 65.08 47.1V47.11Z" fill="#4D4D4D"/>
</g>
<defs>
<clipPath id="clip0_251_1224">
<rect width="134.11" height="78.04" fill="white"/>
</clipPath>
</defs>
</svg>
