<svg viewBox="0 0 127 31" fill="none" xmlns="http://www.w3.org/2000/svg">
<path d="M73.9138 30.48C76.3222 30.48 78.2952 29.3446 79.6939 27.2492L79.9624 30.0462H84.7144V0.193848H79.6013V10.9846C78.3322 9.05539 76.3963 8.02154 74.1546 8.02154C69.2082 8.02154 65.7252 12.1846 65.7252 19.4123C65.7252 26.64 69.1063 30.4708 73.9138 30.4708V30.48ZM105.473 28.6154V24.4523C103.87 25.5138 101.193 26.4831 98.6831 26.4831C94.9408 26.4831 93.505 24.72 93.3012 21.12H105.667V18.3877C105.667 10.8554 102.36 8.03077 97.2102 8.03077C90.9576 8.03077 87.9842 12.7938 87.9842 19.3292C87.9842 26.8615 91.6988 30.4892 98.2477 30.4892C101.527 30.4892 103.935 29.6585 105.473 28.6246V28.6154ZM50.2097 14.5569C51.1823 13.3938 52.6459 12.4246 54.5262 12.4246C56.4066 12.4246 57.1385 13.1908 57.1385 14.8246V30.0831H62.2516V14.2892C62.2516 9.98769 60.5473 8.09539 56.3326 8.09539C53.2943 8.09539 51.451 9.23077 50.4135 10.2277H50.1449L50.0152 8.42769H45.0038V30.0462H50.117L50.2189 14.5569H50.2097ZM40.8818 15.3231C40.8818 10.0892 38.2048 8.09539 32.7582 8.09539C29.3772 8.09539 26.6724 9.52615 25.1347 10.6246V15.0554C26.7743 13.7262 29.2845 12.1938 32.1561 12.1938C34.5922 12.1938 35.7316 13.0615 35.7316 15.3877V16.7538H34.9257C27.0707 16.7538 23.5878 19.2831 23.5878 23.8154C23.5878 27.9785 26.2648 30.3785 30.2387 30.3785C33.2491 30.3785 34.5552 29.3815 35.5556 28.3477H35.7594C35.7964 28.9108 35.9632 29.6123 36.1299 30.0462H41.1412C40.9745 28.2831 40.8726 26.5108 40.8726 24.7477V15.3231H40.8818ZM121.22 30.0831H127L119.914 18.96L126.027 8.50154H120.914L117.2 15.0277L113.05 8.50154H107.233L113.782 18.8585L106.964 30.12H112.179L116.524 22.8277L121.201 30.0923L121.22 30.0831ZM75.4514 12.0554C78.2303 12.0554 79.6013 14.2523 79.6013 19.2185C79.6013 24.1846 78.1284 26.4462 75.2569 26.4462C72.3853 26.4462 71.0792 24.3138 71.0792 19.3846C71.0422 14.2892 72.515 12.0554 75.4606 12.0554H75.4514ZM97.1454 12.0554C99.6834 12.0554 100.452 14.1508 100.452 16.8554V17.2892H93.3012C93.4031 13.8554 94.6721 12.0554 97.1454 12.0554ZM35.7594 24.9138C35.1202 25.8831 33.8883 26.6123 32.082 26.6123C29.9422 26.6123 28.8399 25.3754 28.8399 23.4831C28.8399 20.9815 30.6092 20.1138 34.9906 20.1138H35.7224L35.7594 24.9138Z" fill="#4D4D4D"/>
<path d="M16.0106 24.9877V30.0554H10.7956V21.5261L0.967529 0.203064H6.41418L14.0746 16.8646C15.5474 20.0584 16.0106 21.1661 16.0106 24.9969V24.9877ZM25.8109 0.203064L19.4286 14.6308H14.1117L20.531 0.203064H25.8109Z" fill="#4D4D4D"/>
</svg>
