<svg viewBox="0 0 100 43" fill="none" xmlns="http://www.w3.org/2000/svg">
<path fill-rule="evenodd" clip-rule="evenodd" d="M99.186 0.150757H0.386719V42.9538H99.186V0.150757Z" fill="#4D4D4D"/>
<path fill-rule="evenodd" clip-rule="evenodd" d="M8.20459 14.2831H15.4112L17.9863 20.9754L20.6634 14.2831H27.8422V28.84H23.961V18.5939L20.3114 28.84H15.578L12.0025 18.5939V28.84H8.20459V14.2831Z" fill="white"/>
<path fill-rule="evenodd" clip-rule="evenodd" d="M78.7702 14.2738C77.1955 14.2738 75.9172 15.5477 75.9172 17.1261V26.0338C75.9172 27.603 77.4271 28.8307 79.0111 28.8307H88.3482C89.9229 28.8307 91.3679 27.5569 91.3679 25.9784V17.1169C91.3679 15.5477 90.0896 14.2646 88.5149 14.2646H78.7702V14.2738ZM81.1693 18.1692H86.2084C86.5789 18.1692 86.8753 18.4646 86.8753 18.8338V24.1969C86.8753 24.5661 86.5789 24.8615 86.2084 24.8615H81.1693C80.7988 24.8615 80.5024 24.5661 80.5024 24.1969V18.8338C80.5024 18.4646 80.7988 18.1692 81.1693 18.1692Z" fill="white"/>
<path fill-rule="evenodd" clip-rule="evenodd" d="M30.1302 14.2646H42.9595V17.3292H34.9192V19.8861H42.9595V22.9507H34.9192V25.6369H42.9595V28.8215H30.1302V14.2646Z" fill="white"/>
<path fill-rule="evenodd" clip-rule="evenodd" d="M44.386 14.2646H57.5858V17.3292H53.3989V28.8215H48.4525V17.3292H44.386V14.2646Z" fill="white"/>
<path fill-rule="evenodd" clip-rule="evenodd" d="M59.0216 14.2646V28.803H64.0143V23.2H66.3209L69.2572 28.8215H74.5464C74.5464 28.8215 71.4711 23.7907 71.0913 23.2092C71.3599 23.2092 72.527 23.1354 73.2125 22.6184C73.935 22.0738 74.3889 21.2984 74.3889 20.6061L74.4167 17.3292C74.4167 17.043 74.3056 16.0277 73.8332 15.4C73.2311 14.6154 72.3789 14.2646 71.573 14.2646H59.0401H59.0216ZM64.0143 17.4215H69.6185C69.6926 17.4215 69.8871 17.4584 69.9612 17.4954C70.2576 17.6615 70.2113 18.2154 70.2113 18.7323C70.2113 19.0369 70.2113 19.7384 70.0816 19.8769C69.989 19.9877 69.6926 20.0154 69.4795 20.0154H64.0051V17.4215H64.0143Z" fill="white"/>
</svg>
