<svg viewBox="0 0 182 40" fill="none" xmlns="http://www.w3.org/2000/svg">
<path fill-rule="evenodd" clip-rule="evenodd" d="M55.3604 18.34V0.519996H60.1003L66.1104 13.75L72.0303 0.519996H76.5704V18.34H72.6604V8.13L68.1604 18.34H63.9804L59.4104 8.2V18.34H55.3604ZM92.3004 11.44L89.0603 4.08L85.9104 11.44H92.3004ZM82.9404 18.34H78.3503L86.2504 0.519996H91.9203L99.8803 18.34H95.3403L93.7803 14.77L84.4704 14.8L82.9503 18.34H82.9404ZM101.74 18.34V0.519996H118.76V4.08H105.86V7.65H116.92V11.19H105.86V14.77H118.76V18.34H101.74ZM126.24 8.68H135.17V4.07H126.24V8.68ZM122.07 18.34V0.519996H136.63C136.63 0.519996 137.58 0.419996 138.57 1.38C139.46 2.25 139.32 3.52 139.32 3.52V9.51C139.32 9.51 139.49 10.61 138.44 11.55C137.42 12.46 135.95 12.26 135.95 12.26L139.35 18.35H134.89L131.53 12.26H126.24V18.35H122.07V18.34ZM146.81 18.34H145.4C145.4 18.34 144.16 18.32 143.46 17.57C142.64 16.71 142.66 15.72 142.66 15.72V13.39H146.81V14.77H155.6V11.18H145.52C145.52 11.18 144.27 11.31 143.51 10.52C142.66 9.65 142.74 8.59 142.74 8.59V3.25C142.74 3.25 142.74 2.35 143.34 1.55C144.2 0.399996 145.54 0.519996 145.54 0.519996H157.08C157.08 0.519996 158.02 0.469996 158.94 1.36C159.95 2.33 159.72 3.37 159.72 3.37V5.49H155.6V4.08H146.81V7.65H156.88C156.88 7.65 158.07 7.56 158.88 8.5C159.72 9.45 159.72 10.52 159.72 10.52V15.55C159.72 15.55 159.85 16.54 159.06 17.44C158.16 18.46 156.95 18.35 156.95 18.35H146.81V18.34ZM163.66 18.34V0.519996H167.88V7.65L175.92 0.519996H181.64L172.04 8.8L181.99 18.34H176.07L167.88 10.22V18.34H163.66Z" fill="#4D4D4D"/>
<path fill-rule="evenodd" clip-rule="evenodd" d="M33.33 0C35.06 0.06 36.75 1.01 37.49 2.65C37.76 3.26 37.9 3.94 37.91 4.67V36.19C37.76 37.67 36.66 39.16 35.22 39.66C34.56 39.94 33.77 39.97 32.99 39.97H5.93C3.65 40.16 1.39 39.48 0.41 37.37C0.19 36.9 0.04 36.42 0 35.89V4.27C0.08 2.6 1.22 1.01 2.76 0.37C3.49 0 4.37 0.08 5.21 0H33.33Z" fill="#4D4D4D"/>
<path fill-rule="evenodd" clip-rule="evenodd" d="M21.7502 14.45L32.4102 9.42001C32.4102 9.42001 32.4802 9.46001 32.5002 9.47001L25.1502 18.68L35.9102 23.88C35.9102 23.88 36.0202 23.95 35.9402 24.01H24.1302L26.8402 35.77L26.7602 35.84L19.0202 26.39H18.9302L11.2902 35.84C11.2402 35.87 11.2102 35.87 11.1802 35.84L13.8302 24.06L2.04023 24.03C2.04023 24.03 1.99023 23.96 1.99023 23.93L12.7102 18.77L12.7802 18.69L5.38023 9.49001C5.36023 9.44001 5.41023 9.41001 5.44023 9.37001L16.1002 14.39L18.9102 2.95001H18.9702L21.7402 14.43L21.7502 14.45Z" fill="white"/>
<path fill-rule="evenodd" clip-rule="evenodd" d="M93.0004 39.2V25.09H106.38V26.26H94.6804V31.56H104.7V32.71H94.6804V38.03H106.38V39.2H93.0004ZM87.3503 39.2C86.4203 38.1 79.5804 30.04 78.4004 28.67L76.5804 26.54V39.2H74.9304V25.09H77.2904C78.7604 26.81 87.9004 37.56 87.9004 37.56V25.09H89.5504V39.2H87.3503ZM69.3004 39.2V25.09H70.9704V39.2H69.3004ZM55.3604 39.2V25.09H57.0303V38.03H67.6804V39.2H55.3604Z" fill="#4D4D4D"/>
</svg>
