<svg width="101" height="65" viewBox="0 0 101 65" fill="none" xmlns="http://www.w3.org/2000/svg">
<path d="M89.94 36.02C82.9 36.02 80.39 31.83 80.39 27.91C80.39 22.84 84.15 19.81 90.46 19.81C97.1 19.81 100.78 22.63 100.78 27.74C100.78 32.85 97.41 35.8 90.47 36H89.94V36.02ZM90.45 23.04C86.82 23.04 86.06 25.59 86.06 27.77C86.06 30.98 87.53 32.48 90.65 32.48C93.77 32.48 95.24 30.92 95.24 27.71C95.24 24.17 94.06 23.04 90.4 23.04H90.45Z" fill="#4D4D4D"/>
<path d="M69.5 35.39V35.36C62.31 34.97 60.78 31.1 60.78 27.9C60.78 25.74 61.43 24 62.72 22.74C64.29 21.21 66.77 20.43 70.1 20.43H78.09V23.49H70.78C69.35 23.49 68.28 23.83 67.63 24.51C66.98 25.19 66.64 26.25 66.68 27.7V27.84C66.68 29.12 66.68 31.79 70.98 32.1L78.09 32.19V35.38H69.5V35.39Z" fill="#4D4D4D"/>
<path d="M42.87 35.19V32.13H50.81C51.32 32.13 52.25 32.05 52.74 31.55C52.97 31.3 53.08 30.97 53.05 30.64C53.02 29.62 52.39 29.14 51.06 29.14H47.63C45.66 29.09 44.28 28.66 43.42 27.8C42.69 27.07 42.35 26.09 42.35 24.7C42.35 21.67 44.16 20.25 48.05 20.25H57.83V23.31H49.27C48.8 23.25 48.33 23.37 47.94 23.63C47.69 23.93 47.57 24.31 47.6 24.7C47.56 25.05 47.66 25.4 47.89 25.68C48.25 26.04 48.97 26.07 49.74 26.07H52.23C55.11 26.07 56.68 27.01 57.48 27.8C58.27 28.55 58.71 29.59 58.71 30.68C58.78 31.85 58.36 32.99 57.57 33.85C56.69 34.73 55.29 35.18 53.42 35.18H42.86V35.2L42.87 35.19Z" fill="#4D4D4D"/>
<path d="M28.99 36.07C21.95 36.07 19.44 31.88 19.44 27.96C19.44 22.89 23.2 19.86 29.51 19.86C36.15 19.86 39.84 22.68 39.84 27.79C39.84 32.9 36.47 35.85 29.53 36.05H28.99V36.07ZM29.5 23.09C25.87 23.09 25.11 25.64 25.11 27.82C25.11 31.03 26.58 32.53 29.7 32.53C32.82 32.53 34.29 30.97 34.29 27.76C34.29 24.22 33.11 23.09 29.45 23.09H29.5Z" fill="#4D4D4D"/>
<path d="M8.72 35.39V35.36C1.53 34.97 0 31.1 0 27.9C0 25.74 0.65 24 1.94 22.74C3.51 21.21 5.99 20.43 9.31 20.43H17.31V23.49H9.97C8.56 23.49 7.51 23.83 6.85 24.51C5.93 25.43 5.95 26.85 5.96 27.61V28.06C5.89 29.26 5.76 31.76 10.2 32.07L17.31 32.16V35.35L8.71 35.37L8.72 35.39Z" fill="#4D4D4D"/>
<path d="M35.02 39H32.33V47.95H35.02V39Z" fill="#4D4D4D"/>
<path d="M68.71 39.15H66.02V48.1H68.71V39.15Z" fill="#4D4D4D"/>
<path d="M52.68 48.04V39.09H58.41C61.63 39.29 62.31 40.72 62.31 41.89C62.31 43.53 60.68 44.68 58.34 44.68H55.36V48.05H52.67L52.68 48.04ZM57.89 43.21C58.91 43.21 59.53 42.73 59.53 41.88C59.53 41.12 58.83 40.55 57.89 40.55H55.36V43.2H57.89V43.21Z" fill="#4D4D4D"/>
<path d="M39.65 48.1V39.15H45.38C48.6 39.35 49.28 40.78 49.28 41.95C49.28 43.59 47.65 44.74 45.31 44.74H42.33V48.1H39.65ZM44.86 43.28C45.88 43.28 46.49 42.8 46.49 41.95C46.49 41.19 45.79 40.62 44.86 40.62H42.34V43.27H44.86V43.28Z" fill="#4D4D4D"/>
<path d="M91.09 47.96C89.75 48.01 88.44 47.55 87.43 46.65C86.57 45.79 86.12 44.6 86.17 43.39C86.17 40.44 88 38.83 91.31 38.83H96.45V41.07H90.46C89.57 41.2 88.88 42.2 88.88 43.4C88.88 44.72 89.69 45.8 90.68 45.8L93.94 45.73V43.56H96.45V47.97H91.09V47.96Z" fill="#4D4D4D"/>
<path d="M75.85 47.96H73.17V39H75.7L79.94 44.31V39.14H82.63V48.1H80.16L75.85 42.77V47.96Z" fill="#4D4D4D"/>
<path d="M21.19 44.44L21.2 47.96H18.51V39H21.2L21.17 42.44L25.18 42.51V39H27.87V47.96H25.18V44.44H21.19Z" fill="#4D4D4D"/>
<path d="M4.96998 48.1V46.19H10.12C11.5 46.14 11.5 45.6 11.5 45.31C11.5 44.8 10.99 44.47 10.11 44.44H7.88998C6.68998 44.41 5.84998 44.15 5.33998 43.63C4.86998 43.12 4.62998 42.43 4.68998 41.73C4.68998 39.9 5.82998 39.01 8.16998 39.01H14.08V40.93H8.97998C8.57998 40.89 8.17998 41.01 7.85998 41.26C7.71998 41.39 7.64998 41.58 7.66998 41.77C7.66998 42.43 8.41998 42.57 9.03998 42.57H11.73C12.54 42.56 13.32 42.85 13.92 43.38C14.43 43.91 14.7 44.64 14.66 45.38C14.7 46.09 14.44 46.79 13.96 47.3C13.25 47.9 12.33 48.2 11.41 48.13H10.17L5.00998 48.11L4.96998 48.1Z" fill="#4D4D4D"/>
<path d="M88.75 16.49C82.22 6.07003 71.65 0.0900269 59.75 0.0900269C47.85 0.0900269 36.15 6.37003 30.31 16.52L30.06 16.93H34.31L34.39 16.78C39.73 7.35003 48.78 2.15003 59.92 2.15003C69.94 2.15003 80.09 8.16003 84.63 16.77L84.71 16.92H89.02L88.74 16.48L88.75 16.49Z" fill="#4D4D4D"/>
<path d="M16.56 17H12.28L12.58 16.49C13.09 15.61 13.63 14.75 14.21 13.94C20.37 5.23 30.74 0 41.95 0C53.16 0 63.45 5.52 71.05 16.42L71.39 16.99H66.84L66.74 16.8C62.99 9.73 52.96 2.22 41.79 2.22C31.39 2.22 21.8 7.81 16.69 16.86L16.58 17.01L16.56 17Z" fill="#4D4D4D"/>
<path d="M68.8 50.9H64.85L64.76 51.01C59.21 58.19 50.61 62.35 41.54 62.24C32.25 62.24 24.42 58.36 18.91 51.01L18.82 50.89H14.8L15.16 51.36C21.57 59.55 31.43 64.31 41.83 64.22C52.35 64.22 61.84 59.8 68.24 51.69C68.4 51.49 68.63 51.14 68.8 50.89V50.9Z" fill="#4D4D4D"/>
<path d="M59.58 64.0801C49.22 64.1601 39.42 59.43 33.03 51.28L32.85 51.05H36.65L36.7 51.1101C42.37 58.1701 50.45 62.21 58.89 62.21H59.4C68.31 61.93 76.69 57.9001 82.47 51.1101L82.51 51.0601H86.3L86.12 51.2901C79.74 59.4401 69.94 64.17 59.58 64.09V64.0801Z" fill="#4D4D4D"/>
<path fill-rule="evenodd" clip-rule="evenodd" d="M32.5832 50.92H36.7109L36.8014 51.0286C42.4488 58.0605 50.4926 62.08 58.89 62.08H59.398C68.2699 61.8007 76.614 57.7879 82.3697 51.0273L82.4475 50.93H86.5668L86.2224 51.3702C79.8175 59.5519 69.9793 64.3003 59.579 64.22L59.45 64.219V64.2108C49.0981 64.2504 39.3156 59.5076 32.9277 51.3603L32.5832 50.92ZM59.71 63.9608C69.982 64.0004 79.689 59.2943 86.0176 51.2099C86.0176 51.2099 86.0176 51.2099 86.0176 51.2099L86.0332 51.19H82.5725L82.569 51.1944C76.7653 58.0123 68.3507 62.0588 59.4041 62.34L59.4 62.3401L58.89 62.34C50.4078 62.34 42.292 58.28 36.5994 51.1924L36.5891 51.18H33.1168L33.1323 51.1998C39.4975 59.3182 49.2594 64.0297 59.579 63.9501L59.71 63.949V63.9608Z" fill="#E31E26"/>
<path d="M59.58 64.23C49.17 64.32 39.32 59.56 32.91 51.37L32.55 50.9H36.71L36.8 51.01C42.42 58.03 50.49 62.06 58.87 62.06H59.38C68.27 61.8 76.64 57.78 82.4 51.01L82.49 50.91H86.65L86.29 51.38C79.87 59.58 70.01 64.33 59.59 64.24L59.58 64.23Z" fill="#4D4D4D"/>
</svg>
