<svg viewBox="0 0 190 41" fill="none" xmlns="http://www.w3.org/2000/svg">
<path d="M78.9301 8.24V32.4431H74.7154V13.4554H74.6598L67.129 32.4431H64.3223L56.6248 13.4554H56.5692V32.4431H52.688V8.24H58.7553L65.7303 26.1662H65.8415L73.2056 8.24H78.9394H78.9301ZM82.413 10.0862C82.413 9.41231 82.6353 8.84923 83.1448 8.40616C83.6542 7.95385 84.21 7.73231 84.8862 7.73231C85.618 7.73231 86.2386 7.95385 86.6832 8.40616C87.1279 8.85846 87.415 9.41231 87.415 10.0862C87.415 10.76 87.1927 11.3231 86.6832 11.7662C86.1738 12.2185 85.618 12.44 84.8862 12.44C84.1544 12.44 83.5894 12.2185 83.1448 11.7662C82.6909 11.2585 82.413 10.7046 82.413 10.0862ZM86.9704 15.0708V32.4338H82.8669V15.0708H86.9704ZM99.3921 29.4708C100.013 29.4708 100.689 29.36 101.411 29.0185C102.143 28.7415 102.819 28.3446 103.431 27.9015V31.7138C102.755 32.1015 102.023 32.3877 101.18 32.5538C100.337 32.72 99.4384 32.8308 98.4287 32.8308C95.8444 32.8308 93.7602 32.0462 92.1855 30.4215C90.5552 28.7969 89.7678 26.72 89.7678 24.2554C89.7678 21.4585 90.6108 19.16 92.241 17.3692C93.8713 15.5785 96.1778 14.6831 99.2161 14.6831C100.003 14.6831 100.791 14.7938 101.523 14.96C102.31 15.1262 102.931 15.4123 103.375 15.6338V19.5569C102.755 19.1046 102.078 18.7169 101.467 18.4954C100.791 18.2738 100.115 18.1077 99.4477 18.1077C97.8174 18.1077 96.5206 18.6154 95.5109 19.6769C94.5012 20.7385 94.0473 22.1415 94.0473 23.9323C94.0473 25.7231 94.5568 27.0708 95.5109 28.0215C96.465 28.9723 97.7618 29.48 99.3921 29.48V29.4708ZM115.074 14.7938C115.408 14.7938 115.695 14.7938 115.973 14.8492C116.251 14.9046 116.482 14.96 116.649 15.0154V19.16C116.427 18.9938 116.14 18.8277 115.695 18.7077C115.25 18.5877 114.796 18.4862 114.176 18.4862C113.166 18.4862 112.323 18.9385 111.647 19.7785C110.971 20.6185 110.582 21.9108 110.582 23.7015V32.4431H106.478V15.08H110.582V17.8215H110.637C111.026 16.8708 111.591 16.1415 112.323 15.5785C113.111 15.0708 114.009 14.7938 115.074 14.7938ZM116.871 24.0338C116.871 21.1723 117.714 18.8831 119.289 17.2031C120.919 15.5231 123.17 14.6831 126.033 14.6831C128.728 14.6831 130.868 15.4677 132.387 17.0923C133.906 18.7169 134.693 20.9046 134.693 23.6462C134.693 26.3877 133.85 28.6862 132.276 30.3662C130.645 32.0462 128.45 32.8862 125.643 32.8862C122.837 32.8862 120.808 32.1015 119.233 30.5323C117.659 28.9077 116.871 26.72 116.871 24.0338ZM121.142 23.8677C121.142 25.6585 121.531 27.0615 122.383 28.0123C123.235 28.9631 124.402 29.4708 125.921 29.4708C127.44 29.4708 128.561 29.0185 129.349 28.0123C130.136 27.0615 130.525 25.6585 130.525 23.7569C130.525 21.8554 130.136 20.5077 129.349 19.5015C128.561 18.5508 127.385 18.0431 125.977 18.0431C124.458 18.0431 123.337 18.5508 122.494 19.5569C121.54 20.6185 121.142 22.0215 121.142 23.8677ZM140.816 19.6677C140.816 20.2308 140.983 20.7292 141.381 21.0708C141.78 21.4123 142.558 21.8 143.855 22.3077C145.485 22.9815 146.661 23.7108 147.282 24.4954C147.958 25.3354 148.292 26.2862 148.292 27.4677C148.292 29.0923 147.671 30.3846 146.383 31.3908C145.142 32.3969 143.401 32.8492 141.27 32.8492C140.538 32.8492 139.751 32.7385 138.853 32.5723C137.954 32.4062 137.222 32.1846 136.602 31.8985V27.8646C137.333 28.3723 138.176 28.8154 139.019 29.1015C139.862 29.3877 140.65 29.5538 141.381 29.5538C142.28 29.5538 143.012 29.4431 143.401 29.1662C143.855 28.8892 144.077 28.4923 144.077 27.8738C144.077 27.3108 143.855 26.8677 143.401 26.4154C142.947 26.0277 142.048 25.5754 140.816 25.0677C139.297 24.4492 138.232 23.72 137.611 22.9354C136.991 22.1508 136.657 21.1446 136.657 19.9077C136.657 18.3385 137.278 17.0462 138.51 16.04C139.742 15.0338 141.381 14.5262 143.345 14.5262C143.966 14.5262 144.642 14.5815 145.364 14.7477C146.087 14.9138 146.772 15.08 147.273 15.2554V19.2338C146.708 18.9015 146.096 18.56 145.364 18.2831C144.633 18.0062 143.901 17.8954 143.225 17.8954C142.437 17.8954 141.817 18.0615 141.428 18.3477C141.039 18.7354 140.807 19.1323 140.807 19.6954L140.816 19.6677ZM150.033 24.0338C150.033 21.1723 150.876 18.8831 152.451 17.2031C154.081 15.5231 156.332 14.6831 159.194 14.6831C161.89 14.6831 164.029 15.4677 165.549 17.0923C167.068 18.7169 167.855 20.9046 167.855 23.6462C167.855 26.3877 167.012 28.6862 165.437 30.3662C163.807 32.0462 161.612 32.8862 158.805 32.8862C155.998 32.8862 153.97 32.1015 152.395 30.5323C150.876 28.9077 150.033 26.72 150.033 24.0338ZM154.303 23.8677C154.303 25.6585 154.692 27.0615 155.544 28.0123C156.397 28.9631 157.564 29.4708 159.083 29.4708C160.602 29.4708 161.723 29.0185 162.51 28.0123C163.298 27.0615 163.687 25.6585 163.687 23.7569C163.687 21.8554 163.298 20.5077 162.51 19.5015C161.723 18.5508 160.546 18.0431 159.139 18.0431C157.619 18.0431 156.499 18.5508 155.656 19.5569C154.757 20.6185 154.303 22.0215 154.303 23.8677ZM181.509 18.4308H175.377V32.4338H171.217V18.4308H168.29V15.0708H171.217V12.6615C171.217 10.8708 171.838 9.35693 173.014 8.17539C174.191 6.99385 175.71 6.44 177.572 6.44C178.081 6.44 178.526 6.49539 178.924 6.49539C179.323 6.49539 179.656 6.60616 179.934 6.71692V10.2431C179.823 10.1877 179.545 10.0769 179.202 9.96616C178.869 9.85539 178.47 9.8 178.026 9.8C177.183 9.8 176.507 10.0769 176.062 10.5846C175.617 11.0923 175.386 11.9323 175.386 12.9385V15.0154H181.518V11.0923L185.621 9.85539V15.0062H189.781V18.3662H185.621V26.4892C185.621 27.5508 185.844 28.28 186.186 28.7323C186.576 29.1846 187.196 29.4062 188.039 29.4062C188.261 29.4062 188.549 29.3508 188.882 29.24C189.215 29.1292 189.503 29.0185 189.725 28.8523V32.2123C189.447 32.3785 189.049 32.4892 188.428 32.6C187.808 32.7108 187.252 32.7662 186.631 32.7662C184.89 32.7662 183.593 32.3138 182.75 31.4185C181.907 30.5231 181.453 29.12 181.453 27.2738L181.509 18.4215V18.4308Z" fill="#4D4D4D"/>
<path d="M19.23 0.172302H0V19.3354H19.23V0.172302Z" fill="#4D4D4D"/>
<path d="M40.4793 0.172302H21.2493V19.3354H40.4793V0.172302Z" fill="#4D4D4D"/>
<path d="M19.23 21.3477H0V40.5108H19.23V21.3477Z" fill="#4D4D4D"/>
<path d="M40.4793 21.3477H21.2493V40.5108H40.4793V21.3477Z" fill="#4D4D4D"/>
</svg>
