<svg viewBox="0 0 116 33" fill="none" xmlns="http://www.w3.org/2000/svg">
<path d="M101.72 21.64V0.75H91.05V9.77C88.48 4.01 82.72 0 76.02 0C69.32 0 63.68 3.92 61.08 9.57C58.47 3.92 52.76 0 46.13 0C39.5 0 33.95 3.82 31.29 9.34C28.64 3.82 22.99 0 16.46 0C7.37 0 0 7.38 0 16.48C0 25.58 7.37 32.96 16.46 32.96C23 32.96 28.64 29.14 31.3 23.61C33.96 29.14 39.6 32.96 46.14 32.96C52.68 32.96 58.48 29.04 61.08 23.39C63.69 29.04 69.4 32.96 76.02 32.96C82.64 32.96 88.48 28.95 91.05 23.21V32.22H115.56V21.63H101.72V21.64ZM16.46 22.51C13.13 22.51 10.43 19.81 10.43 16.48C10.43 13.15 13.13 10.45 16.46 10.45C19.79 10.45 22.49 13.15 22.49 16.48C22.49 19.81 19.79 22.51 16.46 22.51ZM53.26 18.79C53.53 19.16 53.75 19.58 53.9 20.04C54.65 22.35 53.39 24.84 51.07 25.59C49.2 26.2 47.22 25.49 46.13 23.97C45.86 24.35 45.53 24.68 45.14 24.97C43.17 26.4 40.42 25.96 38.99 24C37.83 22.41 37.9 20.3 39.01 18.8C38.57 18.66 38.15 18.45 37.75 18.16C35.78 16.73 35.35 13.98 36.78 12.01C37.94 10.42 39.96 9.83 41.73 10.42C41.73 9.96 41.79 9.49 41.95 9.03C42.7 6.72 45.19 5.45 47.5 6.2C49.37 6.81 50.56 8.55 50.54 10.42C50.98 10.27 51.45 10.19 51.93 10.19C54.36 10.19 56.33 12.16 56.33 14.59C56.33 16.56 55.04 18.22 53.26 18.79ZM91.05 20.01H80.91C79.82 21.52 78.04 22.51 76.03 22.51C72.7 22.51 70 19.81 70 16.48C70 13.15 72.7 10.45 76.03 10.45C78.07 10.45 79.87 11.46 80.96 13.02H91.05V20.01Z" fill="#4D4D4D"/>
<path d="M53.6 14.05C53.46 13.62 53 13.38 52.57 13.52C52.2 13.64 51.98 13.99 52.01 14.36L48 15.66C47.94 15.53 47.87 15.4 47.78 15.29L49.17 14.04C49.32 14.12 49.49 14.14 49.66 14.08C49.99 13.97 50.17 13.61 50.07 13.28C49.96 12.95 49.6 12.77 49.27 12.87C48.94 12.98 48.76 13.34 48.86 13.67C48.86 13.69 48.88 13.71 48.88 13.73L47.5 14.97C47.39 14.87 47.28 14.79 47.15 14.72L47.91 13.01C48.07 13.01 48.24 12.97 48.37 12.85C48.63 12.62 48.65 12.22 48.42 11.96C48.19 11.7 47.79 11.68 47.53 11.91C47.27 12.14 47.25 12.54 47.48 12.8C47.5 12.82 47.51 12.83 47.53 12.85L46.77 14.55C46.64 14.51 46.5 14.48 46.35 14.46V10.22C46.7 10.12 46.95 9.80999 46.95 9.42999C46.95 8.97999 46.58 8.60999 46.13 8.60999C45.68 8.60999 45.31 8.97999 45.31 9.42999C45.31 9.80999 45.57 10.13 45.93 10.22V14.45C45.79 14.46 45.65 14.49 45.51 14.54L44.75 12.83C44.87 12.72 44.94 12.56 44.94 12.38C44.94 12.03 44.66 11.75 44.31 11.75C43.96 11.75 43.68 12.03 43.68 12.38C43.68 12.73 43.96 13.01 44.31 13.01C44.33 13.01 44.36 13.01 44.38 13.01L45.14 14.71C45.01 14.78 44.9 14.86 44.79 14.96L43.4 13.71C43.46 13.56 43.46 13.38 43.39 13.22C43.25 12.9 42.87 12.76 42.55 12.9C42.23 13.04 42.09 13.42 42.23 13.74C42.37 14.06 42.75 14.2 43.07 14.06C43.09 14.06 43.11 14.04 43.13 14.03L44.51 15.27C44.42 15.38 44.35 15.51 44.29 15.64L40.27 14.33C40.29 13.97 40.06 13.63 39.71 13.51C39.28 13.37 38.82 13.61 38.68 14.04C38.54 14.47 38.78 14.93 39.21 15.07C39.58 15.19 39.96 15.04 40.16 14.73L44.17 16.03C44.14 16.17 44.12 16.31 44.12 16.46L42.28 16.65C42.21 16.5 42.08 16.38 41.91 16.33C41.58 16.22 41.22 16.4 41.11 16.74C41 17.07 41.18 17.43 41.52 17.54C41.85 17.65 42.21 17.47 42.32 17.13C42.32 17.11 42.33 17.09 42.34 17.06L44.17 16.87C44.2 17.02 44.24 17.16 44.3 17.29L42.7 18.21C42.57 18.11 42.41 18.05 42.23 18.07C41.88 18.11 41.63 18.42 41.67 18.77C41.71 19.12 42.02 19.37 42.37 19.33C42.72 19.29 42.97 18.98 42.93 18.63C42.93 18.61 42.93 18.58 42.92 18.56L44.51 17.64C44.6 17.76 44.69 17.87 44.8 17.97L42.33 21.37C41.99 21.24 41.6 21.35 41.38 21.65C41.11 22.02 41.2 22.53 41.56 22.79C41.93 23.06 42.44 22.97 42.7 22.61C42.93 22.3 42.9 21.88 42.66 21.6L45.13 18.21C45.26 18.28 45.39 18.35 45.53 18.39L45.15 20.18C44.99 20.2 44.84 20.29 44.73 20.43C44.52 20.71 44.59 21.11 44.87 21.31C45.15 21.52 45.55 21.45 45.75 21.17C45.96 20.89 45.89 20.49 45.61 20.29C45.59 20.28 45.57 20.26 45.55 20.25L45.93 18.47C46.01 18.47 46.08 18.48 46.16 18.48C46.23 18.48 46.3 18.48 46.37 18.47L46.75 20.26C46.61 20.35 46.51 20.49 46.47 20.66C46.4 21 46.62 21.34 46.96 21.41C47.3 21.48 47.64 21.26 47.71 20.92C47.78 20.58 47.56 20.24 47.22 20.17C47.2 20.17 47.17 20.17 47.15 20.16L46.77 18.38C46.91 18.33 47.05 18.27 47.17 18.2L49.64 21.6C49.41 21.88 49.39 22.29 49.62 22.59C49.89 22.96 50.4 23.04 50.76 22.77C51.13 22.5 51.21 21.99 50.94 21.63C50.71 21.32 50.31 21.21 49.97 21.35L47.5 17.95C47.61 17.85 47.71 17.74 47.79 17.62L49.39 18.54C49.36 18.7 49.39 18.87 49.5 19.02C49.71 19.3 50.1 19.37 50.38 19.16C50.66 18.95 50.73 18.56 50.52 18.28C50.31 18 49.92 17.93 49.64 18.14C49.62 18.15 49.6 18.17 49.59 18.18L48 17.26C48.06 17.13 48.1 16.99 48.13 16.84L49.97 17.03C50.01 17.19 50.11 17.33 50.27 17.42C50.57 17.59 50.96 17.49 51.13 17.19C51.3 16.89 51.2 16.5 50.9 16.33C50.6 16.16 50.21 16.26 50.04 16.56C50.03 16.58 50.02 16.6 50.01 16.62L48.18 16.43C48.18 16.28 48.16 16.14 48.13 16L52.14 14.7C52.34 15 52.72 15.15 53.08 15.03C53.51 14.89 53.75 14.43 53.61 14L53.6 14.05Z" fill="#4D4D4D"/>
</svg>
