<?xml version="1.0" standalone="no"?>
<!DOCTYPE svg PUBLIC "-//W3C//DTD SVG 1.0//EN" "http://www.w3.org/TR/2001/REC-SVG-20010904/DTD/svg10.dtd">
<svg xmlns="http://www.w3.org/2000/svg" xmlns:xlink="http://www.w3.org/1999/xlink" id="body_1" width="1024" height="768">

<g transform="matrix(0.768 0 0 0.768 128.00003 -0)">
	<g>
        <path d="M10 499.9C 10 471.9 10 443.9 10 415.9C 10 401.4 20.6 390.9 35.2 390.9C 87.2 390.9 139.1 390.9 191.09999 390.9C 205.7 390.9 216.4 401.6 216.4 416.4C 216.4 471.69998 216.4 527.1 216.4 582.4C 216.4 598.30005 206 608.80005 189.9 608.80005C 144.29999 608.80005 98.7 608.9 53.199997 608.80005C 45.199997 608.80005 37.199997 609.7001 29.299997 608.00006C 18.2 605.7 10 595.8 10 584.4C 10 556.2 10 528.1 10 499.9zM72.3 585.4C 74.5 584.9 75.100006 583.30005 76.100006 582.10004C 87.600006 567.7 99.00001 553.4 110.40001 538.9C 112.50001 536.2 113.50001 535.9 115.80001 538.9C 127.40001 553.80005 139.20001 568.4 151.00002 583.2C 151.70001 584.10004 152.30002 585.2 154.00002 585.4C 149.50002 565.9 145.30002 546.7 140.70001 527.7C 139.6 523.3 140.6 522.4 145.00002 522.5C 162.90001 522.7 180.80002 522.6 198.80002 522.6C 200.30002 522.6 201.80002 522.6 203.20001 522.6C 201.90001 521 200.6 520.3 199.20001 519.6C 183.1 511.8 167.00002 503.99997 150.80002 496.39996C 147.30002 494.69995 146.80002 493.29996 149.40002 490.19995C 157.50003 480.29996 165.50003 470.29996 173.40002 460.29996C 177.60002 455.09995 181.70003 449.79996 186.10002 444.19995C 183.90002 443.79996 182.90002 444.69995 181.80002 445.29996C 165.40002 453.19995 148.90002 460.89996 132.60002 468.99997C 128.60002 470.99997 127.60002 470.09998 126.900024 466.09998C 125.400024 457.99997 123.400024 449.89996 121.50002 441.8C 118.900024 430.59998 116.300026 419.5 113.70002 408.3C 108.50002 427.8 103.90002 447.19998 99.70002 466.69998C 98.80002 470.8 97.60002 470.69998 94.40002 469.09998C 78.500015 461.3 62.500015 453.59998 46.500015 445.99997C 45.000015 445.29996 43.400017 443.69998 41.300014 445.39996C 53.100014 460.19995 64.90002 474.89996 76.70001 489.59998C 80.30001 494.09998 80.30001 494.09998 75.20001 496.49997C 57.700012 504.89996 40.200012 513.3 22.700012 521.8C 22.700012 522.1 22.800013 522.3 22.800013 522.6C 24.300013 522.6 25.800013 522.6 27.400013 522.6C 45.30001 522.6 63.200012 522.6 81.20001 522.6C 86.80001 522.6 86.90001 522.69995 85.60001 528.3C 81 547.1 76.8 565.9 72.3 585.4z" stroke="none" fill="#000000" fill-rule="nonzero" />
        <path d="M399.9 440.4C 392.8 456.69998 385.6 473 378.69998 489.4C 377.4 492.4 375.9 493.5 372.69998 493.3C 367.9 493 363.09998 493 358.3 493.3C 355.19998 493.5 353.8 492.3 352.69998 489.59998C 345.8 473.8 338.8 458.09998 331.8 442.39996C 331.5 441.69995 331.09998 440.99997 330.69998 440.19995C 329.09998 441.19995 329.9 442.59995 329.9 443.69995C 329.8 458.89996 329.8 474.09995 329.9 489.29996C 329.9 492.39996 329.1 493.49997 325.9 493.29996C 321 492.99997 316 493.09995 311 493.29996C 308.7 493.39996 307.6 492.79996 307.6 490.19995C 307.7 460.09995 307.7 430.09995 307.6 399.99994C 307.6 397.29993 308.7 396.89993 311 396.89993C 316.9 396.99994 322.8 397.19992 328.7 396.89993C 332.30002 396.69992 334 397.89993 335.40002 401.19992C 344.80002 422.4999 354.50003 443.5999 364.00003 464.79993C 364.40002 465.79993 364.90002 466.69992 365.70004 468.29993C 371.10004 456.19992 376.20004 444.69992 381.30005 433.19992C 386.20004 422.29993 391.10004 411.39993 395.80005 400.39993C 396.90005 397.79993 398.20004 396.79993 401.10004 396.89993C 407.00003 397.09995 412.90002 397.09995 418.80005 396.89993C 421.30005 396.79993 422.10004 397.59995 422.10004 400.09995C 422.00003 429.99994 422.00003 459.89993 422.10004 489.79993C 422.10004 492.5999 421.20004 493.39993 418.50003 493.29993C 413.70004 493.0999 408.90002 493.0999 404.10004 493.29993C 401.00003 493.49994 400.40002 492.19992 400.50003 489.39993C 400.60004 473.09995 400.60004 456.79993 400.60004 440.49994C 400.6 440.5 400.2 440.5 399.9 440.4z" stroke="none" fill="#000000" fill-rule="nonzero" />
        <path d="M823.6 493.2C 813.5 493.2 803.5 493.30002 793.39996 493.2C 782.3 493.1 777.69995 488.6 777.49994 477.5C 777.19995 466.3 777.19995 466.3 788.5999 466.3C 790.3999 466.3 792.0999 466.4 793.8999 466.3C 797.7999 466.09998 801.4999 465.9 800.1999 471.69998C 799.79987 473.49997 801.0999 473.69998 802.4999 473.69998C 816.59985 473.69998 830.59985 473.59998 844.6999 473.69998C 847.0999 473.69998 847.1999 472.59998 847.1999 470.8C 847.0999 466.5 846.8999 462.09998 847.29987 457.9C 847.4999 454.8 846.39984 454.3 843.4999 454.3C 827.3999 454.4 811.1999 454.4 795.09985 454.4C 783.09985 454.4 778.09985 449.4 778.09985 437.6C 778.09985 429.4 778.09985 421.30002 778.09985 413.1C 778.09985 403.4 783.6998 397.1 793.1998 396.9C 813.9998 396.6 834.7998 396.6 855.59985 396.9C 863.89984 397 868.59985 402.1 869.4999 410.5C 870.9999 424.1 870.9999 424.1 857.79987 424.1C 855.9999 424.1 854.29987 423.9 852.4999 424.1C 848.6999 424.5 846.1999 423.80002 847.1999 419.2C 847.6999 416.7 846.29987 416.40002 844.1999 416.40002C 830.5999 416.50003 816.9999 416.50003 803.3999 416.40002C 800.9999 416.40002 799.9999 416.90002 800.0999 419.50003C 800.2999 423.50003 800.3999 427.50003 800.0999 431.50003C 799.8999 434.50003 800.7999 435.20004 803.7999 435.20004C 820.0999 435.00003 836.3999 435.10004 852.69995 435.10004C 863.6 435.10004 869.2999 440.00003 869.6 450.80005C 869.89996 460.70004 869.8 470.60004 869.3 480.50006C 869 488.00006 864.8 492.20007 857.2 492.80005C 851.60004 493.30005 846 493.10004 840.4 493.20004C 834.8 493.3 829.2 493.2 823.6 493.2z" stroke="none" fill="#000000" fill-rule="nonzero" />
        <path d="M738.7 459.9C 746.10004 471.1 753.2 481.69998 760.8 493.19998C 752.3 493.19998 744.6 493.19998 736.89996 493.19998C 734.89996 493.19998 734.49994 491.19998 733.69995 489.99997C 727.89996 481.19998 722.19995 472.39996 716.6 463.39996C 715.19995 461.09998 713.69995 460.09998 710.89996 460.19995C 704.8 460.39996 698.8 460.39996 692.69995 460.19995C 690.19995 460.09995 689.39996 460.99994 689.49994 463.39996C 689.5999 471.99997 689.39996 480.69995 689.5999 489.29996C 689.6999 492.59995 688.49994 493.39996 685.49994 493.19995C 680.39996 492.99994 675.2999 492.99994 670.19995 493.19995C 667.69995 493.29996 666.49994 492.89996 666.6 489.89996C 666.69995 459.99997 666.69995 430.09998 666.6 400.19995C 666.6 397.49994 667.3 396.69995 670 396.69995C 694.6 396.79996 719.2 396.69995 743.8 396.79996C 754 396.89996 759.6 402.79996 759.7 413.09995C 759.7 422.89993 759.7 432.59995 759.7 442.39993C 759.7 452.69992 755.10004 457.89993 744.7 459.19992C 743.1 459.5 741.3 459.6 738.7 459.9zM713.3 441C 720.2 441 727 440.9 733.89996 441C 736.3 441 737.3 440.5 737.19995 437.9C 736.99994 431.8 737.1 425.8 737.19995 419.69998C 737.19995 417.4 736.69995 416.3 734.1 416.3C 720.19995 416.4 706.39996 416.4 692.5 416.3C 690.2 416.3 689.5 416.9 689.5 419.3C 689.6 425.4 689.7 431.4 689.5 437.5C 689.4 440.7 690.5 441.2 693.3 441.1C 699.9 440.9 706.6 441 713.3 441z" stroke="none" fill="#000000" fill-rule="nonzero" />
        <path d="M557.2 444.7C 557.2 430 557.3 415.30002 557.10004 400.6C 557.10004 397.7 557.7 396.80002 560.80005 396.80002C 588.9 396.90002 617.10004 396.90002 645.2001 396.80002C 648.2001 396.80002 649.1001 397.7 648.9001 400.6C 648.7001 404.6 648.6001 408.6 648.9001 412.6C 649.2001 416 647.7001 416.5 644.8001 416.5C 624.6001 416.4 604.5001 416.5 584.3001 416.3C 580.3001 416.3 578.9001 417.3 579.3001 421.3C 579.6001 424.5 579.6001 427.69998 579.3001 430.9C 579.0001 434.19998 580.0001 435.19998 583.4001 435.19998C 600.4001 434.99997 617.3001 435.19998 634.3001 434.99997C 638.0001 434.99997 639.4001 435.89996 638.9001 439.69998C 638.3001 444.4 640.9001 450.69998 637.8001 453.4C 635.20013 455.69998 629.0001 454.19998 624.4001 454.19998C 610.8001 454.19998 597.2001 454.3 583.6001 454.09998C 580.5001 454.09998 578.9001 454.59998 579.2001 458.19998C 579.7001 463.19998 577.1001 469.99997 580.30005 472.9C 583.10004 475.4 589.7001 473.69998 594.7001 473.69998C 611.50006 473.69998 628.30005 473.8 645.1001 473.69998C 648.1001 473.69998 649.4001 474.3 649.2001 477.59998C 648.9001 481.59998 648.9001 485.59998 649.2001 489.59998C 649.4001 492.59998 648.4001 493.39996 645.50006 493.39996C 632.10004 493.29996 618.60004 493.29996 605.2001 493.29996C 590.50006 493.29996 575.80005 493.19995 561.1001 493.39996C 558.0001 493.39996 557.1001 492.59998 557.1001 489.39996C 557.3 474.4 557.2 459.6 557.2 444.7z" stroke="none" fill="#000000" fill-rule="nonzero" />
        <path d="M547.5 493.2C 539.7 493.2 532.4 493.1 525.1 493.2C 523.1 493.2 522.3 492.1 521.69995 490.5C 519.7999 486 517.69995 481.5 515.7999 476.9C 514.8999 474.69998 513.5999 473.9 511.0999 473.9C 496.69992 474 482.29993 474 467.8999 473.9C 465.1999 473.9 463.8999 474.9 462.9999 477.3C 461.3999 481.59998 459.2999 485.8 457.69992 490.09998C 456.79993 492.3 455.79993 493.39996 453.19992 493.3C 446.19992 493.09998 439.0999 493.19998 432.0999 493.19998C 431.3999 491.49997 432.4999 490.4 432.9999 489.09998C 446.0999 459.59998 459.2999 430.09998 472.2999 400.49997C 473.4999 397.69998 474.7999 396.69998 477.7999 396.79996C 485.59988 396.99997 493.4999 396.89996 501.2999 396.79996C 503.3999 396.79996 504.7999 397.09995 505.7999 399.29996C 519.3999 429.89996 532.9999 460.39996 546.5999 490.89996C 546.9 491.5 547.1 492.1 547.5 493.2zM489.3 415.7C 483.69998 428.80002 478.5 441.30002 473.19998 453.7C 472.59998 455.2 473.09998 455.80002 474.59998 455.80002C 485.09998 455.80002 495.59998 455.80002 506.69998 455.80002C 500.8 442.2 495.2 429.3 489.3 415.7z" stroke="none" fill="#000000" fill-rule="nonzero" />
        <path d="M913.5 450.9C 913.5 463.5 913.3 476.1 913.6 488.6C 913.69995 492.5 912.39996 493.5 908.8 493.2C 904 492.90002 899.2 493 894.39996 493.2C 891.89996 493.30002 890.69995 492.80002 890.69995 489.80002C 890.7999 459.90002 890.7999 430.00003 890.69995 400.10004C 890.69995 397.70004 891.19995 396.60004 893.89996 396.70004C 899.3 396.90005 904.8 396.90005 910.19995 396.70004C 913.1 396.60004 913.6 397.80005 913.6 400.30005C 913.5 411.50006 913.6 422.60004 913.6 433.70004C 915.5 434.30005 916.1 432.80005 916.89996 432.10004C 929.3 421.20004 941.6 410.40002 953.89996 399.40002C 956.1 397.40002 958.19995 396.60004 961.19995 396.7C 969.7999 396.90002 978.2999 396.80002 988.19995 396.80002C 985.6 399.2 983.89996 400.7 982.1 402.2C 968.1 414.30002 954.1 426.5 939.89996 438.40002C 936.99994 440.80002 936.8 442.10004 939.6 444.7C 954.69995 458.90002 969.69995 473.40002 984.69995 487.80002C 986.19995 489.2 987.69995 490.7 990.19995 493.1C 981.89996 493.1 974.69995 492.5 967.69995 493.30002C 960.19995 494.1 955.19995 491.2 950.2999 486.00003C 938.6 473.8 926.7 462 915 450C 914.5 450.3 914 450.6 913.5 450.9z" stroke="none" fill="#000000" fill-rule="nonzero" />
        <path d="M428.1 540.8C 428.1 551.1 428.1 561.5 428.1 571.8C 428.1 580.6 428 589.39996 428.2 598.2C 428.30002 601.2 427.6 602.8 424.30002 602.2C 423.2 602 422.00003 602 421.00003 602.2C 417.70004 602.7 417.00003 601.2 417.10004 598.2C 417.20004 583.2 417.20004 568.2 417.20004 553.10004C 417.20004 544.9 417.30005 536.80005 417.20004 528.60004C 417.20004 526.2 417.70004 525.50006 420.30005 525.2C 427.70004 524.4 432.70004 526.5 437.50006 532.9C 451.00006 551.10004 465.50006 568.60004 479.60007 586.4C 481.10007 585.10004 480.40005 583.60004 480.40005 582.30005C 480.50006 564.7001 480.70004 547.10004 480.30005 529.60004C 480.20004 524.00006 483.50006 525.60004 486.40005 525.4C 489.70004 525.10004 491.40005 525.5 491.30005 529.80005C 491.00006 552.50006 491.10004 575.2001 491.30005 597.9C 491.30005 601.4 490.50006 602.2 486.90005 602.4C 480.70004 602.80005 476.80005 600.7 473.00006 595.7C 459.60007 578 445.60007 560.8 431.80005 543.4C 431.00006 542.4 430.20004 541.5 429.40005 540.5C 428.8 540.6 428.4 540.7 428.1 540.8z" stroke="none" fill="#000000" fill-rule="nonzero" />
        <path d="M512.9 563.6C 512.9 552.1 513 540.6 512.80005 529.1C 512.80005 526.3 513.30005 525.3 516.4 525.3C 535.60004 525.5 554.80005 525.5 573.9 525.3C 578.30005 525.2 577.7 527.6 577.80005 530.39996C 577.9 533.39996 577.9 535.39996 573.7001 535.3C 558.80005 535 544.00006 535.39996 529.1001 535.1C 524.7001 535 523.6001 536.39996 523.9001 540.5C 524.2001 545.4 524.2001 550.4 523.9001 555.4C 523.7001 558.7 525.00006 559.30005 528.00006 559.30005C 540.30005 559.10004 552.60004 559.50006 564.9001 559.10004C 569.6001 559.00006 568.9001 561.4 569.2001 564.4C 569.50006 567.9 568.50006 569.10004 564.80005 569C 552.7001 568.7 540.50006 569 528.4 568.8C 525.2 568.8 523.80005 569.5 524 573C 524.3 578.3 524.2 583.6 524 588.8C 523.9 591.8 525 592.5 527.9 592.5C 543.2 592.4 558.60004 592.6 573.9 592.3C 578.5 592.2 578.10004 594.39996 578.2 597.5C 578.2 600.5 578.2 602.4 574.10004 602.3C 555.10004 602 536.10004 602.1 517.00006 602.3C 513.7001 602.3 512.7001 601.6 512.7001 598.2C 513 586.6 512.9 575.1 512.9 563.6z" stroke="none" fill="#000000" fill-rule="nonzero" />
        <path d="M310.9 563.7C 310.9 552.3 311.1 541 310.8 529.60004C 310.69998 525.9 311.9 524.7 315.4 525.30005C 316.3 525.50006 317.3 525.4 318.3 525.30005C 321.5 524.80005 322.3 526.10004 322.19998 529.2001C 322.09998 548.1001 322.09998 567.00006 322.09998 585.80005C 322.09998 593.30005 321.19998 592.30005 328.8 592.30005C 341.3 592.30005 353.8 592.50006 366.19998 592.2001C 370.8 592.1001 369.99997 594.6001 369.99997 597.2001C 369.99997 600.00006 370.49997 602.30005 366.09998 602.2001C 348.99997 601.9001 331.89996 602.00006 314.69998 602.2001C 311.59998 602.2001 310.59998 601.4001 310.69998 598.30005C 311 586.8 310.9 575.3 310.9 563.7z" stroke="none" fill="#000000" fill-rule="nonzero" />
        <path d="M384.2 563.5C 384.2 552.2 384.30002 540.8 384.1 529.5C 384 526.2 384.80002 524.8 388.2 525.3C 389.30002 525.5 390.5 525.5 391.5 525.3C 394.8 524.7 395.4 526.3 395.4 529.3C 395.3 544.89996 395.3 560.6 395.3 576.2C 395.3 583.5 395.19998 590.9 395.4 598.2C 395.5 601.3 394.6 602.60004 391.4 602.10004C 390.6 602.00006 389.8 602.00006 389 602.10004C 385.2 602.7 383.8 601.60004 384 597.4C 384.4 586.1 384.2 574.8 384.2 563.5z" stroke="none" fill="#000000" fill-rule="nonzero" />
	</g>
</g>
</svg>