<svg viewBox="0 0 65 65" fill="none" xmlns="http://www.w3.org/2000/svg">
<g clip-path="url(#clip0_251_1306)">
<path d="M14.95 28.84L12.98 25.43H9.04L11.01 22.02L9.04 18.61H12.98L14.95 15.2L16.92 18.61H20.86L18.89 22.02L20.86 25.44H16.92L14.95 28.85V28.84ZM32.27 28.84L30.3 25.43H26.36L28.33 22.02L26.36 18.61H30.3L32.27 15.2L34.24 18.61H38.18L36.21 22.02L38.18 25.44H34.24L32.27 28.85V28.84ZM49.59 28.84L47.62 25.43H43.68L45.65 22.02L43.68 18.61H47.62L49.59 15.2L51.56 18.61H55.5L53.53 22.02L55.5 25.44H51.56L49.59 28.85V28.84ZM6 13.65L4.03 10.24H0.09L2.06 6.83L0.09 3.41H4.03L6 0L7.97 3.41H11.91L9.94 6.82L11.91 10.23H7.97L6 13.64V13.65ZM23.55 13.65L21.58 10.24H17.64L19.61 6.83L17.64 3.42H21.58L23.55 0.01L25.52 3.42H29.46L27.49 6.84L29.46 10.25H25.52L23.55 13.66V13.65ZM41.1 13.65L39.13 10.24H35.19L37.16 6.83L35.19 3.42H39.13L41.1 0.01L43.07 3.42H47.01L45.04 6.84L47.01 10.25H43.07L41.1 13.66V13.65ZM58.65 13.65L56.68 10.24H52.74L54.71 6.83L52.74 3.42H56.68L58.65 0.01L60.62 3.42H64.56L62.59 6.84L64.56 10.25H60.62L58.65 13.66V13.65ZM37.89 64.47V37.49H46.78L49.2 43.76L51.49 50.08L53.58 44.08L56.2 37.49H64.57V64.47H57.77V51.88L55.44 58.54L53.59 64.47H48.88L47.31 58.47L45.22 51.88V64.47H37.89ZM28.19 37.49H34.99V64.47H28.19V37.49ZM0 45.29H12.56L6.35 51.09L0 56.68V64.48H25.12V56.68H11.89L18.2 51.08L25.12 45.29V37.5H0V45.29Z" fill="#4D4D4D"/>
</g>
<defs>
<clipPath id="clip0_251_1306">
<rect width="64.57" height="64.47" fill="white"/>
</clipPath>
</defs>
</svg>
