<svg viewBox="0 0 254 36" fill="none" xmlns="http://www.w3.org/2000/svg">
<path d="M24.2902 31.72C22.419 31.72 20.8999 30.4369 20.6035 28.5908L16.6945 4.60003C16.676 4.49849 16.6482 4.29541 16.3425 4.29541C16.0276 4.29541 15.9998 4.50772 15.9812 4.60926L12.6743 28.4708C12.415 30.3169 10.9329 31.637 9.06176 31.6831C7.1999 31.72 5.64371 30.4739 5.30098 28.6462L0.725054 4.21233C0.55832 3.29849 1.16044 2.42156 2.07747 2.25541C2.99451 2.08003 3.87449 2.68926 4.04123 3.6031L8.61716 28.037C8.63568 28.1385 8.69126 28.3416 8.98767 28.3323C9.30261 28.3323 9.33041 28.12 9.33967 28.0185L12.6465 4.15695C12.9059 2.2831 14.4065 0.963103 16.3054 0.944641C18.1951 0.944641 19.7328 2.20926 20.0384 4.07387L23.9474 28.0646C23.966 28.1662 23.9938 28.3693 24.3087 28.3693C24.6236 28.3693 24.6514 28.1662 24.6699 28.0646L28.5789 4.07387C28.8846 2.20926 30.4223 0.944641 32.3119 0.944641C34.2108 0.963103 35.7115 2.29233 35.9708 4.15695L39.2777 28.0185C39.2962 28.12 39.324 28.3231 39.6297 28.3323C39.9261 28.3323 39.9817 28.1385 40.0002 28.037L44.5761 3.6031C44.7429 2.68926 45.6321 2.08926 46.5399 2.25541C47.457 2.42156 48.0591 3.30772 47.8923 4.21233L43.3164 28.6462C42.9737 30.4831 41.436 31.7293 39.5556 31.6831C37.6845 31.637 36.1931 30.3169 35.943 28.4708L32.6361 4.60926C32.6176 4.50772 32.5898 4.29541 32.2749 4.29541C31.9692 4.29541 31.9322 4.49849 31.9229 4.60003L28.0139 28.5908C27.7175 30.4277 26.1983 31.72 24.3272 31.72H24.2902Z" fill="#4D4D4D"/>
<path d="M70.2162 28.96C73.3471 28.96 76.0148 27.4369 77.1912 24.8984L75.3293 22.9138C74.5142 24.7969 72.8839 25.9046 70.9294 25.9046C68.7804 25.9046 67.5113 24.6031 67.5113 22.3969V14.6984H76.339V11.8092H67.5113V6.15997L63.6024 6.97228V11.8092H59.1376V14.6984H63.6301V22.9784C63.6301 26.68 66.1034 28.9507 70.2162 28.9507V28.96Z" fill="#4D4D4D"/>
<path d="M81.5078 18.76C81.832 16.0369 84.4071 14.1169 87.6955 14.1169C90.9839 14.1169 93.5312 15.8339 93.8184 18.76H81.4985H81.5078ZM88.7052 28.9508C92.8457 28.9508 96.6899 27.3908 98.4128 25.1569L96.3564 23.2369C94.9855 24.8246 92.0213 26.0339 88.9275 26.0339C85.0833 26.0339 81.9895 24.1139 81.5356 21.2616H97.6996C97.7922 20.8739 97.8292 20.2831 97.8292 19.8677C97.7922 14.7723 93.7535 11.2 87.7974 11.2C81.8413 11.2 77.4043 14.8369 77.4043 19.9692C77.4043 25.1016 82.1285 28.96 88.7145 28.96L88.7052 28.9508Z" fill="#4D4D4D"/>
<path d="M103.6 4.34155H99.7189V28.3323H103.6V4.34155Z" fill="#4D4D4D"/>
<path d="M109.019 18.76C109.343 16.0369 111.918 14.1169 115.207 14.1169C118.495 14.1169 121.042 15.8339 121.329 18.76H109.01H109.019ZM116.216 28.9508C120.357 28.9508 124.201 27.3908 125.924 25.1569L123.868 23.2369C122.497 24.8246 119.532 26.0339 116.439 26.0339C112.594 26.0339 109.501 24.1139 109.047 21.2616H125.211C125.303 20.8739 125.34 20.2831 125.34 19.8677C125.303 14.7723 121.265 11.2 115.308 11.2C109.352 11.2 104.915 14.8369 104.915 19.9692C104.915 25.1016 109.64 28.96 116.226 28.96L116.216 28.9508Z" fill="#4D4D4D"/>
<path d="M137.79 25.7754C133.779 25.7754 130.981 23.4031 130.981 20.0984C130.981 16.7938 133.788 14.4215 137.79 14.4215C141.791 14.4215 144.598 16.7569 144.598 20.0984C144.598 23.44 141.828 25.7754 137.79 25.7754ZM131.111 35.1538V24.8892H131.148C132.519 27.3908 135.446 28.9138 139.003 28.9138C144.607 28.9138 148.516 25.3415 148.516 20.08C148.516 14.8184 144.607 11.2184 138.966 11.2184C135.381 11.2184 132.417 12.7784 131.083 15.3077H131.046L130.555 11.8H127.23V35.1446H131.111V35.1538Z" fill="#4D4D4D"/>
<path d="M160.04 25.9416C155.871 25.9416 153.166 23.6339 153.166 20.0985C153.166 16.5631 155.871 14.2554 160.04 14.2554C164.208 14.2554 166.913 16.5631 166.913 20.0985C166.913 23.6339 164.208 25.9416 160.04 25.9416ZM160.04 28.96C166.561 28.96 170.822 25.4523 170.822 20.0985C170.822 14.7446 166.552 11.2 160.04 11.2C153.528 11.2 149.285 14.7354 149.285 20.0985C149.285 25.4615 153.556 28.96 160.04 28.96Z" fill="#4D4D4D"/>
<path d="M181.659 11.2C179.084 11.2 176.963 12.6308 175.889 14.9385H175.852L175.361 11.8185H172.1V28.3416H175.981V20.2923C175.981 16.5262 177.704 14.2185 180.576 14.2185C182.502 14.2185 183.836 15.5846 184.059 17.9846L187.477 17.08C187.115 13.3785 184.874 11.2 181.641 11.2H181.659Z" fill="#4D4D4D"/>
<path d="M198.222 28.96C201.353 28.96 204.02 27.4369 205.197 24.8984L203.344 22.9138C202.529 24.7969 200.899 25.9046 198.944 25.9046C196.795 25.9046 195.526 24.6031 195.526 22.3969V14.6984H204.354V11.8092H195.526V6.15997L191.617 6.97228V11.8092H187.152V14.6984H191.645V22.9784C191.645 26.68 194.118 28.9507 198.231 28.9507L198.222 28.96Z" fill="#4D4D4D"/>
<path d="M210.097 28.3416V11.8185H206.216V28.3416H210.097ZM208.17 9.08617C209.634 9.08617 210.681 8.14463 210.681 6.71386C210.681 5.2831 209.643 4.37848 208.17 4.37848C206.697 4.37848 205.697 5.32002 205.697 6.71386C205.697 8.10771 206.707 9.08617 208.17 9.08617Z" fill="#4D4D4D"/>
<path d="M223.834 11.2277C220.249 11.2277 217.48 12.7231 216.081 15.2246H216.044L215.59 11.8184H212.2V28.3415H216.081V20.1261C216.081 16.5169 218.526 14.2461 222.398 14.2461C225.529 14.2461 227.382 16.0277 227.382 18.9538V28.3323H231.291L231.328 18.2984C231.328 13.8861 228.493 11.2184 223.834 11.2184V11.2277Z" fill="#4D4D4D"/>
<path d="M242.962 25.6092C239.053 25.6092 236.348 23.3384 236.348 20.0246C236.348 16.7108 239.025 14.3477 242.962 14.3477C246.899 14.3477 249.613 16.6831 249.613 20.0246C249.613 23.3661 246.908 25.6092 242.962 25.6092ZM241.656 35.7723C248.788 35.7723 253.355 32.2369 253.355 26.6154V11.8092H249.965L249.474 15.2154H249.437C248.131 12.8431 245.102 11.2554 241.813 11.2554C236.209 11.2554 232.458 14.7631 232.458 19.9877C232.458 25.2123 236.237 28.5908 241.841 28.5908C245.037 28.5908 248.094 27.1969 249.4 25.0831H249.437V26.5784C249.437 30.28 246.343 32.6523 241.489 32.6523C238.164 32.6523 234.903 31.48 232.986 29.6615L231.161 32.4215C233.31 34.4708 237.256 35.7631 241.656 35.7631V35.7723Z" fill="#4D4D4D"/>
</svg>
