<svg width="101" height="65" viewBox="0 0 101 65" fill="none" xmlns="http://www.w3.org/2000/svg">
<path d="M89.9397 36.02C82.8997 36.02 80.3896 31.83 80.3896 27.91C80.3896 22.84 84.1496 19.81 90.4596 19.81C97.0996 19.81 100.78 22.63 100.78 27.74C100.78 32.85 97.4097 35.8 90.4697 36H89.9397V36.02ZM90.4496 23.04C86.8196 23.04 86.0596 25.59 86.0596 27.77C86.0596 30.98 87.5297 32.48 90.6497 32.48C93.7697 32.48 95.2396 30.92 95.2396 27.71C95.2396 24.17 94.0597 23.04 90.3997 23.04H90.4496Z" fill="#4D4D4D"/>
<path d="M69.5003 35.39V35.36C62.3103 34.97 60.7803 31.1 60.7803 27.9C60.7803 25.74 61.4303 24 62.7203 22.74C64.2903 21.21 66.7703 20.43 70.1003 20.43H78.0903V23.49H70.7803C69.3503 23.49 68.2803 23.83 67.6303 24.51C66.9803 25.19 66.6403 26.25 66.6803 27.7V27.84C66.6803 29.12 66.6803 31.79 70.9803 32.1L78.0903 32.19V35.38H69.5003V35.39Z" fill="#4D4D4D"/>
<path d="M42.8696 35.19V32.13H50.8096C51.3196 32.13 52.2496 32.05 52.7396 31.55C52.9696 31.3 53.0796 30.97 53.0496 30.64C53.0196 29.62 52.3896 29.14 51.0596 29.14H47.6296C45.6596 29.09 44.2796 28.66 43.4196 27.8C42.6896 27.07 42.3496 26.09 42.3496 24.7C42.3496 21.67 44.1596 20.25 48.0496 20.25H57.8296V23.31H49.2696C48.7996 23.25 48.3296 23.37 47.9396 23.63C47.6896 23.93 47.5696 24.31 47.5996 24.7C47.5596 25.05 47.6596 25.4 47.8896 25.68C48.2496 26.04 48.9696 26.07 49.7396 26.07H52.2296C55.1096 26.07 56.6796 27.01 57.4796 27.8C58.2696 28.55 58.7096 29.59 58.7096 30.68C58.7796 31.85 58.3596 32.99 57.5696 33.85C56.6896 34.73 55.2896 35.18 53.4196 35.18H42.8596V35.2L42.8696 35.19Z" fill="#4D4D4D"/>
<path d="M28.9904 36.07C21.9504 36.07 19.4404 31.88 19.4404 27.96C19.4404 22.89 23.2004 19.86 29.5104 19.86C36.1504 19.86 39.8404 22.68 39.8404 27.79C39.8404 32.9 36.4704 35.85 29.5304 36.05H28.9904V36.07ZM29.5004 23.09C25.8704 23.09 25.1104 25.64 25.1104 27.82C25.1104 31.03 26.5804 32.53 29.7004 32.53C32.8204 32.53 34.2904 30.97 34.2904 27.76C34.2904 24.22 33.1104 23.09 29.4504 23.09H29.5004Z" fill="#4D4D4D"/>
<path d="M8.72 35.39V35.36C1.53 34.97 0 31.1 0 27.9C0 25.74 0.65 24 1.94 22.74C3.51 21.21 5.99 20.43 9.31 20.43H17.31V23.49H9.97C8.56 23.49 7.51 23.83 6.85 24.51C5.93 25.43 5.95 26.85 5.96 27.61V28.06C5.89 29.26 5.76 31.76 10.2 32.07L17.31 32.16V35.35L8.71 35.37L8.72 35.39Z" fill="#4D4D4D"/>
<path d="M35.0201 39H32.3301V47.95H35.0201V39Z" fill="#4D4D4D"/>
<path d="M68.7095 39.15H66.0195V48.1H68.7095V39.15Z" fill="#4D4D4D"/>
<path d="M52.6799 48.04V39.09H58.4099C61.6299 39.29 62.3099 40.72 62.3099 41.89C62.3099 43.53 60.6799 44.68 58.3399 44.68H55.3599V48.05H52.6699L52.6799 48.04ZM57.8899 43.21C58.9099 43.21 59.5299 42.73 59.5299 41.88C59.5299 41.12 58.8299 40.55 57.8899 40.55H55.3599V43.2H57.8899V43.21Z" fill="#4D4D4D"/>
<path d="M39.6504 48.1V39.15H45.3804C48.6004 39.35 49.2804 40.78 49.2804 41.95C49.2804 43.59 47.6504 44.74 45.3104 44.74H42.3304V48.1H39.6504ZM44.8604 43.28C45.8804 43.28 46.4904 42.8 46.4904 41.95C46.4904 41.19 45.7904 40.62 44.8604 40.62H42.3404V43.27H44.8604V43.28Z" fill="#4D4D4D"/>
<path d="M91.0898 47.96C89.7498 48.01 88.4398 47.55 87.4298 46.65C86.5698 45.79 86.1198 44.6 86.1698 43.39C86.1698 40.44 87.9998 38.83 91.3098 38.83H96.4498V41.07H90.4598C89.5698 41.2 88.8798 42.2 88.8798 43.4C88.8798 44.72 89.6898 45.8 90.6798 45.8L93.9398 45.73V43.56H96.4498V47.97H91.0898V47.96Z" fill="#4D4D4D"/>
<path d="M75.8499 47.96H73.1699V39H75.6999L79.9399 44.31V39.14H82.6299V48.1H80.1599L75.8499 42.77V47.96Z" fill="#4D4D4D"/>
<path d="M21.1898 44.44L21.1998 47.96H18.5098V39H21.1998L21.1698 42.44L25.1798 42.51V39H27.8698V47.96H25.1798V44.44H21.1898Z" fill="#4D4D4D"/>
<path d="M4.96974 48.1V46.19H10.1197C11.4997 46.14 11.4997 45.6 11.4997 45.31C11.4997 44.8 10.9897 44.47 10.1097 44.44H7.88974C6.68974 44.41 5.84974 44.15 5.33974 43.63C4.86974 43.12 4.62974 42.43 4.68974 41.73C4.68974 39.9 5.82974 39.01 8.16974 39.01H14.0797V40.93H8.97974C8.57974 40.89 8.17974 41.01 7.85974 41.26C7.71974 41.39 7.64974 41.58 7.66974 41.77C7.66974 42.43 8.41974 42.57 9.03974 42.57H11.7297C12.5397 42.56 13.3197 42.85 13.9197 43.38C14.4297 43.91 14.6997 44.64 14.6597 45.38C14.6997 46.09 14.4397 46.79 13.9597 47.3C13.2497 47.9 12.3297 48.2 11.4097 48.13H10.1697L5.00974 48.11L4.96974 48.1Z" fill="#4D4D4D"/>
<path d="M88.7496 16.49C82.2196 6.07003 71.6496 0.0900269 59.7496 0.0900269C47.8496 0.0900269 36.1496 6.37003 30.3096 16.52L30.0596 16.93H34.3096L34.3896 16.78C39.7296 7.35003 48.7796 2.15003 59.9196 2.15003C69.9396 2.15003 80.0896 8.16003 84.6296 16.77L84.7096 16.92H89.0196L88.7396 16.48L88.7496 16.49Z" fill="#4D4D4D"/>
<path d="M16.5603 17H12.2803L12.5803 16.49C13.0903 15.61 13.6303 14.75 14.2103 13.94C20.3703 5.23 30.7403 0 41.9503 0C53.1603 0 63.4503 5.52 71.0503 16.42L71.3903 16.99H66.8403L66.7403 16.8C62.9903 9.73 52.9603 2.22 41.7903 2.22C31.3903 2.22 21.8003 7.81 16.6903 16.86L16.5803 17.01L16.5603 17Z" fill="#4D4D4D"/>
<path d="M68.7998 50.9H64.8498L64.7598 51.01C59.2098 58.19 50.6098 62.35 41.5398 62.24C32.2498 62.24 24.4198 58.36 18.9098 51.01L18.8198 50.89H14.7998L15.1598 51.36C21.5698 59.55 31.4298 64.31 41.8298 64.22C52.3498 64.22 61.8398 59.8 68.2398 51.69C68.3998 51.49 68.6298 51.14 68.7998 50.89V50.9Z" fill="#4D4D4D"/>
<path d="M59.5796 64.0801C49.2196 64.1601 39.4196 59.43 33.0296 51.28L32.8496 51.05H36.6496L36.6996 51.1101C42.3696 58.1701 50.4496 62.21 58.8896 62.21H59.3996C68.3096 61.93 76.6896 57.9001 82.4696 51.1101L82.5096 51.0601H86.2996L86.1196 51.2901C79.7396 59.4401 69.9396 64.17 59.5796 64.09V64.0801Z" fill="#4D4D4D"/>
<path fill-rule="evenodd" clip-rule="evenodd" d="M32.583 50.92H36.7107L36.8012 51.0286C42.4486 58.0605 50.4924 62.08 58.8898 62.08H59.3978C68.2697 61.8007 76.6138 57.7879 82.3695 51.0273L82.4473 50.93H86.5667L86.2222 51.3702C79.8174 59.5519 69.9792 64.3003 59.5788 64.22L59.4498 64.219V64.2108C49.0979 64.2504 39.3154 59.5076 32.9275 51.3603L32.583 50.92ZM59.7098 63.9608C69.9818 64.0004 79.6888 59.2943 86.0175 51.2099C86.0175 51.2099 86.0175 51.2099 86.0175 51.2099L86.033 51.19H82.5723L82.5689 51.1944C76.7651 58.0123 68.3506 62.0588 59.4039 62.34L59.3998 62.3401L58.8898 62.34C50.4076 62.34 42.2918 58.28 36.5992 51.1924L36.5889 51.18H33.1166L33.1321 51.1998C39.4973 59.3182 49.2592 64.0297 59.5788 63.9501L59.7098 63.949V63.9608Z" fill="#E31E26"/>
<path d="M59.5798 64.23C49.1698 64.32 39.3198 59.56 32.9098 51.37L32.5498 50.9H36.7098L36.7998 51.01C42.4198 58.03 50.4898 62.06 58.8698 62.06H59.3798C68.2698 61.8 76.6398 57.78 82.3998 51.01L82.4898 50.91H86.6498L86.2898 51.38C79.8698 59.58 70.0098 64.33 59.5898 64.24L59.5798 64.23Z" fill="#4D4D4D"/>
</svg>
