<svg width="25" height="25" viewBox="0 0 25 25" fill="none" xmlns="http://www.w3.org/2000/svg">
<path d="M12.0037 0C5.37994 0 0 5.37994 0 12.0037C0 14.5943 1.05244 16.92 1.50138 17.7958C1.71481 18.2079 2.21527 18.3698 2.62741 18.1564C3.03956 17.943 3.20147 17.4425 2.98804 17.0304C2.59062 16.2576 1.67065 14.2263 1.67065 11.9963C1.67065 6.29991 6.30727 1.66329 12.0037 1.66329C17.7001 1.66329 22.3367 6.29991 22.3367 11.9963C22.3367 17.6927 17.7001 22.3293 12.0037 22.3293C9.77369 22.3293 8.00736 21.5566 7.34499 21.2254C7.14627 21.1297 6.92548 21.1076 6.71205 21.1739L1.45722 22.8519C1.01564 22.9917 0.772769 23.4627 0.919963 23.897C1.03036 24.2502 1.36155 24.4784 1.71481 24.4784C1.79577 24.4784 1.88408 24.4637 1.9724 24.4416L6.91076 22.8666C7.94112 23.345 9.75897 24 12.0037 24C18.6201 24 24.0074 18.6127 24.0074 11.9963C24.0074 5.37994 18.6201 0 12.0037 0Z" fill="#19163B"/>
<path d="M9.63342 9.95768C9.26544 10.2374 9.1992 10.7599 9.47887 11.1279C9.75854 11.4959 10.2811 11.5621 10.6491 11.2824C10.9067 11.0837 11.5837 10.5685 11.4807 9.63386C11.4218 9.08188 10.8772 8.31647 10.4356 7.77921C9.78798 6.99172 9.236 6.5207 8.80913 6.38823C8.40435 6.26311 7.99221 6.28519 7.58006 6.4471C6.7337 6.78565 6.1302 7.34499 5.85053 8.0736C5.57086 8.78013 5.62238 9.56762 5.99773 10.3551C6.86617 12.195 8.02901 13.7774 9.45679 15.0727C9.45679 15.0727 9.47151 15.08 9.47151 15.0874C10.914 16.3606 12.6215 17.3468 14.5497 18.0092C14.9177 18.1343 15.271 18.2006 15.6169 18.2006C16.0511 18.2006 16.4632 18.1049 16.8312 17.9062C17.523 17.5455 18.0088 16.8832 18.259 16C18.3768 15.5731 18.3473 15.161 18.1854 14.7709C18.0088 14.3514 17.4789 13.8583 16.6251 13.3064C16.0364 12.9236 15.2268 12.4747 14.6675 12.4747C13.7328 12.4747 13.2912 13.2107 13.1219 13.4903C12.8864 13.8878 13.0115 14.3956 13.4016 14.6385C13.7917 14.874 14.3068 14.7489 14.5497 14.3588C14.6159 14.2484 14.6601 14.1895 14.6822 14.1601C15.1532 14.2999 16.4117 15.1242 16.6693 15.4701C16.6693 15.4922 16.6693 15.5143 16.6619 15.5658C16.581 15.8602 16.4117 16.2576 16.0658 16.4342C15.742 16.6035 15.3666 16.5299 15.1017 16.4342C13.3869 15.8454 11.8708 14.9696 10.5902 13.8436C9.32431 12.6955 8.2866 11.2824 7.51383 9.64122C7.39607 9.39099 7.27832 9.01564 7.41079 8.68445C7.55062 8.32383 7.92597 8.1104 8.20564 8C8.25716 7.97792 8.27924 7.97792 8.30132 7.97792C8.67666 8.19871 9.63342 9.35419 9.81741 9.81049C9.78798 9.83993 9.73646 9.88409 9.63342 9.96504V9.95768Z" fill="#19163B"/>
</svg>
