<svg width="18" height="19" viewBox="0 0 18 19" fill="none" xmlns="http://www.w3.org/2000/svg">
<path d="M9 0C4.03372 0 0 4.03372 0 9C0 10.9424 0.789086 12.6861 1.12569 13.3427C1.28571 13.6517 1.66094 13.7731 1.96996 13.6131C2.27897 13.4531 2.40037 13.0779 2.24034 12.7689C1.94237 12.1895 1.25261 10.6665 1.25261 8.99448C1.25261 4.72348 4.729 1.24709 9 1.24709C13.271 1.24709 16.7474 4.72348 16.7474 8.99448C16.7474 13.2655 13.271 16.7419 9 16.7419C7.32802 16.7419 6.00368 16.1625 5.50705 15.9142C5.35806 15.8424 5.19252 15.8259 5.0325 15.8755L1.09258 17.1337C0.761496 17.2385 0.579399 17.5917 0.689761 17.9172C0.772532 18.1821 1.02085 18.3532 1.28571 18.3532C1.34641 18.3532 1.41263 18.3421 1.47885 18.3256L5.18148 17.1447C5.95402 17.5034 7.31698 17.9945 9 17.9945C13.9608 17.9945 18 13.9552 18 8.99448C18 4.03372 13.9608 0 9 0Z" fill="#19163B"/>
<path d="M7.22342 7.46595C6.94752 7.67564 6.89786 8.06743 7.10754 8.34333C7.31723 8.61923 7.70901 8.6689 7.98492 8.45921C8.17805 8.31022 8.68572 7.92396 8.60846 7.22316C8.56432 6.8093 8.15598 6.23542 7.82489 5.8326C7.3393 5.24216 6.92545 4.88901 6.6054 4.78968C6.3019 4.69587 5.99289 4.71243 5.68388 4.83383C5.0493 5.08766 4.59681 5.50703 4.38713 6.05332C4.17744 6.58306 4.21607 7.1735 4.49749 7.76393C5.14862 9.14345 6.02048 10.3298 7.09099 11.301C7.09099 11.301 7.10202 11.3065 7.10202 11.3121C8.18357 12.2667 9.46377 13.0061 10.9095 13.5027C11.1854 13.5965 11.4503 13.6462 11.7096 13.6462C12.0352 13.6462 12.3442 13.5745 12.6201 13.4255C13.1388 13.1551 13.503 12.6585 13.6906 11.9963C13.7789 11.6763 13.7568 11.3672 13.6354 11.0748C13.503 10.7603 13.1057 10.3905 12.4656 9.97668C12.0242 9.68974 11.4172 9.35314 10.9978 9.35314C10.297 9.35314 9.96591 9.90495 9.839 10.1146C9.66242 10.4126 9.75622 10.7934 10.0487 10.9755C10.3411 11.152 10.7274 11.0582 10.9095 10.7658C10.9592 10.683 10.9923 10.6389 11.0088 10.6168C11.362 10.7216 12.3056 11.3397 12.4987 11.599C12.4987 11.6156 12.4987 11.6321 12.4932 11.6707C12.4325 11.8915 12.3056 12.1894 12.0462 12.3219C11.8034 12.4488 11.522 12.3936 11.3234 12.3219C10.0376 11.8804 8.90092 11.2238 7.94077 10.3795C6.99166 9.51868 6.21361 8.45921 5.63421 7.22868C5.54592 7.04106 5.45764 6.75964 5.55696 6.51133C5.6618 6.24094 5.94323 6.08091 6.15291 5.99814C6.19154 5.98159 6.2081 5.98159 6.22465 5.98159C6.50607 6.14713 7.22342 7.01347 7.36138 7.35559C7.3393 7.37766 7.30068 7.41077 7.22342 7.47147V7.46595Z" fill="#19163B"/>
</svg>
