<svg width="116" height="33" viewBox="0 0 116 33" fill="none" xmlns="http://www.w3.org/2000/svg">
<path d="M101.72 21.64V0.75H91.05V9.77C88.48 4.01 82.72 0 76.02 0C69.32 0 63.68 3.92 61.08 9.57C58.47 3.92 52.76 0 46.13 0C39.5 0 33.95 3.82 31.29 9.34C28.64 3.82 22.99 0 16.46 0C7.37 0 0 7.38 0 16.48C0 25.58 7.37 32.96 16.46 32.96C23 32.96 28.64 29.14 31.3 23.61C33.96 29.14 39.6 32.96 46.14 32.96C52.68 32.96 58.48 29.04 61.08 23.39C63.69 29.04 69.4 32.96 76.02 32.96C82.64 32.96 88.48 28.95 91.05 23.21V32.22H115.56V21.63H101.72V21.64ZM16.46 22.51C13.13 22.51 10.43 19.81 10.43 16.48C10.43 13.15 13.13 10.45 16.46 10.45C19.79 10.45 22.49 13.15 22.49 16.48C22.49 19.81 19.79 22.51 16.46 22.51ZM53.26 18.79C53.53 19.16 53.75 19.58 53.9 20.04C54.65 22.35 53.39 24.84 51.07 25.59C49.2 26.2 47.22 25.49 46.13 23.97C45.86 24.35 45.53 24.68 45.14 24.97C43.17 26.4 40.42 25.96 38.99 24C37.83 22.41 37.9 20.3 39.01 18.8C38.57 18.66 38.15 18.45 37.75 18.16C35.78 16.73 35.35 13.98 36.78 12.01C37.94 10.42 39.96 9.83 41.73 10.42C41.73 9.96 41.79 9.49 41.95 9.03C42.7 6.72 45.19 5.45 47.5 6.2C49.37 6.81 50.56 8.55 50.54 10.42C50.98 10.27 51.45 10.19 51.93 10.19C54.36 10.19 56.33 12.16 56.33 14.59C56.33 16.56 55.04 18.22 53.26 18.79ZM91.05 20.01H80.91C79.82 21.52 78.04 22.51 76.03 22.51C72.7 22.51 70 19.81 70 16.48C70 13.15 72.7 10.45 76.03 10.45C78.07 10.45 79.87 11.46 80.96 13.02H91.05V20.01Z" fill="#4D4D4D"/>
<path d="M53.5996 14.05C53.4596 13.62 52.9996 13.38 52.5696 13.52C52.1996 13.64 51.9796 13.99 52.0096 14.36L47.9996 15.66C47.9396 15.53 47.8696 15.4 47.7796 15.29L49.1696 14.04C49.3196 14.12 49.4896 14.14 49.6596 14.08C49.9896 13.97 50.1696 13.61 50.0696 13.28C49.9596 12.95 49.5996 12.77 49.2696 12.87C48.9396 12.98 48.7596 13.34 48.8596 13.67C48.8596 13.69 48.8796 13.71 48.8796 13.73L47.4996 14.97C47.3896 14.87 47.2796 14.79 47.1496 14.72L47.9096 13.01C48.0696 13.01 48.2396 12.97 48.3696 12.85C48.6296 12.62 48.6496 12.22 48.4196 11.96C48.1896 11.7 47.7896 11.68 47.5296 11.91C47.2696 12.14 47.2496 12.54 47.4796 12.8C47.4996 12.82 47.5096 12.83 47.5296 12.85L46.7696 14.55C46.6396 14.51 46.4996 14.48 46.3496 14.46V10.22C46.6996 10.12 46.9496 9.80999 46.9496 9.42999C46.9496 8.97999 46.5796 8.60999 46.1296 8.60999C45.6796 8.60999 45.3096 8.97999 45.3096 9.42999C45.3096 9.80999 45.5696 10.13 45.9296 10.22V14.45C45.7896 14.46 45.6496 14.49 45.5096 14.54L44.7496 12.83C44.8696 12.72 44.9396 12.56 44.9396 12.38C44.9396 12.03 44.6596 11.75 44.3096 11.75C43.9596 11.75 43.6796 12.03 43.6796 12.38C43.6796 12.73 43.9596 13.01 44.3096 13.01C44.3296 13.01 44.3596 13.01 44.3796 13.01L45.1396 14.71C45.0096 14.78 44.8996 14.86 44.7896 14.96L43.3996 13.71C43.4596 13.56 43.4596 13.38 43.3896 13.22C43.2496 12.9 42.8696 12.76 42.5496 12.9C42.2296 13.04 42.0896 13.42 42.2296 13.74C42.3696 14.06 42.7496 14.2 43.0696 14.06C43.0896 14.06 43.1096 14.04 43.1296 14.03L44.5096 15.27C44.4196 15.38 44.3496 15.51 44.2896 15.64L40.2696 14.33C40.2896 13.97 40.0596 13.63 39.7096 13.51C39.2796 13.37 38.8196 13.61 38.6796 14.04C38.5396 14.47 38.7796 14.93 39.2096 15.07C39.5796 15.19 39.9596 15.04 40.1596 14.73L44.1696 16.03C44.1396 16.17 44.1196 16.31 44.1196 16.46L42.2796 16.65C42.2096 16.5 42.0796 16.38 41.9096 16.33C41.5796 16.22 41.2196 16.4 41.1096 16.74C40.9996 17.07 41.1796 17.43 41.5196 17.54C41.8496 17.65 42.2096 17.47 42.3196 17.13C42.3196 17.11 42.3296 17.09 42.3396 17.06L44.1696 16.87C44.1996 17.02 44.2396 17.16 44.2996 17.29L42.6996 18.21C42.5696 18.11 42.4096 18.05 42.2296 18.07C41.8796 18.11 41.6296 18.42 41.6696 18.77C41.7096 19.12 42.0196 19.37 42.3696 19.33C42.7196 19.29 42.9696 18.98 42.9296 18.63C42.9296 18.61 42.9296 18.58 42.9196 18.56L44.5096 17.64C44.5996 17.76 44.6896 17.87 44.7996 17.97L42.3296 21.37C41.9896 21.24 41.5996 21.35 41.3796 21.65C41.1096 22.02 41.1996 22.53 41.5596 22.79C41.9296 23.06 42.4396 22.97 42.6996 22.61C42.9296 22.3 42.8996 21.88 42.6596 21.6L45.1296 18.21C45.2596 18.28 45.3896 18.35 45.5296 18.39L45.1496 20.18C44.9896 20.2 44.8396 20.29 44.7296 20.43C44.5196 20.71 44.5896 21.11 44.8696 21.31C45.1496 21.52 45.5496 21.45 45.7496 21.17C45.9596 20.89 45.8896 20.49 45.6096 20.29C45.5896 20.28 45.5696 20.26 45.5496 20.25L45.9296 18.47C46.0096 18.47 46.0796 18.48 46.1596 18.48C46.2296 18.48 46.2996 18.48 46.3696 18.47L46.7496 20.26C46.6096 20.35 46.5096 20.49 46.4696 20.66C46.3996 21 46.6196 21.34 46.9596 21.41C47.2996 21.48 47.6396 21.26 47.7096 20.92C47.7796 20.58 47.5596 20.24 47.2196 20.17C47.1996 20.17 47.1696 20.17 47.1496 20.16L46.7696 18.38C46.9096 18.33 47.0496 18.27 47.1696 18.2L49.6396 21.6C49.4096 21.88 49.3896 22.29 49.6196 22.59C49.8896 22.96 50.3996 23.04 50.7596 22.77C51.1296 22.5 51.2096 21.99 50.9396 21.63C50.7096 21.32 50.3096 21.21 49.9696 21.35L47.4996 17.95C47.6096 17.85 47.7096 17.74 47.7896 17.62L49.3896 18.54C49.3596 18.7 49.3896 18.87 49.4996 19.02C49.7096 19.3 50.0996 19.37 50.3796 19.16C50.6596 18.95 50.7296 18.56 50.5196 18.28C50.3096 18 49.9196 17.93 49.6396 18.14C49.6196 18.15 49.5996 18.17 49.5896 18.18L47.9996 17.26C48.0596 17.13 48.0996 16.99 48.1296 16.84L49.9696 17.03C50.0096 17.19 50.1096 17.33 50.2696 17.42C50.5696 17.59 50.9596 17.49 51.1296 17.19C51.2996 16.89 51.1996 16.5 50.8996 16.33C50.5996 16.16 50.2096 16.26 50.0396 16.56C50.0296 16.58 50.0196 16.6 50.0096 16.62L48.1796 16.43C48.1796 16.28 48.1596 16.14 48.1296 16L52.1396 14.7C52.3396 15 52.7196 15.15 53.0796 15.03C53.5096 14.89 53.7496 14.43 53.6096 14L53.5996 14.05Z" fill="#4D4D4D"/>
</svg>
