<svg viewBox="0 0 18 18" xmlns="http://www.w3.org/2000/svg">
<path d="M8.57103 0C3.84146 0 0 3.84146 0 8.57103C0 10.4208 0.751476 12.0814 1.07204 12.7068C1.22443 13.0011 1.58178 13.1167 1.87606 12.9643C2.17035 12.8119 2.28596 12.4545 2.13356 12.1602C1.84979 11.6085 1.1929 10.1581 1.1929 8.56577C1.1929 4.49834 4.5036 1.18765 8.57103 1.18765C12.6385 1.18765 15.9492 4.49834 15.9492 8.56577C15.9492 12.6332 12.6385 15.9439 8.57103 15.9439C6.97874 15.9439 5.71752 15.3921 5.24457 15.1556C5.10268 15.0873 4.94503 15.0716 4.79263 15.1189L1.04051 16.317C0.7252 16.4169 0.551783 16.7532 0.656884 17.0632C0.735711 17.3155 0.972189 17.4784 1.22443 17.4784C1.28224 17.4784 1.3453 17.4679 1.40836 17.4521L4.93452 16.3275C5.67023 16.6691 6.96823 17.1368 8.57103 17.1368C13.2953 17.1368 17.1421 13.2901 17.1421 8.56577C17.1421 3.84146 13.2953 0 8.57103 0Z"/>
<path d="M6.87876 7.10998C6.61601 7.30967 6.56871 7.68278 6.7684 7.94554C6.9681 8.20829 7.34121 8.25559 7.60396 8.05589C7.78789 7.91401 8.27136 7.54615 8.19778 6.87876C8.15574 6.48463 7.76687 5.9381 7.45156 5.55448C6.98912 4.99218 6.59499 4.65586 6.29019 4.56127C6.00116 4.47193 5.70688 4.4877 5.41259 4.60331C4.80826 4.84504 4.37734 5.24443 4.17765 5.76468C3.97796 6.26917 4.01474 6.83146 4.28275 7.39375C4.90285 8.70752 5.73315 9.83736 6.75264 10.7623C6.75264 10.7623 6.76315 10.7675 6.76315 10.7728C7.79314 11.6819 9.01232 12.3861 10.3892 12.859C10.6519 12.9484 10.9041 12.9957 11.1511 12.9957C11.4612 12.9957 11.7555 12.9273 12.0182 12.7855C12.5122 12.528 12.859 12.055 13.0377 11.4244C13.1218 11.1196 13.1008 10.8253 12.9852 10.5468C12.859 10.2473 12.4807 9.89517 11.8711 9.50104C11.4507 9.22778 10.8726 8.90722 10.4732 8.90722C9.80584 8.90722 9.49053 9.43272 9.36967 9.63242C9.2015 9.91619 9.29084 10.2788 9.56936 10.4522C9.84788 10.6204 10.2157 10.531 10.3892 10.2525C10.4364 10.1737 10.468 10.1316 10.4837 10.1106C10.8201 10.2105 11.7187 10.799 11.9026 11.046C11.9026 11.0618 11.9026 11.0776 11.8974 11.1143C11.8396 11.3245 11.7187 11.6083 11.4717 11.7344C11.2405 11.8553 10.9725 11.8028 10.7833 11.7344C9.55885 11.314 8.4763 10.6887 7.56192 9.88466C6.65805 9.06487 5.91708 8.05589 5.3653 6.88401C5.28122 6.70534 5.19714 6.43733 5.29173 6.20085C5.39157 5.94335 5.65958 5.79096 5.85928 5.71213C5.89606 5.69636 5.91183 5.69636 5.92759 5.69636C6.1956 5.85402 6.87876 6.67906 7.01014 7.00488C6.98912 7.0259 6.95233 7.05743 6.87876 7.11523V7.10998Z"/>
</svg>
