<svg  viewBox="0 0 20 16"  xmlns="http://www.w3.org/2000/svg">
<path d="M0 14.21C1.81443 15.34 3.96907 16 6.28866 16C13.9072 16 18.2062 9.75999 17.9485 4.15999C18.7526 3.59999 19.4433 2.89999 20 2.09999C19.268 2.41999 18.4742 2.62999 17.6495 2.72999C18.4948 2.23999 19.1443 1.45999 19.4536 0.529991C18.6598 0.989991 17.7835 1.31999 16.8454 1.49999C16.0928 0.72999 15.0309 0.23999 13.8557 0.23999C11.2062 0.23999 9.25773 2.63999 9.85567 5.12999C6.4433 4.95999 3.42268 3.37999 1.40206 0.96999C0.329894 2.75999 0.845357 5.09999 2.6701 6.27999C2 6.25999 1.36082 6.07999 0.81443 5.77999C0.773193 7.61999 2.13402 9.34999 4.10309 9.72999C3.52577 9.87999 2.8969 9.91999 2.24742 9.79999C2.77319 11.38 4.27835 12.53 6.08247 12.56C4.36082 13.87 2.18557 14.46 0.0103075 14.21H0Z" />
</svg>
