<svg  viewBox="0 0 54 56"  xmlns="http://www.w3.org/2000/svg">
<path fill-rule="evenodd" clip-rule="evenodd" d="M49.443 33.1695C49.6918 33.0497 49.9906 33.1542 50.1105 33.403C50.6178 34.4559 51.2974 35.4416 52.1295 36.3025L53.4712 37.6939L48.4843 46.3371L46.6095 45.8652C46.6092 45.8652 46.6097 45.8653 46.6095 45.8652C43.644 45.1289 40.516 45.6433 37.8608 47.1826L37.7445 47.25H37.7332C35.0917 48.781 33.1075 51.2174 32.2604 54.1385C32.2604 54.1388 32.2605 54.1383 32.2604 54.1385L31.7268 56H21.7432L21.2094 54.1378C20.3708 51.2026 18.361 48.7607 15.7084 47.2294C15.6468 47.2016 15.5973 47.1694 15.5743 47.1539C12.9228 45.6217 9.81159 45.1199 6.86092 45.8552L6.85902 45.8556L4.9845 46.3149L-0.00115967 37.6739L1.33952 36.2835C1.33962 36.2834 1.33941 36.2836 1.33952 36.2835C2.04886 35.5454 2.65242 34.7213 3.13071 33.8412C3.26257 33.5986 3.56615 33.5088 3.80878 33.6407C4.0514 33.7725 4.1412 34.0761 4.00933 34.3187C3.48769 35.2786 2.83105 36.1747 2.06053 36.9765L1.2412 37.8261L5.47555 45.165L6.61912 44.8848C6.6194 44.8848 6.61885 44.8849 6.61912 44.8848C9.84266 44.0818 13.2258 44.6366 16.0908 46.2974L16.1043 46.3053L16.1174 46.314L16.1217 46.3168L16.1356 46.3215L16.1789 46.3463C19.0529 47.996 21.2523 50.6479 22.1708 53.8626L22.4968 55H30.9732L31.2994 53.8622L31.2998 53.8608C32.228 50.659 34.4056 48.0069 37.2811 46.3564L37.3967 46.29H37.4068C40.2613 44.6506 43.6342 44.0958 46.8506 44.8947L46.852 44.8951L47.9957 45.1829L52.2288 37.8461L51.4105 36.9975C50.5027 36.0583 49.7623 34.9841 49.2096 33.837C49.0897 33.5882 49.1942 33.2894 49.443 33.1695ZM37.2727 46.364C37.27 46.3657 37.2723 46.3642 37.2754 46.3622L37.2727 46.364ZM37.3154 46.3422C37.313 46.3438 37.311 46.3451 37.3116 46.3447L37.3127 46.344L37.3154 46.3422ZM37.8674 47.176C37.87 47.1742 37.8677 47.1758 37.8646 47.1778L37.8674 47.176ZM37.8274 47.196C37.83 47.1942 37.8277 47.1958 37.8246 47.1978L37.8274 47.196Z" />
<path fill-rule="evenodd" clip-rule="evenodd" d="M21.7532 0H31.7368L32.2704 1.8612C33.1191 4.7984 35.1201 7.23982 37.7716 8.77065C37.8332 8.79841 37.8828 8.83062 37.9057 8.84608C40.5572 10.3783 43.6684 10.8801 46.6191 10.1448L46.621 10.1444L48.4955 9.68505L53.4812 18.3261L52.1415 19.7154C52.1413 19.7157 52.1417 19.7152 52.1415 19.7154C51.3172 20.5782 50.6362 21.5565 50.1188 22.6103C49.9972 22.8582 49.6976 22.9605 49.4497 22.8388C49.2018 22.7171 49.0995 22.4175 49.2212 22.1697C49.7837 21.0238 50.5231 19.9616 51.4185 19.0246L51.4201 19.0229L52.2388 18.1739L48.0045 10.835L46.8609 11.1152C46.8606 11.1152 46.8612 11.1151 46.8609 11.1152C43.6374 11.9182 40.2542 11.3634 37.3892 9.70257L37.3757 9.69471L37.3627 9.68603L37.3583 9.68314L37.3445 9.67853L37.3011 9.65364C34.4262 8.00344 32.238 5.35152 31.3097 2.1388L30.9832 1H22.5068L22.1806 2.13778L22.1802 2.13922C21.252 5.34097 19.0744 7.99308 16.1989 9.64364L16.0833 9.71H16.0732C13.2187 11.3494 9.84585 11.9042 6.62948 11.1053L6.62798 11.1049L5.48416 10.817L1.2413 18.164L2.05851 19.0115C2.05871 19.0117 2.0583 19.0113 2.05851 19.0115C2.7908 19.7648 3.40635 20.6104 3.90538 21.4941C4.04117 21.7346 3.95632 22.0396 3.71587 22.1754C3.47542 22.3112 3.17042 22.2263 3.03463 21.9859C2.5738 21.1698 2.00895 20.3951 1.34151 19.7085L1.34009 19.7071L-0.00128174 18.316L4.99586 9.66297L6.87054 10.1347C6.8707 10.1348 6.87037 10.1347 6.87054 10.1347C9.83614 10.8712 12.964 10.3567 15.6192 8.81743L15.7356 8.75H15.7468C18.3883 7.219 20.3725 4.7826 21.2196 1.8615C21.2196 1.86126 21.2195 1.86174 21.2196 1.8615L21.7532 0Z" />
<path fill-rule="evenodd" clip-rule="evenodd" d="M26.74 19.93C22.4836 19.93 19 23.5244 19 28C19 32.4756 22.4836 36.07 26.74 36.07C30.9964 36.07 34.48 32.4756 34.48 28C34.48 23.5244 30.9964 19.93 26.74 19.93ZM18 28C18 23.0095 21.8947 18.93 26.74 18.93C31.5853 18.93 35.48 23.0095 35.48 28C35.48 32.9905 31.5853 37.07 26.74 37.07C21.8947 37.07 18 32.9905 18 28Z" />
<path d="M26.74 21.87C25.93 21.87 25.16 22.05 24.46 22.36C26.53 23.3 27.98 25.47 27.98 27.99C27.98 30.51 26.53 32.69 24.46 33.62C25.16 33.94 25.93 34.11 26.74 34.11C29.94 34.11 32.54 31.36 32.54 27.98C32.54 24.6 29.94 21.85 26.74 21.85V21.87Z" />
<path fill-rule="evenodd" clip-rule="evenodd" d="M39.48 28C39.48 27.7239 39.7038 27.5 39.98 27.5H46.95C47.2261 27.5 47.45 27.7239 47.45 28C47.45 28.2761 47.2261 28.5 46.95 28.5H39.98C39.7038 28.5 39.48 28.2761 39.48 28Z" />
<path fill-rule="evenodd" clip-rule="evenodd" d="M38.26 22.24C38.26 21.9638 38.4839 21.74 38.76 21.74H43.46C43.7362 21.74 43.96 21.9638 43.96 22.24C43.96 22.5161 43.7362 22.74 43.46 22.74H38.76C38.4839 22.74 38.26 22.5161 38.26 22.24Z" />
<path fill-rule="evenodd" clip-rule="evenodd" d="M38.28 33.71C38.28 33.4338 38.5039 33.21 38.78 33.21H43.37C43.6462 33.21 43.87 33.4338 43.87 33.71C43.87 33.9861 43.6462 34.21 43.37 34.21H38.78C38.5039 34.21 38.28 33.9861 38.28 33.71Z" />
<path fill-rule="evenodd" clip-rule="evenodd" d="M48.88 26.57C48.0862 26.57 47.45 27.2061 47.45 28C47.45 28.7939 48.0862 29.43 48.88 29.43C49.6739 29.43 50.31 28.7939 50.31 28C50.31 27.2061 49.6739 26.57 48.88 26.57ZM46.45 28C46.45 26.6539 47.5339 25.57 48.88 25.57C50.2262 25.57 51.31 26.6539 51.31 28C51.31 29.3462 50.2262 30.43 48.88 30.43C47.5339 30.43 46.45 29.3462 46.45 28Z" />
<path fill-rule="evenodd" clip-rule="evenodd" d="M45.39 20.81C44.6003 20.81 43.96 21.4502 43.96 22.24C43.96 23.0298 44.6003 23.67 45.39 23.67C46.1798 23.67 46.82 23.0298 46.82 22.24C46.82 21.4502 46.1798 20.81 45.39 20.81ZM42.96 22.24C42.96 20.8979 44.048 19.81 45.39 19.81C46.7321 19.81 47.82 20.8979 47.82 22.24C47.82 23.582 46.7321 24.67 45.39 24.67C44.048 24.67 42.96 23.582 42.96 22.24Z" />
<path fill-rule="evenodd" clip-rule="evenodd" d="M45.3 32.28C44.5102 32.28 43.87 32.9202 43.87 33.71C43.87 34.4998 44.5102 35.14 45.3 35.14C46.0898 35.14 46.73 34.4998 46.73 33.71C46.73 32.9202 46.0898 32.28 45.3 32.28ZM42.87 33.71C42.87 32.3679 43.9579 31.28 45.3 31.28C46.642 31.28 47.73 32.3679 47.73 33.71C47.73 35.052 46.642 36.14 45.3 36.14C43.9579 36.14 42.87 35.052 42.87 33.71Z" />
<path fill-rule="evenodd" clip-rule="evenodd" d="M6.03003 28C6.03003 27.7239 6.25389 27.5 6.53003 27.5H13.51C13.7862 27.5 14.01 27.7239 14.01 28C14.01 28.2761 13.7862 28.5 13.51 28.5H6.53003C6.25389 28.5 6.03003 28.2761 6.03003 28Z" />
<path fill-rule="evenodd" clip-rule="evenodd" d="M9.52002 22.24C9.52002 21.9638 9.74388 21.74 10.02 21.74H14.72C14.9962 21.74 15.22 21.9638 15.22 22.24C15.22 22.5161 14.9962 22.74 14.72 22.74H10.02C9.74388 22.74 9.52002 22.5161 9.52002 22.24Z" />
<path fill-rule="evenodd" clip-rule="evenodd" d="M9.62 33.71C9.62 33.4338 9.84385 33.21 10.12 33.21H14.71C14.9861 33.21 15.21 33.4338 15.21 33.71C15.21 33.9861 14.9861 34.21 14.71 34.21H10.12C9.84385 34.21 9.62 33.9861 9.62 33.71Z" />
<path fill-rule="evenodd" clip-rule="evenodd" d="M4.59998 26.57C3.81022 26.57 3.16998 27.2102 3.16998 28C3.16998 28.7898 3.81022 29.43 4.59998 29.43C5.38975 29.43 6.02998 28.7898 6.02998 28C6.02998 27.2102 5.38975 26.57 4.59998 26.57ZM2.16998 28C2.16998 26.658 3.25793 25.57 4.59998 25.57C5.94203 25.57 7.02998 26.658 7.02998 28C7.02998 29.3421 5.94203 30.43 4.59998 30.43C3.25793 30.43 2.16998 29.3421 2.16998 28Z" />
<path fill-rule="evenodd" clip-rule="evenodd" d="M8.09003 20.81C7.30027 20.81 6.66003 21.4502 6.66003 22.24C6.66003 23.0298 7.30027 23.67 8.09003 23.67C8.8798 23.67 9.52003 23.0298 9.52003 22.24C9.52003 21.4502 8.8798 20.81 8.09003 20.81ZM5.66003 22.24C5.66003 20.8979 6.74798 19.81 8.09003 19.81C9.43209 19.81 10.52 20.8979 10.52 22.24C10.52 23.582 9.43209 24.67 8.09003 24.67C6.74798 24.67 5.66003 23.582 5.66003 22.24Z" />
<path fill-rule="evenodd" clip-rule="evenodd" d="M8.19001 32.28C7.40024 32.28 6.76001 32.9202 6.76001 33.71C6.76001 34.4998 7.40024 35.14 8.19001 35.14C8.97978 35.14 9.62001 34.4998 9.62001 33.71C9.62001 32.9202 8.97978 32.28 8.19001 32.28ZM5.76001 33.71C5.76001 32.3679 6.84796 31.28 8.19001 31.28C9.53206 31.28 10.62 32.3679 10.62 33.71C10.62 35.052 9.53206 36.14 8.19001 36.14C6.84796 36.14 5.76001 35.052 5.76001 33.71Z" />
<path fill-rule="evenodd" clip-rule="evenodd" d="M14.4986 33.2623C14.7514 33.1511 15.0465 33.2659 15.1577 33.5186C17.1745 38.1023 21.6043 41.27 26.74 41.27C31.8757 41.27 36.3055 38.1023 38.3224 33.5186C38.4336 33.2659 38.7286 33.1511 38.9814 33.2623C39.2341 33.3736 39.3489 33.6686 39.2377 33.9214C37.0745 38.8377 32.3043 42.27 26.74 42.27C21.1757 42.27 16.4055 38.8377 14.2424 33.9214C14.1311 33.6686 14.2459 33.3736 14.4986 33.2623Z" />
<path fill-rule="evenodd" clip-rule="evenodd" d="M14.9236 21.7833C15.1758 21.8957 15.2891 22.1913 15.1767 22.4435C14.4253 24.1294 14.01 26.0101 14.01 28C14.01 28.2761 13.7862 28.5 13.51 28.5C13.2339 28.5 13.01 28.2761 13.01 28C13.01 25.8699 13.4548 23.8505 14.2633 22.0364C14.3757 21.7842 14.6713 21.6709 14.9236 21.7833Z" />
<path fill-rule="evenodd" clip-rule="evenodd" d="M16.003 19.126C18.5108 15.8514 22.3935 13.74 26.75 13.74C31.1065 13.74 34.9892 15.8514 37.497 19.126C37.6648 19.3452 37.6232 19.6591 37.404 19.827C37.1848 19.9949 36.8709 19.9532 36.703 19.734C34.3708 16.6886 30.7735 14.74 26.75 14.74C22.7265 14.74 19.1292 16.6886 16.797 19.734C16.6291 19.9532 16.3152 19.9949 16.096 19.827C15.8767 19.6591 15.8351 19.3452 16.003 19.126Z" />
<path fill-rule="evenodd" clip-rule="evenodd" d="M38.5665 21.7833C38.8187 21.6709 39.1143 21.7842 39.2267 22.0364C40.0353 23.8505 40.48 25.8699 40.48 28C40.48 28.2761 40.2562 28.5 39.98 28.5C39.7039 28.5 39.48 28.2761 39.48 28C39.48 26.0101 39.0648 24.1294 38.3133 22.4435C38.2009 22.1913 38.3142 21.8957 38.5665 21.7833Z" />
</svg>
