<svg width="66" height="66" viewBox="0 0 66 66" fill="none" xmlns="http://www.w3.org/2000/svg">
<path fill-rule="evenodd" clip-rule="evenodd" d="M8.92089 39.7886C9.44249 41.7115 10.221 43.5332 11.1552 45.1914L8.3993 48.6713C7.5118 49.8157 7.62079 51.4272 8.6562 52.4626L13.3817 57.1881C14.3704 58.1768 15.9819 58.278 17.1263 57.3983L20.5595 54.6424C22.3812 55.6856 24.2496 56.4641 26.227 57.0324L26.7486 61.4543C26.9043 62.9101 28.1032 64 29.559 64H36.2619C37.6632 64 38.9088 62.9101 39.0645 61.4543L39.5316 57.1881C41.6647 56.6665 43.6889 55.8413 45.5573 54.7436L48.8815 57.3905C50.0259 58.278 51.6374 58.169 52.6728 57.1803L57.4061 52.4548C58.4415 51.4116 58.496 49.8001 57.6163 48.6635L55.0161 45.386C56.106 43.5176 56.939 41.5402 57.5073 39.4616L61.5088 38.9945C62.9101 38.8388 64 37.6399 64 36.1919V29.489C64 28.0876 62.9101 26.842 61.5088 26.6863L57.5618 26.2192C57.0402 24.1951 56.2072 22.2177 55.1718 20.396L57.6163 17.3287C58.5038 16.1843 58.3948 14.5728 57.4061 13.5374L52.6728 8.80412C51.6296 7.81542 50.0181 7.71421 48.8815 8.59392L45.9154 10.9372C43.9925 9.84731 41.9139 8.95982 39.7808 8.39151L39.3137 4.54571C39.158 3.0899 37.9124 2 36.511 2H29.8081C28.3523 2 27.1534 3.0899 26.9977 4.54571L26.5306 8.39151C24.2963 8.9676 22.2177 9.84731 20.2403 11.0462L17.1185 8.60171C15.9741 7.722 14.3626 7.8232 13.3739 8.8119L8.64842 13.5452C7.60522 14.5806 7.50402 16.1921 8.39151 17.3365L10.9917 20.614C9.94852 22.4279 9.17001 24.4598 8.6562 26.4839L4.54571 26.951C3.0899 27.1612 2 28.3523 2 29.8081V36.5111C2 37.9124 3.0899 39.1113 4.54571 39.3137L8.91311 39.7808L8.92089 39.7886Z" stroke="url(#paint0_linear_728_3736)" stroke-width="3.4" stroke-miterlimit="10"/>
<path d="M33.0153 49.4342C42.0873 49.4342 49.4417 42.0798 49.4417 33.0078C49.4417 23.9357 42.0873 16.5814 33.0153 16.5814C23.9432 16.5814 16.5889 23.9357 16.5889 33.0078C16.5889 42.0798 23.9432 49.4342 33.0153 49.4342Z" stroke="url(#paint1_linear_728_3736)" stroke-width="2" stroke-miterlimit="10"/>
<path fill-rule="evenodd" clip-rule="evenodd" d="M36.1214 27.6205H29.9012L26.7949 33.0078L29.9012 38.3872H36.1214L39.2276 33.0078L36.1214 27.6205Z" stroke="url(#paint2_linear_728_3736)" stroke-width="2" stroke-miterlimit="10"/>
<defs>
<linearGradient id="paint0_linear_728_3736" x1="0.497489" y1="33.0078" x2="65.5259" y2="33.0078" gradientUnits="userSpaceOnUse">
<stop stop-color="#01ABFF"/>
<stop offset="0.12" stop-color="#00B6F9"/>
<stop offset="0.44" stop-color="#00CCEF"/>
<stop offset="0.74" stop-color="#00DAE9"/>
<stop offset="1" stop-color="#00DFE7"/>
</linearGradient>
<linearGradient id="paint1_linear_728_3736" x1="15.4523" y1="0.489698" x2="50.5705" y2="0.489698" gradientUnits="userSpaceOnUse">
<stop stop-color="#01ABFF"/>
<stop offset="0.12" stop-color="#00B6F9"/>
<stop offset="0.44" stop-color="#00CCEF"/>
<stop offset="0.74" stop-color="#00DAE9"/>
<stop offset="1" stop-color="#00DFE7"/>
</linearGradient>
<linearGradient id="paint2_linear_728_3736" x1="25.487" y1="33.0078" x2="40.5355" y2="33.0078" gradientUnits="userSpaceOnUse">
<stop stop-color="#01ABFF"/>
<stop offset="0.12" stop-color="#00B6F9"/>
<stop offset="0.44" stop-color="#00CCEF"/>
<stop offset="0.74" stop-color="#00DAE9"/>
<stop offset="1" stop-color="#00DFE7"/>
</linearGradient>
</defs>
</svg>
