<svg width="66" height="67" viewBox="0 0 66 67" fill="none" xmlns="http://www.w3.org/2000/svg">
<path d="M61.0583 45.7282H44.2621L43.9126 62.7573L27.8252 45.7282H4.94175C3.32039 45.7282 2 44.4078 2 42.7864V4.94175C2 3.32039 3.32039 2 4.94175 2H61.0583C62.6796 2 64 3.32039 64 4.94175V42.7864C64 44.4078 62.6796 45.7282 61.0583 45.7282Z" stroke="url(#paint0_linear_730_3839)" stroke-width="3.4" stroke-miterlimit="10"/>
<path d="M12 13.7767H52.5534" stroke="url(#paint1_linear_730_3839)" stroke-width="2" stroke-miterlimit="10"/>
<path d="M12 24H52.5534" stroke="url(#paint2_linear_730_3839)" stroke-width="2" stroke-miterlimit="10"/>
<path d="M12 34H36" stroke="url(#paint3_linear_730_3839)" stroke-width="2" stroke-miterlimit="10"/>
<defs>
<linearGradient id="paint0_linear_730_3839" x1="0.116505" y1="39.7573" x2="65.8932" y2="39.7573" gradientUnits="userSpaceOnUse">
<stop stop-color="#01ABFF"/>
<stop offset="0.12" stop-color="#00B6F9"/>
<stop offset="0.44" stop-color="#00CCEF"/>
<stop offset="0.74" stop-color="#00DAE9"/>
<stop offset="1" stop-color="#00DFE7"/>
</linearGradient>
<linearGradient id="paint1_linear_730_3839" x1="12" y1="14.2767" x2="52.5534" y2="14.2767" gradientUnits="userSpaceOnUse">
<stop stop-color="#01ABFF"/>
<stop offset="0.12" stop-color="#00B6F9"/>
<stop offset="0.44" stop-color="#00CCEF"/>
<stop offset="0.74" stop-color="#00DAE9"/>
<stop offset="1" stop-color="#00DFE7"/>
</linearGradient>
<linearGradient id="paint2_linear_730_3839" x1="12" y1="24.5" x2="52.5534" y2="24.5" gradientUnits="userSpaceOnUse">
<stop stop-color="#01ABFF"/>
<stop offset="0.12" stop-color="#00B6F9"/>
<stop offset="0.44" stop-color="#00CCEF"/>
<stop offset="0.74" stop-color="#00DAE9"/>
<stop offset="1" stop-color="#00DFE7"/>
</linearGradient>
<linearGradient id="paint3_linear_730_3839" x1="12" y1="34.5" x2="36" y2="34.5" gradientUnits="userSpaceOnUse">
<stop stop-color="#01ABFF"/>
<stop offset="0.12" stop-color="#00B6F9"/>
<stop offset="0.44" stop-color="#00CCEF"/>
<stop offset="0.74" stop-color="#00DAE9"/>
<stop offset="1" stop-color="#00DFE7"/>
</linearGradient>
</defs>
</svg>
