<?xml version="1.0" encoding="UTF-8"?><!DOCTYPE svg PUBLIC "-//W3C//DTD SVG 1.1//EN" "http://www.w3.org/Graphics/SVG/1.1/DTD/svg11.dtd"><svg xmlns="http://www.w3.org/2000/svg" xmlns:xlink="http://www.w3.org/1999/xlink"><defs><linearGradient id="portfolio-line-a" x1="1" y1="0" x2="600" y2="0" gradientUnits="userSpaceOnUse"><stop stop-color="#01ABFF"/><stop offset=".594" stop-color="#00DAE9"/></linearGradient><clipPath id="rental-icon-a"><path d="M0 0h60v60H0z"/></clipPath></defs><symbol id="ai-solutions" viewBox="0 0 55 54"><path fill-rule="evenodd" clip-rule="evenodd" d="M50.378 12.51a.51.51 0 0 1 .718-.065l3.741 3.116a.51.51 0 0 1 .184.392v16.37a.51.51 0 0 1-1.02 0v-16.13l-3.557-2.965a.51.51 0 0 1-.066-.718ZM40.64 12.51a.51.51 0 0 1-.066.718l-3.74 3.117a.51.51 0 0 1-.654-.784l3.741-3.116a.51.51 0 0 1 .718.065ZM4.622 12.51a.51.51 0 0 1-.066.718L1 16.192v16.131a.51.51 0 0 1-1.02 0v-16.37a.51.51 0 0 1 .184-.392l3.74-3.116a.51.51 0 0 1 .719.065ZM14.36 12.51a.51.51 0 0 1 .719-.065l3.74 3.116a.51.51 0 0 1-.652.784l-3.741-3.117a.51.51 0 0 1-.066-.718Z"/><path fill-rule="evenodd" clip-rule="evenodd" d="M22.626 12.51a.51.51 0 0 1-.066.718l-3.557 2.964v3.257a.51.51 0 0 1-1.02 0v-3.496a.51.51 0 0 1 .184-.392l3.74-3.116a.51.51 0 0 1 .719.065ZM32.374 12.51a.51.51 0 0 1 .718-.065l3.741 3.116a.51.51 0 0 1 .184.392v3.496a.51.51 0 0 1-1.02 0v-3.257l-3.557-2.964a.51.51 0 0 1-.066-.718ZM9.438.984c-2.59 0-4.803 2.424-4.803 5.562 0 3.138 2.212 5.563 4.803 5.563 2.592 0 4.804-2.425 4.804-5.563S12.03.984 9.438.984ZM3.615 6.546c0-3.57 2.545-6.582 5.823-6.582 3.279 0 5.824 3.013 5.824 6.582 0 3.57-2.545 6.583-5.824 6.583-3.278 0-5.823-3.013-5.823-6.583ZM27.5.984c-2.591 0-4.804 2.424-4.804 5.562 0 3.138 2.213 5.563 4.804 5.563s4.804-2.425 4.804-5.563S30.09.984 27.5.984Zm-5.824 5.562c0-3.57 2.546-6.582 5.824-6.582s5.824 3.013 5.824 6.582c0 3.57-2.546 6.583-5.824 6.583s-5.824-3.013-5.824-6.583ZM45.562.984c-2.592 0-4.804 2.424-4.804 5.562 0 3.138 2.212 5.563 4.804 5.563 2.59 0 4.803-2.425 4.803-5.563S48.153.984 45.563.984Zm-5.824 5.562c0-3.57 2.545-6.582 5.824-6.582 3.278 0 5.824 3.013 5.824 6.582 0 3.57-2.546 6.583-5.824 6.583-3.279 0-5.824-3.013-5.824-6.583ZM27.5 29.726c-4.695 0-8.497 3.79-8.497 8.461 0 4.672 3.802 8.462 8.497 8.462 4.694 0 8.497-3.79 8.497-8.462 0-4.67-3.803-8.46-8.497-8.46Zm-9.517 8.461c0-5.238 4.263-9.48 9.517-9.48s9.517 4.242 9.517 9.48c0 5.239-4.263 9.482-9.517 9.482s-9.517-4.243-9.517-9.482Z"/><path d="M27.5 31.47c-.739 0-1.448.124-2.11.351a6.722 6.722 0 0 1 4.546 6.366 6.722 6.722 0 0 1-4.546 6.367c.662.227 1.371.35 2.11.35 3.674 0 6.657-3.013 6.657-6.717 0-3.704-2.983-6.716-6.657-6.716Z"/><path fill-rule="evenodd" clip-rule="evenodd" d="M41.445 38.187a.51.51 0 0 1 .51-.51h7.626a.51.51 0 0 1 0 1.02h-7.626a.51.51 0 0 1-.51-.51ZM40.121 32.162a.51.51 0 0 1 .51-.51h5.142a.51.51 0 1 1 0 1.02H40.63a.51.51 0 0 1-.51-.51ZM40.14 44.156a.51.51 0 0 1 .51-.51h5.017a.51.51 0 0 1 0 1.02H40.65a.51.51 0 0 1-.51-.51Z"/><path fill-rule="evenodd" clip-rule="evenodd" d="M51.69 36.68c-.91 0-1.6.692-1.6 1.507 0 .816.69 1.508 1.6 1.508.91 0 1.601-.693 1.601-1.508 0-.815-.69-1.507-1.6-1.507Zm-2.62 1.507c0-1.42 1.19-2.527 2.62-2.527 1.431 0 2.621 1.107 2.621 2.527 0 1.421-1.19 2.528-2.62 2.528-1.43 0-2.62-1.107-2.62-2.528ZM47.873 30.654c-.91 0-1.6.693-1.6 1.508 0 .815.69 1.508 1.6 1.508.91 0 1.6-.693 1.6-1.508 0-.815-.69-1.508-1.6-1.508Zm-2.62 1.508c0-1.42 1.19-2.527 2.62-2.527 1.43 0 2.62 1.107 2.62 2.527 0 1.42-1.19 2.528-2.62 2.528-1.43 0-2.62-1.107-2.62-2.528ZM47.768 42.648c-.91 0-1.6.693-1.6 1.508 0 .815.69 1.508 1.6 1.508.91 0 1.6-.693 1.6-1.508 0-.815-.69-1.508-1.6-1.508Zm-2.62 1.508c0-1.421 1.19-2.528 2.62-2.528 1.43 0 2.62 1.107 2.62 2.528 0 1.42-1.19 2.528-2.62 2.528-1.43 0-2.62-1.108-2.62-2.528ZM4.91 38.187a.51.51 0 0 1 .51-.51h7.625a.51.51 0 1 1 0 1.02H5.419a.51.51 0 0 1-.51-.51ZM8.727 32.162a.51.51 0 0 1 .51-.51h5.132a.51.51 0 1 1 0 1.02H9.237a.51.51 0 0 1-.51-.51ZM8.833 44.156a.51.51 0 0 1 .51-.51h5.007a.51.51 0 1 1 0 1.02H9.343a.51.51 0 0 1-.51-.51Z"/><path fill-rule="evenodd" clip-rule="evenodd" d="M.699 38.187c0-1.42 1.19-2.527 2.62-2.527 1.43 0 2.62 1.107 2.62 2.527 0 1.421-1.19 2.528-2.62 2.528-1.43 0-2.62-1.107-2.62-2.528Zm2.62-1.507c-.91 0-1.6.692-1.6 1.507 0 .816.69 1.508 1.6 1.508.91 0 1.6-.693 1.6-1.508 0-.815-.69-1.507-1.6-1.507ZM4.507 32.162c0-1.42 1.19-2.527 2.62-2.527 1.43 0 2.62 1.107 2.62 2.527 0 1.42-1.19 2.528-2.62 2.528-1.43 0-2.62-1.107-2.62-2.528Zm2.62-1.508c-.91 0-1.6.693-1.6 1.508 0 .815.69 1.508 1.6 1.508.91 0 1.6-.693 1.6-1.508 0-.815-.69-1.508-1.6-1.508ZM7.232 42.648c-.905 0-1.6.696-1.6 1.508 0 .811.695 1.508 1.6 1.508.906 0 1.6-.697 1.6-1.508 0-.812-.694-1.508-1.6-1.508Zm-2.62 1.508c0-1.418 1.195-2.528 2.62-2.528 1.426 0 2.62 1.11 2.62 2.528 0 1.417-1.194 2.528-2.62 2.528-1.425 0-2.62-1.111-2.62-2.528ZM40.863 43.702a.51.51 0 0 1 .251.675 14.96 14.96 0 0 1-13.614 8.71 14.97 14.97 0 0 1-13.614-8.709.51.51 0 1 1 .927-.426A13.95 13.95 0 0 0 27.5 52.068a13.94 13.94 0 0 0 12.687-8.115.51.51 0 0 1 .676-.252ZM14.584 31.7a.51.51 0 0 1 .247.678 13.705 13.705 0 0 0-1.276 5.81.51.51 0 1 1-1.02 0c0-2.226.486-4.346 1.372-6.242a.51.51 0 0 1 .677-.246ZM15.793 28.897a14.97 14.97 0 0 1 11.707-5.62 14.97 14.97 0 0 1 11.707 5.62.51.51 0 0 1-.796.638A13.95 13.95 0 0 0 27.5 24.298a13.95 13.95 0 0 0-10.91 5.237.51.51 0 1 1-.797-.638ZM40.416 31.7a.51.51 0 0 1 .678.248 14.756 14.756 0 0 1 1.371 6.24.51.51 0 1 1-1.02 0c0-2.076-.453-4.04-1.276-5.81a.51.51 0 0 1 .248-.678Z"/></symbol><symbol id="arrow-bottom" viewBox="0 0 10 6"><path fill-rule="evenodd" clip-rule="evenodd" d="m.646 1.354.708-.708L5 4.293 8.646.646l.708.708L5 5.707.646 1.354Z"/></symbol><symbol id="blockchain" viewBox="0 0 57 55"><path fill-rule="evenodd" clip-rule="evenodd" d="M21.027 10.391a.5.5 0 0 1 .5.5v4.41h14.3v-4.41a.5.5 0 1 1 1 0v4.91a.5.5 0 0 1-.5.5h-15.3a.5.5 0 0 1-.5-.5v-4.91a.5.5 0 0 1 .5-.5ZM20.527.491a.5.5 0 0 1 .5-.5h15.3a.5.5 0 0 1 .5.5v4.9a.5.5 0 1 1-1 0v-4.4h-14.3v4.4a.5.5 0 1 1-1 0v-4.9ZM21.027 50.091a.5.5 0 0 1 .5.5v4.4h14.3v-4.4a.5.5 0 0 1 1 0v4.9a.5.5 0 0 1-.5.5h-15.3a.5.5 0 0 1-.5-.5v-4.9a.5.5 0 0 1 .5-.5ZM20.527 40.181a.5.5 0 0 1 .5-.5h15.3a.5.5 0 0 1 .5.5v4.91a.5.5 0 1 1-1 0v-4.41h-14.3v4.41a.5.5 0 1 1-1 0v-4.91ZM40.367 20.341a.5.5 0 0 1 .5-.5h4.91a.5.5 0 1 1 0 1h-4.41v14.3h4.41a.5.5 0 1 1 0 1h-4.91a.5.5 0 0 1-.5-.5v-15.3ZM50.777 20.341a.5.5 0 0 1 .5-.5h4.9a.5.5 0 0 1 .5.5v15.3a.5.5 0 0 1-.5.5h-4.9a.5.5 0 0 1 0-1h4.4v-14.3h-4.4a.5.5 0 0 1-.5-.5ZM11.077 20.341a.5.5 0 0 1 .5-.5h4.91a.5.5 0 0 1 .5.5v15.3a.5.5 0 0 1-.5.5h-4.91a.5.5 0 0 1 0-1h4.41v-14.3h-4.41a.5.5 0 0 1-.5-.5ZM.677 20.341a.5.5 0 0 1 .5-.5h4.9a.5.5 0 1 1 0 1h-4.4v14.3h4.4a.5.5 0 1 1 0 1h-4.9a.5.5 0 0 1-.5-.5v-15.3Z"/><path fill-rule="evenodd" clip-rule="evenodd" d="M48.527 31.731a.5.5 0 0 1 .5.5v15.61a.5.5 0 0 1-.5.5h-15.4a.5.5 0 1 1 0-1h14.9v-15.11a.5.5 0 0 1 .5-.5ZM8.827 32.301a.5.5 0 0 1 .5.5v14.54h14.75a.5.5 0 1 1 0 1H8.827a.5.5 0 0 1-.5-.5v-15.04a.5.5 0 0 1 .5-.5ZM8.327 8.141a.5.5 0 0 1 .5-.5h15.25a.5.5 0 1 1 0 1H9.327v14.54a.5.5 0 0 1-1 0V8.141ZM32.627 8.141a.5.5 0 0 1 .5-.5h15.4a.5.5 0 0 1 .5.5v15.38a.5.5 0 0 1-1 0V8.641h-14.9a.5.5 0 0 1-.5-.5Z"/><path d="M51.277 27.991c0 1.52-1.23 2.75-2.75 2.75s-2.75-1.23-2.75-2.75 1.23-2.75 2.75-2.75 2.75 1.23 2.75 2.75ZM11.577 27.991c0 1.52-1.23 2.75-2.75 2.75s-2.75-1.23-2.75-2.75 1.23-2.75 2.75-2.75 2.75 1.23 2.75 2.75ZM31.427 47.841c0 1.52-1.23 2.75-2.75 2.75s-2.75-1.23-2.75-2.75 1.23-2.75 2.75-2.75 2.75 1.23 2.75 2.75ZM31.427 8.141c0 1.52-1.23 2.75-2.75 2.75s-2.75-1.23-2.75-2.75 1.23-2.75 2.75-2.75 2.75 1.23 2.75 2.75Z"/><path fill-rule="evenodd" clip-rule="evenodd" d="M35.827 2.941a.5.5 0 0 1 .5-.5h17.4a.5.5 0 0 1 .5.5v17.4a.5.5 0 1 1-1 0v-16.9h-16.9a.5.5 0 0 1-.5-.5ZM2.747 2.941a.5.5 0 0 1 .5-.5h17.4a.5.5 0 1 1 0 1h-16.9v16.9a.5.5 0 0 1-1 0v-17.4ZM53.727 35.141a.5.5 0 0 1 .5.5v17.4a.5.5 0 0 1-.5.5h-17.4a.5.5 0 1 1 0-1h16.9v-16.9a.5.5 0 0 1 .5-.5ZM3.247 35.141a.5.5 0 0 1 .5.5v16.9h16.9a.5.5 0 1 1 0 1h-17.4a.5.5 0 0 1-.5-.5v-17.4a.5.5 0 0 1 .5-.5Z"/></symbol><symbol id="portfolio-line"><path d="M1 0v365h599" stroke-width="2"/></symbol><symbol id="quote-arrow" viewBox="0 0 16 8"><path fill-rule="evenodd" clip-rule="evenodd" d="m.956 1.376.659-.752 6.528 5.712L14.67.624l.658.752-7.186 6.288L.956 1.376Z"/></symbol><symbol id="rental-icon" viewBox="0 0 60 60"><g clip-path="url(#rental-icon-a)" fill-rule="evenodd" clip-rule="evenodd"><path d="M-.03 30 30.008-.036 60.043 30 30.007 60.036-.03 30Zm1.91 0 28.127 28.127L58.134 30 30.007 1.873 1.88 30Z"/><path d="M29.325 43.318V16.682h1.35v26.636h-1.35Z"/><path d="M16.682 29.325h26.636v1.35H16.682v-1.35Z"/></g></symbol><symbol id="rental-icon2"><path fill-rule="evenodd" clip-rule="evenodd" d="m29.325-.704 30.71 30.71-30.71 30.712V-.704Zm1.35 3.259v54.904l27.452-27.452L30.675 2.555Z"/><path fill-rule="evenodd" clip-rule="evenodd" d="M30.675 16.682v26.636h-1.35V16.682h1.35Z"/></symbol><symbol id="slider-next"><path fill-rule="evenodd" clip-rule="evenodd" d="M15.662 18.631.26 1.672 1.74.328l16.598 18.275L1.754 37.656.246 36.343l15.416-17.712Z"/></symbol><symbol id="solutions-bg-img" viewBox="0 0 727 660"><path d="M726.5 164 203.5 0H0v339.5L322.5 660H549l177.5-100V164Z"/></symbol><symbol id="twitter" viewBox="0 0 20 16"><path d="M0 14.21A11.857 11.857 0 0 0 6.289 16c7.618 0 11.917-6.24 11.66-11.84A8.24 8.24 0 0 0 20 2.1a8.39 8.39 0 0 1-2.35.63 4.021 4.021 0 0 0 1.804-2.2c-.794.46-1.67.79-2.609.97a4.178 4.178 0 0 0-2.99-1.26c-2.649 0-4.597 2.4-4 4.89C6.444 4.96 3.424 3.38 1.403.97.33 2.76.845 5.1 2.67 6.28c-.67-.02-1.31-.2-1.856-.5-.04 1.84 1.32 3.57 3.29 3.95-.578.15-1.207.19-1.857.07.526 1.58 2.031 2.73 3.835 2.76A8.43 8.43 0 0 1 .01 14.21H0Z"/></symbol><symbol id="web-3" viewBox="0 0 54 56"><path fill-rule="evenodd" clip-rule="evenodd" d="M49.443 33.17a.5.5 0 0 1 .668.233 11.13 11.13 0 0 0 2.019 2.9l1.341 1.39-4.987 8.644-1.875-.472c-2.965-.736-6.093-.222-8.748 1.318l-.116.067h-.012c-2.641 1.531-4.625 3.967-5.473 6.889L31.727 56h-9.984l-.534-1.862c-.838-2.935-2.848-5.377-5.5-6.909a.926.926 0 0 1-.135-.075c-2.651-1.532-5.762-2.034-8.713-1.299h-.002l-1.875.46L0 37.674l1.34-1.39a11.363 11.363 0 0 0 1.792-2.443.5.5 0 0 1 .878.478 12.362 12.362 0 0 1-1.948 2.657l-.82.85 4.235 7.339 1.143-.28c3.224-.803 6.607-.248 9.472 1.412l.013.008.013.009.005.003.014.005.043.024c2.874 1.65 5.073 4.302 5.992 7.517L22.497 55h8.476l.326-1.138v-.001c.929-3.202 3.107-5.854 5.982-7.505l.116-.066h.01c2.854-1.64 6.227-2.194 9.444-1.395h.001l1.144.288 4.233-7.337-.819-.848a12.13 12.13 0 0 1-2.2-3.161.5.5 0 0 1 .233-.668Zm-12.17 13.194.002-.002-.002.002Zm.042-.022a.203.203 0 0 1-.003.003v-.001l.003-.002Zm.552.834-.002.002.002-.002Zm-.04.02-.002.002.002-.002ZM21.753 0h9.984l.533 1.861c.85 2.937 2.85 5.379 5.502 6.91.061.027.11.06.134.075 2.651 1.532 5.762 2.034 8.713 1.299h.002l1.874-.46 4.986 8.641-1.34 1.39a11.584 11.584 0 0 0-2.022 2.894.5.5 0 1 1-.898-.44 12.573 12.573 0 0 1 2.198-3.145l.001-.002.819-.85-4.234-7.338-1.144.28c-3.224.803-6.607.248-9.472-1.412l-.013-.008-.013-.009-.005-.003-.014-.004-.043-.025c-2.875-1.65-5.063-4.302-5.991-7.515L30.983 1h-8.476l-.326 1.138v.001c-.929 3.202-3.107 5.854-5.982 7.505l-.116.066h-.01c-2.854 1.64-6.227 2.194-9.444 1.395h-.001l-1.144-.288-4.243 7.347.818.848a12.093 12.093 0 0 1 1.846 2.482.5.5 0 0 1-.87.492 11.089 11.089 0 0 0-1.693-2.277l-.002-.002L0 18.316l4.997-8.653 1.875.472c2.965.736 6.093.222 8.748-1.318l.117-.067h.01c2.642-1.531 4.626-3.967 5.474-6.889L21.753 0Z"/><path fill-rule="evenodd" clip-rule="evenodd" d="M26.74 19.93C22.484 19.93 19 23.524 19 28c0 4.476 3.484 8.07 7.74 8.07s7.74-3.594 7.74-8.07c0-4.476-3.484-8.07-7.74-8.07ZM18 28c0-4.99 3.895-9.07 8.74-9.07 4.845 0 8.74 4.08 8.74 9.07s-3.895 9.07-8.74 9.07C21.895 37.07 18 32.99 18 28Z"/><path d="M26.74 21.87c-.81 0-1.58.18-2.28.49 2.07.94 3.52 3.11 3.52 5.63s-1.45 4.7-3.52 5.63c.7.32 1.47.49 2.28.49 3.2 0 5.8-2.75 5.8-6.13s-2.6-6.13-5.8-6.13v.02Z"/><path fill-rule="evenodd" clip-rule="evenodd" d="M39.48 28a.5.5 0 0 1 .5-.5h6.97a.5.5 0 0 1 0 1h-6.97a.5.5 0 0 1-.5-.5ZM38.26 22.24a.5.5 0 0 1 .5-.5h4.7a.5.5 0 1 1 0 1h-4.7a.5.5 0 0 1-.5-.5ZM38.28 33.71a.5.5 0 0 1 .5-.5h4.59a.5.5 0 1 1 0 1h-4.59a.5.5 0 0 1-.5-.5Z"/><path fill-rule="evenodd" clip-rule="evenodd" d="M48.88 26.57c-.794 0-1.43.636-1.43 1.43 0 .794.636 1.43 1.43 1.43.794 0 1.43-.636 1.43-1.43 0-.794-.636-1.43-1.43-1.43ZM46.45 28a2.425 2.425 0 0 1 2.43-2.43A2.425 2.425 0 0 1 51.31 28a2.425 2.425 0 0 1-2.43 2.43A2.425 2.425 0 0 1 46.45 28ZM45.39 20.81a1.43 1.43 0 1 0 0 2.86 1.43 1.43 0 0 0 0-2.86Zm-2.43 1.43a2.43 2.43 0 1 1 4.86 0 2.43 2.43 0 0 1-4.86 0ZM45.3 32.28a1.43 1.43 0 1 0 0 2.86 1.43 1.43 0 0 0 0-2.86Zm-2.43 1.43a2.43 2.43 0 1 1 4.86 0 2.43 2.43 0 0 1-4.86 0ZM6.03 28a.5.5 0 0 1 .5-.5h6.98a.5.5 0 1 1 0 1H6.53a.5.5 0 0 1-.5-.5ZM9.52 22.24a.5.5 0 0 1 .5-.5h4.7a.5.5 0 1 1 0 1h-4.7a.5.5 0 0 1-.5-.5ZM9.62 33.71a.5.5 0 0 1 .5-.5h4.59a.5.5 0 1 1 0 1h-4.59a.5.5 0 0 1-.5-.5Z"/><path fill-rule="evenodd" clip-rule="evenodd" d="M4.6 26.57a1.43 1.43 0 1 0 0 2.86 1.43 1.43 0 0 0 0-2.86ZM2.17 28a2.43 2.43 0 1 1 4.86 0 2.43 2.43 0 0 1-4.86 0ZM8.09 20.81a1.43 1.43 0 1 0 0 2.86 1.43 1.43 0 0 0 0-2.86Zm-2.43 1.43a2.43 2.43 0 1 1 4.86 0 2.43 2.43 0 0 1-4.86 0ZM8.19 32.28a1.43 1.43 0 1 0 0 2.86 1.43 1.43 0 0 0 0-2.86Zm-2.43 1.43a2.43 2.43 0 1 1 4.86 0 2.43 2.43 0 0 1-4.86 0ZM14.499 33.262a.5.5 0 0 1 .659.257c2.016 4.583 6.446 7.751 11.582 7.751 5.136 0 9.566-3.168 11.582-7.751a.5.5 0 1 1 .916.402c-2.163 4.917-6.934 8.349-12.498 8.349-5.564 0-10.334-3.432-12.498-8.349a.5.5 0 0 1 .257-.659ZM14.924 21.783a.5.5 0 0 1 .253.66A13.613 13.613 0 0 0 14.01 28a.5.5 0 1 1-1 0c0-2.13.445-4.15 1.253-5.964a.5.5 0 0 1 .66-.253ZM16.003 19.126c2.508-3.275 6.39-5.386 10.747-5.386s8.24 2.111 10.747 5.386a.5.5 0 0 1-.794.608c-2.332-3.045-5.93-4.994-9.953-4.994s-7.62 1.949-9.953 4.994a.5.5 0 0 1-.794-.608ZM38.566 21.783a.5.5 0 0 1 .66.253A14.612 14.612 0 0 1 40.48 28a.5.5 0 1 1-1 0c0-1.99-.415-3.87-1.167-5.556a.5.5 0 0 1 .253-.66Z"/></symbol></svg>